/* XPM */
static char *rabaa1694914625[] = {
/* columns rows colors chars-per-pixel */
"64 64 68 1 ",
"  c gray4",
". c #0B0B0B",
"X c #0C0C0C",
"o c gray5",
"O c #0E0E0E",
"+ c gray6",
"@ c #101010",
"# c #111111",
"$ c #111312",
"% c gray7",
"& c #131313",
"* c #121413",
"= c #131514",
"- c gray8",
"; c #151515",
": c #141615",
"> c #151716",
", c #161616",
"< c gray9",
"1 c #161817",
"2 c #171918",
"3 c #181818",
"4 c #191919",
"5 c #181A19",
"6 c #191B1A",
"7 c gray10",
"8 c #1B1B1B",
"9 c #1A1C1B",
"0 c #1B1D1C",
"q c gray11",
"w c #1D1D1D",
"e c #1C1E1D",
"r c #1D1F1E",
"t c #1E1E1E",
"y c gray12",
"u c #1E201F",
"i c #1F2120",
"p c #202020",
"a c gray13",
"s c #202221",
"d c #212322",
"f c #222222",
"g c #232323",
"h c #222423",
"j c #232524",
"k c gray14",
"l c #252525",
"z c #242625",
"x c #252726",
"c c gray15",
"v c #272727",
"b c #262827",
"n c #272928",
"m c #282A29",
"M c #292B2A",
"N c #2A2A2A",
"B c gray17",
"V c #2A2C2B",
"C c #2B2D2C",
"Z c #2D2D2D",
"A c #2C2E2D",
"S c #2D2F2E",
"D c #313131",
"F c #303231",
"G c #323433",
"H c #333534",
"J c #343434",
"K c #373938",
/* pixels */
"<<<<<&&&&&&&++&++@@@&+@++&XX++.4&X .X  X           ..XXX.X.+  +&",
"<<<&&&&&&&&&&&+&+@@&&+@++&++&.+4&+ XX  X          ...XXX.X+..++@",
"<<<&&&&&&&&&+&&++@@++&+@+&++@++8&+ .+  X         ...XX. . ++ ++&",
"<&<<&&&&&<&&&&&&++&&&@++X&+X&X+8&.  .  +...........XX ++.++.+.+&",
"<<<<<&&&<&<&&&&&+&&&&@@++&@+&++8&+ ++  +..........XXX++. ++X.X+&",
"<<<4<<<&&&&&&&&&@+&@&&&&+&@+@++q&+ X+  XXXXXXXXXXXX.+X.+. +++++&",
"4444<<<<<&&&&&&&&&&&&@&++-@+&++q&+ ++XX+XXXXXXXXXXXX. +XX+++++&&",
"4q4q<<<<&<<&&&&&+&@&&&&@+&@+&++4-+ ++X +XXXXXXX.XXX+++++X+++X++&",
"qq4444<<<<<&<&&&---&&&&@&+&+&&+q4..+.X+ +.+.+.+.+.+.X++@+++@@@&+",
"q44444<4<<<&&<&<---&&&&&&+-+&& y4+X@X.+.X+.+.+.+++.++++@++@+@&+&",
"q4444q44&<<<&<<&&---&&&&&+<+&&Xy4++@+.+ +.+.+.+.+ +..++++@@++&&+",
"qq44qqq4<<<&<&<&-<--&&&&&&3+&<+a8+.&.+&+.+.+.+.+++.+.++++@@&&+&&",
"qqqqqqq4<<<<<&<&-<&&--&&<&<&&<+aq+++++&X+.+.+.+.X+.+++++++&@+&@&",
"aqqqqqq4<<<<<<<<<&<&----&&<+&<+y4+X&+ @X.+.+.+.++.+.XX++&&++&&&&",
"aaqqqq4<<4<<<&<&-<&<<&--&&<@&&+a4X.@ X+.+.+.+.+.++.++++++&&&&@&&",
"kaaqqq4<4<<<<<<<<<<-<&&&&&<+&<Xp4+.+ X+ .+.+.+.+X.+.X+++&+@@&&&&",
"ji00009221=>1221*<<&<&&&++<+&<+a4. +. + XX..XXX+ X+++++@++@&@&&&",
"jau00002211>251>&=&<&&&&&&<+&&+a8X++X+@.X ++++++XX ++++@++++&&&&",
"jdiuqu092111252><<&&<&&&&&<@&&Xaq++@++&XX++.+X++ ++++++++@@&&&&&",
"bjiiiu0991122511<&<<&<&&<-3@&&.qq++@++@++XXX+++++.+X++&&@@&@&&&&",
"bjiiuu0092225211<&<<<<&&<&<@&&+q8+X&+X+X..++++++.+++++&+@++&&&&&",
"bjiuuuu099225211<<<<<&&&<&<@&& q8+X+..@X++X+++++X++++@+&&+&@&&&<",
"bdiuuu990055551=&<<<&<<&<&3@&&Xy4++&++&X++++++@@++++@@&@@&&&&&-<",
"jduu0u990055551><<<<<<<&&&<@&-Xyq++&++&+XX+++@@++X++@&&&&+&&&&<&",
"njiiuu0095925522<<<&&<<<&<&<<&&qq&&-&&&+++++++++++++@+@&&&&&&<<4",
"bjiuuuu999595252<<<<<<<<&&++&++34++&+++ ++++++++++++&&&&-<&&-<<4",
"biu9909922222111<&&&&&<<<4<<4<<pa--3&&<&+..++.+..++++++&&&&&&<<3",
"bdi0u09999925222<<<&<&<<&<++<&@qq@+&++&X+++++++++++&+&&&<<&&&<44",
"bjiiiuu000999995<<<<<<<4&<&&<&&qq&@&++&++&++&+@++@&&&&<<<<<<<<4q",
"ji00999211111=>=<&&&&&&&&<&&4&-pg<&-@&&+++++++++.+.++&+@&@&&&&<3",
"njiuuuuu25221211<<<<&<<<+<+&<&@qp&+& +@X&&&&+@&&+++@&&&<<&--<<<4",
"HFSCVVmnxjjjjddjaqaqqaaaakakmkkDJkkkpakpqqqpqqyq88qqqqqqaapypgkk",
"KGCVVVnjiuuiuuuu44488qqq4yq8p8qBZ4qq4pqq4484484443444444<<<4444q",
"Cniuuu021>1===**&&-&-<<<&<--3<<ga&<<&4&<&&-&&-&&<<&<&<<&&&&<<<<3",
"ndu9092>==*=***$&&&&<-<<&<--3<<gk&<&@<&<&-&&----&&&&&&&&&+&&&&-<",
"Cnduuu021111>>1>-<<<3<<<<4<34<4vk-3<&4-<<<<<<<<<&<&<&<&<&&&&<&<<",
"Vji00u511>>=====&--<&<&<&3<-4<<kk@<&@<&<&<&<<&<-<&<-<&<--<-<<<<-",
"nju099211111>1>=&-<-<&<&&3<&3<<ak+<<&<&&<-<&&<&<-&---&--&-&&&&&&",
"Vbiuuu9292251221<<<<<<<<<4<<444vv&44-4<<<<<<<3<<-&-&-&-&--&&&&--",
"Vniuuu92111111==<&<&<&<-&<<-4<4kk&4<&4<<<<<<<<-<<-<-<-<-<<<&<<-<",
"nbiu0092522>>>>1<-<<--<<-<&&4<4kk<-4<<<<-<&<&<&<<&<&<&<&<&&<&-<<",
"nbiu00925211>>>1<<-<<<<--<&&434kg<<4-<3&<&<&<&<&&<&<&<&<<<<&<<<<",
"nbiu0052521>>>>1--<<<<<--<&&q34ka<&4<&3-&<&<&<&<<&<&<&<&&&<<&<<<",
"mbiuu992211>>>>1<<<---<<-<-&q44ka<-<&<3-<&<&<&<&&<&<&<&<-<&&-<<<",
"nbi00092522>>>11-<<<<<<--3<<q44ka<-3-<<&&<&<&<&<<&<&<&<&<---&-<<",
"mbiu00925211>>>=<<--<-<<&3<<y44ka<-<&&<&<&<&<&<&&<&<&<&<&-&&-<<<",
"mbiu0052521>>><<<-<<-<-<&<<3qq4ka-&<&-<&&<&<&<&<<&<&<&<-&-&&-&&<",
"nbiuu992211>>>=<<<-<<<-<&<<3pq4ka-&<&&<&<&<&<&<&&<&<&<&<-&&&&&&<",
"bjqq444<<&&<<<<<333<<<-<<<<444qaa&<4<&<&-<<<<---&&&&-<-<&@&&&&<<",
"kkaqq444&<<&<<<<333<<<<<4<3443qaa<&4&<<&<<&&---&&&&---<&&&@&&<<<",
"kaqq44<<<&<<<<<<333<<<--<<<443qaa--3&<<@<&-<&-&&&&&&--&<&&&&&&<-",
"kaq44<<<<<<<<<<<333<<<<<<<344<8aa--3&&<&<-<---&&&&&&&-&-&@@&&&<-",
"kaq444<<<<<<<4<4333<<<<-3<<3<<4ap-&3&&<&&<&&&&&&&&&&&&&&&&&&&&&&",
"aq4<<4<<<<<<<<<4333<<-<<<<<33<4pp&&<&&<@&---&&&&@@@&&&&&&&@&&&&&",
"aqq44<<<<<<4<44433<<<<-<<<<<3<4py&&<&&<@---&&&&&&+&&&&&&&&&+@&&&",
"qq44<<<<<<<<444433<<<-<<<&&<3<4yp&&<&&<&---&&&@@+&@&@&&&&&&+&@@&",
"qq44<<<<<<<<<<<<<<<<<<<<<<<<<<4qq&+&&&<@&&&&&&&&&@@&&@@&&@&&&&&&",
"a44<4<<&<&&<<<<4<<<<<<<<<<<<<34pq&&<&&<&&&&&&&&&&&&&&&&&&&&&&&-&",
"qq44<4<<<<&<<<<4<<<<<<<<<<<<<<4qa&&<&&<&&&&&&&&&@&&@@&&@@&@@&&&-",
"aq4<4<<<&<<<<<<<<<<<<<<<<<<<<<4pa&&<&&<&&@&&&@&&&+&+&+&+@&&&&&&&",
"qq44<4<<<&<<<&<<<<<<<<<<<<<<<<<qq@@-+@&+&&&&@&@&+&@&&@&&+&@&&@&&",
"qq444<<<&<&&<<<<<<<<<<<<<<<<<<4qy&@&++&++&+@@&@&+@++@@++++&+&&&&",
"qq44<<<<&&&<<&<&<<<<<<<<<<<<<<4qp&@&@+&+&+&+&+&+@@+@@@@@@@@&+&@&",
"qq44<<<<<&&<&<<<<<<<<<<<<<<<334qa&&-&@&++&+&+&@&@@@@@@@@@@+&@&@&"
};
