/* XPM */
static char *_a2df0fa5cb94739de7f6b1da1ffc16b9laf2TUgCjPplcvf[] = {
/* columns rows colors chars-per-pixel */
"60 64 248 2 ",
"   c #0B0300",
".  c #1A0201",
"X  c #160301",
"o  c #161512",
"O  c #291110",
"+  c #2D291D",
"@  c #181B28",
"#  c #271D27",
"$  c #2F1C32",
"%  c #182729",
"&  c #1B2935",
"*  c #1B3437",
"=  c #10302D",
"-  c #272829",
";  c #362826",
":  c #283529",
">  c #37362B",
",  c #292936",
"<  c #362A37",
"1  c #2B333C",
"2  c #273738",
"3  c #373837",
"4  c #1A281C",
"5  c #462A28",
"6  c #47372B",
"7  c #483836",
"8  c #563838",
"9  c #53332F",
"0  c #693A35",
"q  c #582919",
"w  c #374339",
"e  c #26463E",
"r  c #48443A",
"t  c #57463A",
"y  c #524A27",
"u  c #67483A",
"i  c #724B39",
"p  c #2B2D42",
"a  c #352A44",
"s  c #283844",
"d  c #333B44",
"f  c #363946",
"g  c #3F3D53",
"h  c #193845",
"j  c #453C48",
"k  c #523746",
"l  c #1A454A",
"z  c #274345",
"x  c #374748",
"c  c #384B54",
"v  c #305050",
"b  c #3A6971",
"n  c #36625A",
"m  c #494848",
"M  c #574847",
"N  c #485348",
"B  c #58564A",
"V  c #484A54",
"C  c #564C55",
"Z  c #48565A",
"A  c #565859",
"S  c #684848",
"D  c #68544A",
"F  c #674B55",
"G  c #645A5D",
"H  c #6B5C5B",
"J  c #695656",
"K  c #755958",
"L  c #764C4D",
"P  c #536459",
"I  c #68655A",
"U  c #77645A",
"Y  c #71715C",
"T  c #4A5B64",
"R  c #585B65",
"E  c #675B65",
"W  c #765C65",
"Q  c #705E71",
"!  c #4A6667",
"~  c #586668",
"^  c #5D746C",
"/  c #5A6B74",
"(  c #5A7679",
")  c #497271",
"_  c #686768",
"`  c #7B6263",
"'  c #776968",
"]  c #6A766C",
"[  c #797469",
"{  c #696A76",
"}  c #776B76",
"|  c #69767A",
" . c #767778",
".. c #883D2C",
"X. c #83443F",
"o. c #89575B",
"O. c #87655C",
"+. c #916B58",
"@. c #895C65",
"#. c #846B64",
"$. c #876968",
"%. c #966A68",
"&. c #87756A",
"*. c #96756A",
"=. c #886D74",
"-. c #8D7473",
";. c #8C7B74",
":. c #867878",
">. c #9C7C74",
",. c #947E7C",
"<. c #987778",
"1. c #976C75",
"2. c #A5776B",
"3. c #A37B74",
"4. c #A57979",
"5. c #B67A7A",
"6. c #AC6E6B",
"7. c #A56D61",
"8. c #588378",
"9. c #688679",
"0. c #798579",
"q. c #71856F",
"w. c #97846E",
"e. c #89847A",
"r. c #9C837C",
"t. c #978678",
"y. c #928F79",
"u. c #A8836B",
"i. c #A7877A",
"p. c #B5897A",
"a. c #A9937C",
"s. c #B5937C",
"d. c #B9826D",
"f. c #C58978",
"g. c #C69379",
"h. c #5C7182",
"j. c #6A7B83",
"k. c #747C85",
"l. c #787986",
"z. c #76778C",
"x. c #887B85",
"c. c #967D86",
"v. c #896E81",
"b. c #A87C83",
"n. c #B67C84",
"m. c #C57F8A",
"M. c #5E8686",
"N. c #6A8486",
"B. c #788689",
"V. c #77958D",
"C. c #788B92",
"Z. c #7A9996",
"A. c #6A9490",
"S. c #79A59B",
"D. c #799BA3",
"F. c #78A5A7",
"G. c #7FAEC0",
"H. c #888986",
"J. c #998986",
"K. c #83948C",
"L. c #9B948B",
"P. c #878994",
"I. c #978B95",
"U. c #889997",
"Y. c #989897",
"T. c #A38483",
"R. c #AB8584",
"E. c #A38B84",
"W. c #AB8C83",
"Q. c #AC8D8B",
"!. c #A5878A",
"~. c #B78B88",
"^. c #A39384",
"/. c #AB938B",
"(. c #A69789",
"). c #B79789",
"_. c #A68D94",
"`. c #B98D93",
"'. c #A59393",
"]. c #AD9B9B",
"[. c #A79896",
"{. c #B39493",
"}. c #B49B94",
"|. c #B49D9C",
" X c #BA9D9B",
".X c #BA9896",
"XX c #89A599",
"oX c #98A39B",
"OX c #9DA189",
"+X c #A9A49B",
"@X c #B8A498",
"#X c #B5A68F",
"$X c #889BA6",
"%X c #969AA6",
"&X c #8D8BA2",
"*X c #A89CA5",
"=X c #B59DA4",
"-X c #89A7A8",
";X c #9BAAA4",
":X c #96A8A7",
">X c #8BB4A9",
",X c #97B4AA",
"<X c #97A9B3",
"1X c #87B4B6",
"2X c #9CB4B2",
"3X c #98B7B7",
"4X c #88A9B4",
"5X c #A4A2A3",
"6X c #A7A9A8",
"7X c #B8A7A6",
"8X c #A4B3AC",
"9X c #A9B4A7",
"0X c #B6B6A9",
"qX c #A7AAB3",
"wX c #ABB4B3",
"eX c #A3BAB2",
"rX c #A7B7B7",
"tX c #B5B6B6",
"yX c #B7ABB5",
"uX c #C49688",
"iX c #C69998",
"pX c #C98F8C",
"aX c #C6A289",
"sX c #C7A598",
"dX c #D6A69A",
"fX c #D3A689",
"gX c #CB9CA4",
"hX c #C3A5A4",
"jX c #C9A8A7",
"kX c #D4AAA7",
"lX c #C8B4A6",
"zX c #C7B6B6",
"xX c #D9B6B6",
"cX c #D0B0AE",
"vX c #E7AFAF",
"bX c #E5A39A",
"nX c #95C3BB",
"mX c #A7C4BA",
"MX c #B6C4BB",
"NX c #A6C1AD",
"BX c #C6C4B7",
"VX c #96B7C4",
"CX c #A7B8C2",
"ZX c #B5B9C4",
"AX c #97C3C6",
"SX c #A7C7C5",
"DX c #B3CDC9",
"FX c #CBC8C8",
/* pixels */
"n >X,X| n 8.! XXw Y ^.9 X.f.p.i.p.L t L.I _ [.x ^ ^ 8.-XqXc b F.G.M.) V. .7XJ &.^.5 i ~.a.a.p.i t e.Y ; [.E } R z.$X3XT ",
">X3XwXY.w U.N ] 9XJ.5 >.uX5.).aX~.pX>.6 :._ m *X:X= XX,XCXCXF.AXAXF.) 2Xe.' D ,.8 Q.uX2.#X#Xu.).w.r y.@X$.F _.< &XCX>X-X",
"2X$XE 7 C =.O :.; D #.b.5.dXD 6 ~.2.R.U -.. ,.7 B :.N m ZXqX<X<X/ _ B.:.5 <.. #.D i.4.3.u u ).*.(.D #.; r.O H  .x P nX>X",
"9.U.M @.xX1.b.Q.i.i.hXQ.!.^.r + `.3.jXjX<.T.Q.T.W.{.U M *X} { <X} J.|.<.`.R.b.c.hX/.{.{.9 6 /.E.}./.W.>..Xc.r.+X_ c XXA.",
"P d ' `.%.bXn.b.{.cX$.@X:.- K.,X6 S xXr.hX7X#.sXkX%.vX#.; C E < @.gX%.cX`.-.Q.7Xt.[.A + Y.[.> U /.>.iX~.%.uXkX*.@X;.A U.",
"] K.' b.vXo.6.`.&.;.+XY.Z.mXS.U.wX0X+XzX` ` 7XO.%.dX*.L 7X{ { yX@.5.gX1.=.zX' =.[.oX;X9X;X6XtXY.@XjX>.>.~.2.+.fX/.;.(.e.",
"v oX; E.m.n.. $.3 0.Y.MXnXF.SX1XnX,X6X]. .N ] X *.uX>.+ B ! Z C . R.uX3.  P N _ oXMXZ.S.:XB.-X>XMXK.[ + O.X #.lXt.U +X7 ",
"K.^ H.t.6.m.@.E NX;XeXXXA.l A.F.l Z.-XrX;X8X] Y ).>..X[ ] U.qX} 4.`.%.}.q.9.oXMX8XS.S.z / P.z Z.Z.,XMX8X[ I 0Xa.#X&.J ].",
"_ r 4 -.iX>.> NX9.NXx 9.( 4X/ / M.b N.x -XXXeX3 -.T.{.7 oXd f yX6 *.kX&.w NXV.;Xe 9.! M.{ V C.! N.z :XU.9X[ y.#X^.. t H ",
"L.(.` ,.jX;.0.XX>X8._ ~ K.R x.{ v N.Z B.( <XeXk.,.jX=.' yX .l._.$.i.jXH q.,X>X9.] | | P _ v._ / ! A.| :XDXB.e.+X&.&._.=.",
"a.5 D hX$.[.oXmXe 8.B W =.v.K F H.~ { V B.p wXqXL._.jXW 7 I.!.k K jXU xXwXNXx | _ E { } F F =.H { j x.V Y.FX+X;.7XW 8 .X",
"0 *.R.hX@X7X2XV.9.^ W =.L @.b.<.` :.A _ ~ j.%X*XFX_.{.Q.Q.5 k n.R.@X}.6X9XB.9._ A W =.1.b.4.$.<.Q l.Q { [.tX5X+X7X,.J.8 ",
"i uX4.<.I B.3X-XT x.Q L @.bX`.b.sX@.H C z.R Y.ZX%XE ].b.iXS S ~.4.b.' +X;XrXZ  .Q K o.pXn.b.kXK W Q { { U.Z.;X_ Y.e.[.D ",
"3.uXuXQ.w SX-Xz &Xj @.%.pXn.sXsXd.fX#.J.j 6X~ C.ZX: J.E.p.pX5.iXjX_.- tXU.@ B.N x.=.gXpX`.jXi.#XE l.d k.2 ,XrX- H.+Xt.@X",
"s.s.9 7 ,XA.1Xh.T { K !.~.aXy y fX2.w.t ] V B.:X>XS.w D uXuXs.).M M U.-X:XN.! ( C ' iX`.u u s.#XJ.R B.Z ( eXB.9Xt S 5.~.",
"s.#XS ; XX>XD.A./ / E ,.).g.y y g.g.w.P _ P 9.Z.XXXXw 6 ).p.u.a.M 7 U.-XU.| T | C !.pX`.u y aXsXH.C  .Z 0.U.6XY.9 9 iXp.",
").i.iXQ.> wXmX= M.T { W iXp.aXg.f.dXO.[ Z C.= :X8X: J.#Xa.s.a.a.).^.6 +XoXe N.V x.=.`.~.#XfXu.fXc.{ V x.3 U.MX> a.(.).).",
"D Q.>.R.K *XY.3XT N._ =.$.sXp.g.~.o.-.G ] T U.:X9XM }.+.).D u sX&.w.U [.9XV.! j.Q F 1.kXuXs.fX+.F { z.R U.6XOXD t.t.{.o.",
"> (.E.<.{.*XqXU.B.R { E K K t.w.$.W M { | | 3XwXJ.7XjXiXi.5 9 J.#XlX@X(.wX:XN.~ E v.$.=.#Xt.O.L Q z.T z.U.oX9X+XlX#.R.8 ",
"K.; J lX$.zX*XtXf z.j Q E L.B N ' _ B.d N.h rXY.yXJ.T.S 9 |.L.t t #X$.7XwX:Xv / V _.:.J._ r ;.' | f Z.2 MXoX9X .(.-.8 !.",
" .I.' <.=X-. .qX2X| C.{ l.>  .] P _ T C.( 3XrXH.c.|.!.4.=XC =._.<.i.jXJ. .eX,XC.%Xx.z.V Z | G { T N./ -XeXH. .+XT.F c.=.",
"3 [.5 !. X[ 3 eXZ.-Xf j.R P.Z R C./ j.* 4XP.6XM -.Q.R.O k Q C E X J.{.!.3 oX,XDXV R { k.( / | _ j.c rXU.8X> ' jX!.k `.8 ",
"*X' !.{.U lXP q.mX2XrXqXl.a j.B.* Z.-XrXZXqXx.J  X4.`.,.W I.CXR '.Q.1.{._ 0.eX,XqXwXB.c ( ( c &X$X:X:X6X .' 7X=.!.<.W =X",
"A E X Q.sX#.X P w 0.%XqXZXP.:XU.:X:XqX;X} M K O %.`.`.9 [.V s qX7 4.gX%.O I N ] 6X6X%X:X-XD.4X<XrXY.H.7 I . $..Xb.. K J ",
"^ 0.' *.iX*.+./.;.' 7X*X5XtXXX>XtXY.+X5X-.=.T.4.$.vXt.D +Xk.( U.G T.kX<.#.(. .P +XY.;XrX-XXXrX*X5X'.&.U .XK <.sX<.W [.E ",
"! e I @XO.kX).*.T.7X-.*X_ - ,XK.: I ].-.=Xb.`.4.dX$.}.[ 3 x ! c :.Q.%.`.sX;.L.BX:.'.I : oX:X3 E '.r.}./.3.kXgX1.hXU 7 I ",
"! eX> #.sX2..X)./.c..X=XJ.Y.r : J.^.hXQ.!.`.b.Q.<.}.' N U.9.( -Xr :. XR.{./.y.e.@X'.(.H.3 > L.E.}. XR.4.~.4.R.@X' m H.e.",
"eXU.' 7 U i.U t.X [ $.{.r.(.y u ).*.i.K @.8 <.O U ;.N B 2X,X-X3XN r ` <.X J.6 I ' t.t.[.B r sX>.}.S %.O T.5 #.=.r B DXoX",
"3XrXI.*XJ 7XY._ w +X5 1.`.~.#Xi.i.sXkX; ).=XE F Y.3 K.2X-X2XVX<XeX;Xj _.C E yX_.5 b.=X^.a.a.2.g.;.M -.F W |.J.> H.MX2XSX",
"v CX<XI.x.:., Y._ _ _.8 i R.u.s.#X#.5 t.E 5 *XR ~ z B.<X,X! c <X4X( V } k 7X7 E c.S 8 t.a.s.g.i 6 :.;.C [.J  .C K.SX-Xn ",
"b G.AXB.{ F a *XC E _.8 0 ~.a.a.#Xy 9 J.J.$ %XT / Z M.3X<Xc T $XSX) R Q { P.j } c.S 8 W.#Xu.5.0 7 %X_ C 5X< R U.U.F.3Xv ",
"AXSXVXqX7 *XyXQ F *Xk b.iXR.@X#Xu.lXt.7 x.yX} R $Xx Z.3X3X4X4XVXF.SX& yXC W ZXI.8 >.cXa.w.s.f.fXE.x Y.Z _ tXqXA $X3X4XAX",
"nX2XR k W @.5 r.. ;.S Q.4. XD 8 W.a.<.K =.; <.O $.' j A rX4XSX-X! x _ ' O *.r Y $.<.4.iX6 t fX7.~.D [   y.#.p.W m ! 4X1X",
"9.XXj F vX4.4.#Xr.r.lX/.<._.m 7 t.a./.@X1..X`.1.4.iX&.; ;XN.b VXV G 7X<.2.s.w.w.{.`.`.=.w t u.s.`..Xy.a.sXi.2.iX' 2 4XN.",
"b h } cX@.iXkX+.#X#XU hX:.& $XU.3 Y +X&.|.T.,.=XhX%.7X' m Z ! s _ zXO.dXuXu.).@X@.gXQ V S.8.: B kX1.#XOXY aXkX2.FX_ & T ",
"( %X} v.iX6.u.).w.U +X+XP.qX,X>X6X+X[.0X:.:.jX$.$.cXQ.W x. .{ <X_ .XiX3.p.sXw.e.=X=X&X$XnXnX>X9X!.jXL.Y lXO.7.gX=._ wXl.",
"I J . iXgX$.  { w ^ oXwXXXwXV.XX;X8X8X9X .> ' X #.@X/.5 =Xj j *X9 3.dXi.6 Y w P rX<XCXVX4XD.<X%XqXqX] : Y X pX5.n.O k E ",
"L.U <.!.$.yX| | 2X3X,XXXoX2 ^ 9.: V.V.;XtXoXe.[ /.>.W.J.F *X&Xv.c.).4.sXq.] >XNXVX$X4Xs h.&Xa &X%X2X,X>Xq.&.p.5.pXb.=.[.",
"M 7X9 <. X#.> 9XK.8X: B.Z B.) ! 0.! | ~ oXoX6Xr t.(.E.. ` G Q C . w.a.y.: XXXXeXa z.h.z.z.g &X{ | s SXA.NX: I @X1.7 J.M ",
"_ L.W c.jX;.' 9X6X] H.G ] Z ! h.Z | _ -XB.mX9X[ _ lXt.&.!.E =.*XI +XlX&.0.NX,X] h./ z.g h.x.l.B.! N.) AXNXq.y.#Xr.=.H.H.",
"J.r J hX;.[.0X8X2 0.C E E I.Z Z l.H.P._ | s ;X6X0X[ @XU 8 L.'.7 K sX$.zXoXeX3 l.A A ^ 0.=.[  .^ j.c M.v XXXX0X&.@XJ > e.",
"r w.<.@X[.[.MXZ.B.R J :.W W x.J.7X} G { R ] wX;XoXOX9Xt.y.8 M -.iXp.jXJ.eXU.9.T ~ ] ] H.).u.[ I R { ! | >X8XY._./.%.@X6 ",
"i g.w./.I rX$XD.b z.} W %.iXiXdX.X1.' E H.~ B.;XoXI OXe.@Xt t lX%.iXJ 6X2XZ.! | ^ K.y.sXfX6.g.*.} { { j.k.rX=XW 6.n.~.S ",
"u.s.).^.3 CX-Xv z.R v.W pXn.vXpX3.sXW J.V k.d rXrX- J.[.^.J.}.i.).W.- wXZ.v C.V e.OX#X2.g.bX2.fX' v.V x.V &XzX8 n.pX~.pX",
"/.}.D 8 [.Y.oX^ ] G K b.kXpX$.u dX2.W.F _ R j.$X:XY.m D /.i.aXu.U + >XS.XX( j.} [ r.pXf.....g.g.4.L v.Q j.D.<X%X0 L iXi.",
"@X(.u ; L.oXXX9.N :.S <.kXkX9 y uXi.w.D _ / h.&X%X5X7 5 ).s.u.aXq : XXS.<XB.V *XH #.f.bX..q fXu.R.k c.R h.VX4XY.5 S u.s.",
"u.2..XE.+ DX3X= U.c ' @.gX7.aXs.u.g.O.[ E z.c $XZX1 L.}.p.uXf.d.g.a.4 >X8X1 P.j 0.[ ~.6.f.dXu.#XU x., C.l F.VXg c.pXi.aX",
"u dX+.T._ XXS.1Xb j.} W o.uXg.a.aX*.I _ { / C.%X%XG _.t.uXi i iX2.).B eXqX&X/ z._ _ %.sXd.2.aX&.' _ B./ D.4X-XR !.<.).u ",
"6 J.7X'.[.oXrX$X( / z.C ' $.t.:.=.{ E | T N.B.wXL.@X}.J.{.5 > ^.4.iXjX_.yXI.C.R | E ' E t.J.K ` R B.R z.&XqX[.7X].T.L.7 ",
"oX> H |.-.7X,X2Xv N.V l.A :.I A } { | x C.x eXY.7X&.).K 6 H.H.V ' =XL jXyX;X2 N.C A R H.A m J.`  .s z.f 6XzX+X-.7X` ; 7X",
"_ ;.#.r..Xe.q.9XZ.C.B.Z | C _ ] R | x U.h.:XMX .&.sXW.U '.:._ Y._ e.BXy.A DX,X( B.{ P.V R  .<  ./ ( j.eX0X' -.@X<.#.{.F ",
"I I . R.).U > NXoXXXf z.} k.Z /  .~ :XP DXB.9Xr -.sX4.5 xX# 3 tXw y.^.I N :XV.3Xc T / C.( ! P._ ( v :XK.wX> -.}.T.. S @.",
"y.D *.s.+.sXy.I oXFX<XI.C.p z.C.N ,XXX,X;XtX' I r.*.uX1.` yXP.} w.a.w.a.[  .eXeXP.ZXC.h ) ) z $XV.eX;XDX[ &.}.&.`.b.F `.",
"r @XS *.s.*.  Y r _ yXqXZXqX4XC.OXNXMX+X0.N I O E.~.`.O M E k.V X a.).w.X U N  .qXyX:XN.>X1XZ.4X9XMX[ + '   ^.W.T.5 =XS ",
"] H.t p.dX*.U #Xq.e.tXyXI.qX<XCXMXa.+X+X' [ +XO.O.cXR.J ]._ { 5XK p.dXo.4.|.' =.=X=X*X:XZ.-XeX8X0XW.&.t.sX>.U lXT.,.;.E ",
"! x `  X+.sXa.w.#X0X` *X} j ZX;Xw r #X;.0X+X-.|.xX$./.,.< Z ! d K kX7.bXiX%.7XhX1.`.K < oXoX3 J .X*.iXsX+./.cXU +X' 3 ~ ",
"h.<Xm J lXw.w.#Xy.t.'.7X=XzXm 3 e.(.(.@XJ.}.{.!.Q.hXJ N 8X! ( -Xw &.@X`.r.'.{.Q.jXgX~.%.9 9 a.i.`.kXR.p.W./.^.7X[ w U.9.",
"VX4XR k &.U O [ > &.K !.{.'.N 6 E.a.i.U ` X b.k U H H A :X3XVX-X^ 4 :.U t :.+ J.o.2.uXi.y u uX2.~.L %.+ W.. I [ r x 2X,X",
"G.VXCX%X# 7XB ;.L.+X5 T.{.Q.7X#X@XJ.T.7 !.W k ].J.3 Y.eX:X-XVX1X2XXX3 +XH. . .y.9 ).a.t.#Xy.u.sXE.8 '.[.[ M [.w oX6XDXXX",
"b F.4X} Q [ C Y.A I I.W S |.L.e.(.K 7 !.' Q 7XC  .A K.U.3X! v <X,XN.V B. .oXP ] L.9 B L.y.OX@Xt m H.H.C H.] _ P | U.U.~ ",
"h h h @ a # - : @ @ $ O # O ; r > o ; , , $ , @ % @ % e e % % s s d 1 p : x * = 2 o + w : 4 > $ % , 2 o x @ 2 , : x 1 % ",
"h h / &Xm I.P.~ / z.z.g I.} # - - 3 < $ a p , x 2 x % 4 2 , 1 & & , < $ , % * % - d - % * 2 - $ < d p T V c x x V V , @ ",
"* & k.P._.z.C.D.h.&Xh.c.&Xm - 3 , 1 & p , p p & * % = w % , j p s 2 , , x * e * & a g , & 1 a a a p p p f f c x d d f 1 ",
"= 2 1 ; # & p @ h & & a @ f 2 % * @ f p h p s * * 2 * % 1 < $ , & % s , * s = * f # $ a p a a $ a p , j p f p p 1 p 3 , "
};
