/* XPM */
static char *sos1694914108[] = {
/* columns rows colors chars-per-pixel */
"64 64 70 1 ",
"  c #050001",
". c #0B0505",
"X c #0E0906",
"o c #070008",
"O c #0C060B",
"+ c #0F090A",
"@ c #120C0D",
"# c #16110E",
"$ c #0F0810",
"% c #130D12",
"& c #161012",
"* c #1A1415",
"= c #1D1815",
"- c #171018",
"; c #1B151B",
": c #1F181A",
"> c #221C1D",
", c #25201D",
"< c #1F1820",
"1 c #231D22",
"2 c #272122",
"3 c #2A2425",
"4 c #272028",
"5 c #2B242A",
"6 c #2F292A",
"7 c #322C2D",
"8 c #35302D",
"9 c #2F2830",
"0 c #342D32",
"q c #373132",
"w c #3A3435",
"e c #3F3A37",
"r c #373038",
"t c #3B353A",
"y c #3F383B",
"u c #423C3D",
"i c #45403D",
"p c #3F3840",
"a c #433D42",
"s c #464041",
"d c #4A4545",
"f c #4E4946",
"g c #4C454A",
"h c #4E484A",
"j c #524C4D",
"k c #55504D",
"l c #4F4850",
"z c #544D53",
"x c #565052",
"c c #5A5455",
"v c #5E5956",
"b c #575058",
"n c #5B545B",
"m c #5E585A",
"M c #625C5D",
"N c #635D62",
"B c #666062",
"V c #6A6465",
"C c #6C666B",
"Z c #6F696C",
"A c #736D6D",
"S c #746D72",
"D c #767072",
"F c #797373",
"G c #797279",
"H c #7F797C",
"J c #857F7F",
"K c #867F87",
"L c #878183",
"P c #8B858B",
/* pixels */
":::=*##+8M.>>#+##=+@=&.;&O-X1<Ony;:<><:4>11:<11*;<<-<$C4<<<44444",
"==;;>##+7M &X@@#X#X++#.OO+-.&%onr&;:;:*<1<>:;:1:;<<-<-N4<<4<<444",
">>>>>>##uMX*##&>#=#=@=#&$&:+-&%nr;:1>1:1,:;>-:<:;;;-<-n9<4<44494",
"#@XX++X.3u.X.  . .   .   .$ oO$g3.%%@%+%$.O;.+$+$$OO-$p<$$$-----",
"jkjjjfjdMAffhdddffddcjgssggdlggSMgzzlzhzzgzAjbzzlzllblGNbbbbbbnn",
"333,3,>>>6>>>>>>,:66m82::>::<:;45;22>4>12>0n251254<44<944444994p",
">*##*#*&@#+@#@#X. @ m#  +@O+%O$$-O&%%-%%%+1z$&$&--O--o$O$-------",
">>*>*>*#&*#+++&X# @ Z#.$+@O+++-$&O**%-***$2n%%%*--$---------<-<<",
"*******##&&@#+@+@ +XB- X+&+++%$o+$*$*-O;+%1M.:%#$<$$<-$---<<-<<<",
"***#**#@&#XX@X@@#.#Xk=.#+$O+&$%-*$*%%*O*+%<h+;$$$-$-$$-$$$$-$---",
"MMvMMMMxZAMMMccMvkkkDvccmxxbnxnGCmmbmNzmzcNGbmbmbnbnbnGCnnnnnnnN",
"*####@@@uu###@@+#XXX+++O&++%-O$s0&&$%;$++%%**$+%-$$<$<p4--<-<<<<",
"*****##@uj@#@X@X@X@#.@&+&O+$-oOlt&&&%;%$%%+O*$$*-o$-$-bp---<<<<<",
"**#**#&+3k.@XX@+XX@@ +$.O +.&o ly$%-%-%+%%OO#%+$-$-$$$b4----<-<<",
"*####@XX3c.+XXX@..X.X ... - %O ltO$*+%%++$O+O$++$--$$ob4--<--<-<",
"333222>>uA#2>>>>,>2=6:13219:65-Nh;26133122>5*521-94<p<Cp49494999",
"kkkjkjjjkkkhkchkckcdJMkcmhzncbbxxbxbxbzhjbnPxxnnlbnnNbCbbbbbnnnn",
"&&##@#@@... .. X  X j*  .o.O..$O++OOO++OOO$j++%%oo$ooo$o$$$$$$--",
"****&#&&&>#+##+&#@#.B>@%.@%@O$--&&%%%$%*+O-B%*%%<<<-<<$4-$-$$--<",
"=*****&&X>##&@#&*X@ M>+*@:;&-:;-<::;**%;&+;Z&-%%-$-$$<o<<<<<<<<<",
"#@@#@XX@ #..X XX  X v*   @Oo$$O$+O+$%O.OO.ObOOO.$$o$$$o$$$$$$-$$",
"uuuuuuuuufquuuuuuqueZdtequrqapraprtaautayyuZauauppppp9l9pppppppp",
"uuuuuuuukMquuuuuiuwqsuuuahaagaaZbgaflgghghabhaggplblbpPlalalllbl",
"@@XXXXXXqu.X# *X  @@.@@ .%.o% %g6*O+%+O+o+ .+ OOoo$o$oN-$$$o$$$$",
">*>>==*@ukX>#=@=##***>>*=%1*11%ny*;;:>%&--:%*%;*--<-<$C<--<-<<<<",
"***#**#@uaX=**@=#>>#&*&*-@>%=-$bp:>;;>;;:%%%%*-*-<<-<-N4<---<-<<",
"##@##@#@uuX*##@=@##X#X+&@@>$%%$l9$$++#+%@o %oOOOo$$o$$l<$$$$$-$$",
"jkafjkaukVujajaadfffMjdfhgxggggSVlczlbzzxzzZzczxbbbbbbKNbbbbbbbb",
"u3u33u336u2767638778Miqq0700005pa6tr0t00qqyC0y9yppppp9l99ppppppp",
"#@@#@X#@XXX###&@#@##k6***&*-=--%*O*%+%OOoO*bo- -$$o$$o-o$oo$o$oo",
"******=**#**&==*>#==M7*>>>11><1;1*3<*>;;%*<C%3O<-<-<<-<<<<<--<<-",
"=**&#***>X**@*==>=>>M3*>=>:1;:5:<%1;+;**&%%V.<o<-<$<-<-<--<---<-",
"@@@+#@#@+@#@&@>##@,>M7**>#>>**@>;@>%X:*@@%;n+>.*;%-;$$;&--*%-*%%",
"MccMcMcxMDMMMkMMBMMvJVMMxkkkMMjZZvBmnBMvmmvLkNxBMmMBmmHVNNNNNNNN",
"*=**>#*&7x#>>>>#,=>#,>,>>>>>3>>at;>>>1;>:>*3%>%>;;<<1*m511>>1>11",
"###@&&@@>M.###>>#*>>#*>*#>#+>@Xae*%**;+*+%@+**%+%@*%$.N<$%%%%%%%",
"****>##@>M.##>>&*=,2*>>*#>#X>@Xfa;*:::#;&=*+:::#:*=**OB1&;;*;;;*",
"@XX@+@XX>jX#@#@X@@&@#@##@&#+>#Xuq+X@%%O@%++.O#%@%%$%%+j1$++$+%%%",
">,>,>>>>ua331113323=u>,6>>3>>>>ui><112>,4>47:143422545ht23555536",
"kjjjkkjfMMkkkfcxckvhJcjcxkMxkkkMBhjjjcjjhdvDhjchbhzblcNNnmmmmmNN",
"XX......X @@X+@#@X*.M>X&+#+@X.@.*+@@O+*OO.#NO+X.$$$$$$.@$+$+%$+%",
"@@#@#@@##X@&@@##*&#.k>@>#&#&@#>X-%**$&*#*%*M+%%**-=*>:#;*-**;*-*",
"#&##&#&&#*#*#***=**Xk>#>*&#**>&>>#>>**:;**>v%#::**=;1*;;;;;;;;;=",
"X....... # X.@X+XX#Xh>..#XXX@+.@%O+%+X++o+*h++OO+$$+$.%.++%%%%%%",
"777766767i,q687666t7Mu86767688>ut60q76076qtBwqw8rqw0w6g9rrtwwttt",
"qwwwu88ujVwuuuuuuuu7kuuuu7w8uu7MzewyytytuaexqesuayaagtZgiaaiaaai",
"     .. >h # @..... #  X. @ @@ u6@.+++#+++ * O&+$+%+;Xg:$%@%%@%%",
"X@X@XX+X3j.#X#@@@#>X>@@&*X>X*# jt*X*;**&*;#1*<1%>-<&>%n5-**;;;;;",
"@@@@@@@@3hX@#@@@@>##>.**#>#@>.@ua#%>&:1%>*@:%>:*<*<-1%b5<<<<<<;;",
"        =u .X   ..  @    X  @ .76  + X& &+o* @@%$+%$-+g<%%%%%%%$",
"fdfddffdcAddjffdfjfaVdfdsjsskddVMsdkggkggdgMigggfdgdzdDzgggfggga",
"33333333>w>>33333731c76336,373>q8146336446em7w77990902d599900969",
" X.....X X  X.@.X+XXa#+.@@X+@@X+%+%&+@%@+@6k%>*%-;;;;%>$-----**%",
"+@+X+@X@@X#+@@@X#@++M>@@@@#@@**@%#******@%1k.=&:%*-*;*-**&***%&%",
"@@X@@@@X@.*X#.@++@+XM>+#X@#@@#*+&**%#*%*:*4MO>>>;>>>,>;>;>>>>>:;",
"..X.....@ # @.@XXXX.MXX+X@#@.@#.@*%+&%#%+O>M.:%%***%*;X***%***%*",
"ccxkkcckMMkjkcMkMkMjFMMkMkcckccZZcmnxNMmNxMFxMNvBxvMfMAxccccxxcx",
"&>*&&>*#ud>;>;>#*@*X>@>#&@&&==:f8*=;*>:==%=4*:>#>*>2;3z3*;*;;***",
".....X. 6d XXX..#X@.XX&@@##+-#@f0@%&%;%*%%***;:%;&::&*M***#**##*",
"X@@@##@.3j X+@@#@X#>X+#+#*#X&. hr++#&*+**::%>>:*=*=*&XM+**=*****",
"X.XXX@X 3c @+..XXXO#..@@ #@.=X.f8++#%#+#%=%O%#%*#@#*=XM#*#=##*#%",
">>>>>>;#qk@>>>>>>>;*3>>3:,2:62>jy>24241643,8,6,613236,v623,,,1,,",
"jjffjjjfjMfjkkkkjjfuDkdkjjjfhjdmnsjhgjhjkzhHhcdxjkffkfvfffffffff",
"..   .   ..   .  X@ f> .  @ .@.++ &+ %+@++%hO: @+#XX#X.@XX....XX"
};
