/* XPM */
static char *_613541694875621[] = {
/* columns rows colors chars-per-pixel */
"64 64 89 1 ",
"  c #010000",
". c #020001",
"X c #030102",
"o c #040203",
"O c #050304",
"+ c #060405",
"@ c #070506",
"# c #080607",
"$ c #090708",
"% c #0A0809",
"& c #0B090A",
"* c #0C0A0B",
"= c #0D0B0C",
"- c #0E0C0D",
"; c #0F0D0E",
": c #100E0F",
"> c #110F10",
", c #121011",
"< c #131112",
"1 c #141213",
"2 c #151314",
"3 c #161415",
"4 c #171516",
"5 c #181617",
"6 c #191718",
"7 c #1A1819",
"8 c #1B191A",
"9 c #1C1A1B",
"0 c #1D1B1C",
"q c #1E1C1D",
"w c #1F1D1E",
"e c #201E1F",
"r c #211F20",
"t c #222021",
"y c #232122",
"u c #242223",
"i c #252324",
"p c #262425",
"a c #272526",
"s c #282627",
"d c #292728",
"f c #2A2829",
"g c #2B292A",
"h c #2C2A2B",
"j c #2D2B2C",
"k c #2E2C2D",
"l c #2F2D2E",
"z c #302E2F",
"x c #312F30",
"c c #323031",
"v c #333132",
"b c #343233",
"n c #353334",
"m c #363435",
"M c #373536",
"N c #383637",
"B c #393738",
"V c #3A3839",
"C c #3B393A",
"Z c #3C3A3B",
"A c #3D3B3C",
"S c #3E3C3D",
"D c #3F3D3E",
"F c #403E3F",
"G c #413F40",
"H c #424041",
"J c #434142",
"K c #444243",
"L c #454344",
"P c #464445",
"I c #474546",
"U c #484647",
"Y c #494748",
"T c #4A4849",
"R c #4B494A",
"E c #4C4A4B",
"W c #4D4B4C",
"Q c #4E4C4D",
"! c #4F4D4E",
"~ c #504E4F",
"^ c #514F50",
"/ c #525051",
"( c #535152",
") c #545253",
"_ c #555354",
"` c #565455",
"' c #575556",
"] c #585657",
"[ c #5A5859",
/* pixels */
"Q`PVPUJWYJSLUPLJYRYPKGABV]^KYGV~GGGLGSJUYLKKYWUAxunZFYGALUW~ELLY",
"mGBcZBlxfr9wahzblcnjdddsiBbdBnlAjhdsu0wt0ew0ulbcbwjcbnfhjjcZGZnc",
"lmclcztrzatafjzbjnBxhfzzanjdAFVGbxzxjdshidsuujmVNefNncdjf9>4thll",
"URLASVmzJZZSZmlldzxlfhddfnxjAJFLZVAGSBmmASAmnBFFz2iBABzZKxtixALR",
"KGSNcxluEPPPJBzlNVAVAAnjfnnnBSGLLKLRPAcxSJJGJLGZc6fJPKZLVnxBSGLL",
"AVSAbbxtANbblffhBBNNZAndwdxxlcBVVBAGJBxlnNBNBBxdz5ibnbhbnxxcmBZJ",
"w4we48w:tww084254442464:>4rr56e95129w0982895242,r$:,>6,52$ ++&10",
"nsffrlZxssfla042usitrads0rsi889>&o  oo + $=*&>0tl5644tua0550uitu",
"cSKZmZSVPxmFKScFUEWYGKW](^WWWELGYVl2:840dxxxnFBhmmcBLSNAi0xnxnlb",
"hBABNNbdBflhzndhxcnnxzxnASAZBNnnFBVatjw6ajxxBSBjhhdxBlazB5269jbS",
"FGAxhljdlfzifNlfnnNZZBnxZAFZNbmZbNGljAzaZGLUW)WKGSVKJjrlB0dnBBxn",
"LYLAnBAASVSnmJcztidjjhiuBVBNnnNVbNZshPLJAGJJPWELEPJLA0;8x6dnbzhB",
"rcLEYLGGRSGAZmuuxNZAZBBABmbcnNmnnnmruGUWPULKLYWR~EPYJi6ax8fSKKNZ",
"tlAGFAVVJcVZSVdjnBZVNmZSABnNVAZNVBAllGGLVBmcxnmmxczcnduln6rzZAt>",
"$+     @@ @o&5====*$$$&&@@#@$#@+>=6,:,$;22>;=$$$ + +>440V5&  ;# ",
"i06wafaeitd5wmlazdiiastejbmnxlzcldVZnxtjfdddt0664065snmVPSLnaljd",
"VAmNFAZGjBZASVAWEZKKcVAruxmBbirjddaaaddaGBBlnwhGVmBZVJQWSUPVBLYG",
"GSbznliirdsasijSl9tldnZuznlit9,566896646wedil2wxcxNZbzjtbSZjdbmx",
"GAxjBNhsjccllflSAsslsjlwAGnhnZmnmZFSABBBmBLALdxGPGJJBNVcfNAmmLQW",
"KSxxKEKFJREERSBLQABVlffiixhinLUJAGLLGASSAZSxnrjSAnnnjznznGLABAJG",
"JSjanFVBBGJGJNcZ^PFbw,:=tnnjmSABJLYYLLLPJJLmGxAWKGR~YLGmdnVmnmmn",
"SSjwfbxzxczlxjlVLUJnsw84jGJZAZmmncxlxnmBAAJBLcmAVmSJSGJAtfxnBGKK",
"$,@  ++#++     ; ;,:6at0  + #o $>$  #=>280r6d4,>4;;:=1ww&@+  @@o",
"smxrriistauui06tzGSNP)YmNVBZKJK^GnjdxVGGAVGB^LLJKSKPSZZncliidcmn",
"YVjszAPRQGRVlGPJQLPYPWWPWFmNNmnnjxGbixNBZVGPJBnmAGAAJRSdcYYUSxVP",
"i8;&:5wrhuf02aiibddjhnVnzdw6566460xi6w0668etw8wijfdtdld86sVAzdaj",
"mxfdafhhias24t8rjttiujBBnnhw8et0iinjidirtuiitthnlxxjjcjr,=mnifta",
"ccxllfdaBSmrfxrfmhhdijVVBFBsijblnjbirnnBddaiiddjjnZVVmfrt=Vnrmzc",
"cmmmmbljnBx8ij0aLZVNjxSFxBbiixNcBid06xBAxjhjcnjialnmnlawa&ch0nlx",
"llllcxjfnbbtfmflYPYUZALUNZNzxZSZBdxdixnBZVBBGLVlxcnncxlfl8blanlx",
";*$&;:=$:$,&&6;# +>,$$1,>=$#$***+ *$ +++ @+  #@ $@+@$@+ 2&$++&=;",
"bjasjxldzumcfBzw6rxBxbZAGnxxnxjjcfAVxnxnAJSclnZAccnVFVclYLdrafBS",
"W()SUBAFPGAGGBnVWYUYUGAGGYAZWWABLJQ]^RWYRWLASSSESYRPE(^YQ^))^WWR",
"ifcdBjbn,;;>,>>,Bxdiidirdnhixxritwdlatiw8ttwahcJtjnccBNlfjlxxllx",
"mbmlB060iiiuuadiBndrijd0jAnjnndnfilmxjxllmmxxfjBtxVBnnlihjxxxllx",
"BnZmGutfilzffxnxxnjiijd0ibdrxxhnjilmxllf0sffxlfx8scmnxjsadddiiia",
"jhnxB0rlaxncnAGSjBABcBnhixiinAnVnjnVxjdr0aajBnfj8anFJLLGSGGGAAVA",
"SSLBSiijdlnbxxcx6dxjdsdrrjrrxBxBnjnVmbcfBAmnBcaa8rdxnNnnBAGGSABB",
"+$>$0;=$+$;>=  + +++++++$2=$22=22=>42462=,>;249a@   $*$$$=>;;$@+",
",506xaw>;10dawwiji0rrrri6ji6r02r0>==@@$@ =&@$;rm6,:20tiiafljdr84",
"^)^PY~YAGAGW^GBLGLWWYGLWRWJAGWWLJGAd(QJ^LLPYRPJASSGLEWRYLGP)[)()",
"alxxnBlraiinAbzAnnnnnxxnnnjidbnjnBBtKGnJLPYWRJBlljjlxcxxdadfjdfl",
"ijxnVSBfjjjnAncGGABAAABABABxxBABnVGrAGBGGJYWWPAnLGGSGGGSxxxfahxx",
"AGSZFPPKABmBSxdcYLLLYLGGZGLGFGLLFJLtVYYYGJPRRPLGULPLLLJJjBSBmAJJ",
"YUJAGUWWGLGJGbijJLLYLGAGxBGKGGGGAmB4lJPLLLGSAASSnmVAAVBB0lAASJJA",
"xcccnmBVnAVAGnhzGGLYLFAGBFLLLLLUJBFtcGYJLGSBBVGPSJUYRYYE8ixnnnxj",
"2268080wrasdxdri=$+$$$$*$$$$$$$=2=r=;&;&@@$$@@&;+$$&$=>262222;;,",
"008000etdjddxdidmjrijjjlzdir0erdaiJnd42260w04>;=+++  @;2i2$@  +:",
"PBBAKBdBJGYQ^WWQLYYW^YL^LWYLGW^)^WYR~WYLULYWYJGLPZAYPY^(WLLLVjln",
"ncnjxxwidsadlxxj22=>0r0drjjieidijnxirddriiiddiidnjxxirxGzddxABxd",
"BASnVKxzBVBBJQWPnxrrxxjjnLGxijxdrxz6>ru6irrirrijmiwrrixNAxiijnnf",
"ddjilnajnVBnBPYSKGnxAndiBLAt6ijdnAAjjxBxxxjzjhjxj6200ijjAAct0sjj",
"naddxlrxmLLBnVZcAGBBAZbcBLGdixBBBcbnABBBAAAABxxxrwfj6>0djmAmBGGV",
"Lxlxnj8xdnBxjlxxxBndjjjndcBnxBABGnxGLAAGLLYYLVNBr0ijr60wfddlAYYK",
"r68600$2 +@@+@=;$2>$$$$&+$=>21>=>=$=:==>$$&>=+  d>$2662$8>@&>6wi",
"6warjNiaftwrw0wtejxjbxdsjrrsdr0r0ir6>296rrsdhsiaAdrr6>>>@@=;+  >",
"Y(``))^WLJSBVYSwGAALYYLLYLAAAGGGBSBjAlLWLGLYLVFWBLRPPRPBmKVJYVJY",
"8efnZmxdtdjiaxj;rur66006062268006e02i>iz8>&&$$6jfxjisxnxfxrdjwta",
"06wlmjr8dlcjfmBidnniijxddddhjzjjdjjjN9jZirrtrrhBVAmjfbBnlz8wftir",
"JnxAAnlnccxainBdixxjhnBNxxxnnnNnxxxxn>rbxzxNmxlclnmbcnxjjf4rcbmn",
"GmcBmjlVJABcxVZaxnAGGAGLPYLLLLUYKGAAKrxGYJSAAVBAijmAGGAmfl0iAJWP",
"GAASBllnnxcxlml4xznVAbxnGGGABZAGNBnnGtcAAABZABbltafzcccxij8wxmGF",
"6644,;$@;;22,62+++$$==*+>>>>=====>>=0$2>>=&==*  $$$*=>250d2288it",
"ffdalnnjitaatjmx6ii0inndidzjddsdnAABYnAnca2$*>22226rdlnVxGliathf"
};
