/* XPM */
static char *_1eec4c8d66d430186670f3871821d39botluRaNkvUbqgZa[] = {
/* columns rows colors chars-per-pixel */
"64 64 198 2 ",
"   c #C1272D",
".  c #C1262C",
"X  c #C02329",
"o  c #C3262C",
"O  c #C4282E",
"+  c #C3272D",
"@  c #C2252C",
"#  c #C2252B",
"$  c #C4272D",
"%  c #C1242A",
"&  c #C1252B",
"*  c #C2272D",
"=  c #C63A40",
"-  c #D47074",
";  c #D57377",
":  c #D47276",
">  c #9D393D",
",  c #7D181C",
"<  c #8F2B2F",
"1  c #CE6C70",
"2  c #A64346",
"3  c #7E191D",
"4  c #8A2529",
"5  c #CA686C",
"6  c #D67478",
"7  c #AE4A4E",
"8  c #7E181D",
"9  c #852024",
"0  c #C46266",
"q  c #D57477",
"w  c #B65357",
"e  c #7F1A1E",
"r  c #811A1E",
"t  c #B02429",
"y  c #C0242A",
"u  c #CF5E63",
"i  c #FBF5F5",
"p  c #FEFDFD",
"a  c #FCFBFB",
"s  c #5E5C5C",
"d  c black",
"f  c #353333",
"g  c #ECEBEB",
"h  c #FFFEFE",
"j  c white",
"k  c #767575",
"l  c #010000",
"z  c #262323",
"x  c #E1E0E0",
"c  c #8D8C8C",
"v  c #020000",
"b  c #161414",
"n  c #CECDCD",
"m  c #A7A5A5",
"M  c #060303",
"N  c #0B0203",
"B  c #911D22",
"V  c #CF5F63",
"C  c #FCF8F8",
"Z  c #FDFEFD",
"A  c #5C5D5C",
"S  c gray20",
"D  c #EDEEEE",
"F  c #757676",
"G  c #232323",
"H  c #E2E2E2",
"J  c #8D8D8D",
"K  c #131313",
"L  c gray81",
"P  c #A7A7A7",
"I  c gray1",
"U  c #080202",
"Y  c #901D22",
"T  c #FDFDFD",
"R  c gray36",
"E  c gray93",
"W  c gray46",
"Q  c #D05F64",
"!  c #FEFAFA",
"~  c #313131",
"^  c #EFEFEF",
"/  c #222222",
"(  c gray89",
")  c #111111",
"_  c #D0D0D0",
"`  c #010101",
"'  c #060000",
"]  c #901D21",
"[  c #C7575B",
"{  c #DED9D9",
"}  c gray88",
"|  c gray87",
" . c gray40",
".. c gray12",
"X. c #202020",
"o. c gray28",
"O. c #D2D2D2",
"+. c #E1E1E1",
"@. c #797979",
"#. c #3C3C3C",
"$. c #CACACA",
"%. c gray54",
"&. c gray13",
"*. c gray19",
"=. c #BBBBBB",
"-. c #9D9D9D",
";. c gray14",
":. c #212222",
">. c #282222",
",. c #98262B",
"<. c #982529",
"1. c #282122",
"2. c gray73",
"3. c #2F2F2F",
"4. c gray47",
"5. c #1E1E1E",
"6. c #DFE0E0",
"7. c #DDD9D9",
"8. c #E4E4E4",
"9. c #D06064",
"0. c #080102",
"q. c #911E23",
"w. c #0B0506",
"e. c #030404",
"r. c #060606",
"t. c gray65",
"y. c #CECECE",
"u. c #161616",
"i. c #020202",
"p. c gray15",
"a. c #767676",
"s. c #FEFEFE",
"d. c #ECECEC",
"f. c #353535",
"g. c gray37",
"h. c #FBFBFB",
"j. c #FAF6F6",
"k. c #B9494D",
"l. c #A8A3A3",
"z. c #5A5A5A",
"x. c #5B5B5B",
"c. c gray42",
"v. c #A2A2A2",
"b. c gray66",
"n. c #7E7E7E",
"m. c #9F9F9F",
"M. c gray52",
"N. c gray38",
"B. c gray60",
"V. c gray55",
"C. c #5D5D5D",
"Z. c #605B5B",
"A. c #A7363A",
"S. c #C2262C",
"D. c #FFFBFC",
"F. c #F1F1F1",
"G. c gray90",
"H. c #101010",
"J. c gray82",
"K. c #040000",
"L. c #8F1C21",
"P. c #FFFCFC",
"I. c #B9484D",
"U. c #A8A3A4",
"Y. c #6C6C6C",
"T. c gray64",
"R. c #A9A9A9",
"E. c gray50",
"W. c DimGray",
"Q. c gray63",
"!. c gray53",
"~. c #626262",
"^. c #9A9A9A",
"/. c #8E8E8E",
"(. c #615B5B",
"). c #A73439",
"_. c #0C0606",
"`. c #040404",
"'. c #070707",
"]. c #CDCDCD",
"[. c gray9",
"{. c gray92",
"}. c #FAF5F5",
"|. c #080101",
" X c #EEEEEE",
".X c #323232",
"XX c #D05F63",
"oX c #99252A",
"OX c #2A2424",
"+X c #232424",
"@X c gray62",
"#X c #8B8B8B",
"$X c #3E3E3E",
"%X c gray48",
"&X c #484848",
"*X c #686868",
"=X c #C7565B",
"-X c #494949",
/* pixels */
"                                                                                                                                ",
"                                                                                                                                ",
"                                                                                                                                ",
"                                                                                                                                ",
"                                                                                                                                ",
"                                                                                                                                ",
"                                                                                                                                ",
"                                                                                                                                ",
"                                                                                                                                ",
"                                  . X X X o O O + X X X @ O O + X X X # O O $ % X X & O O O *                                   ",
"                                . = - ; : > , , < 1 ; ; 2 , 3 4 5 ; 6 7 8 3 9 0 q 6 w e 3 r t *                                 ",
"                                y u i p a s d d f g h j k d l z x h j c l v b n j j m M v N B O                                 ",
"                                y V C j Z A d d S D j j F d d G H j j J d d K L j j P I d U Y O                                 ",
"                                y V C j T R d d S E j j W d d G H j j J d d K L j j P I d U B O                                 ",
"                                y Q ! j j R d d ~ ^ j j W d d / ( j j J d d ) _ j j P ` d ' ] O                                 ",
"                                % [ { } |  ...X.o.O.} +.@...X.#.$.+.H %.X.&.*.=.H ( -.;.:.>.,.+                                 ",
"                                + <.1.&.G -.H +.2.3.X.X.%.H +.$.#.X...4.+.} O.o...5. .| 6.7.[ %                                 ",
"                                O ] ' d ` P j j _ ) d d J j j 8./ d d W j j ^ ~ d d R j j ! 9.y                                 ",
"                                O B U d I P j j L K d d J j j H G d d W j j E S d d R T j C V y                                 ",
"                                O Y 0.d I P j j L K d d J j j H G d d W j j E S d d R T j C V y                                 ",
"                                O q.w.e.r.t.j j y.u.I i.J j j +.p.i.d a.j s.d.f.` d g.h.s.j.V y                                 ",
"                                & k.l.P P a.z.x.c.v.P b.n.x.x. .m.b.b.M.x.x.N.B.b.b.V.C.R Z.A.S.                                ",
"                                y 9.D.j j x.d d *.F.j j W d d X.G.j j J d d H.J.j j b.d d K.L.O                                 ",
"                                y V C j T R d d S E j j W d d G H j j J d d K L j j P I d U B O                                 ",
"                                y V C j T R d d S E j j W d d G H j j J d d K L j j P I d U B O                                 ",
"                                y 9.P.j j x.d d *.F.j j W d d X.G.j j J d d H.J.j j b.d d K.L.O                                 ",
"                                & I.U.b.P 4.R R Y.T.b.R.E.R R W.Q.b.R.!.R C.~.^.R.R./.g.C.(.).S.                                ",
"                                O q._.`.'.t.j j ].[.I i.J j s.} p.i.` a.j s.{.f.i.d g.h.T }.u y                                 ",
"                                O Y |.d i.P j j L K d d J j j H G d d W j j  X.Xd d R s.j C XXy                                 ",
"                                O B U d I P j j L K d d J j j H G d d W j j E S d d R T j C V y                                 ",
"                                O ] ' d ` P j j _ ) d d J j j ( &.d d W j j ^ ~ d d R j j ! 9.y                                 ",
"                                + oXOX+Xp.@XH +.=.~ G / #XH +.$.$X/ &.%X+.} O.&X/ &.*X| 6.7.=X%                                 ",
"                                % =X7.6.| *X&./ -XO.} +.%X&./ $X$.+.H #X/ G ~ =.+.H @Xp.+XOXoX+                                 ",
"                                y 9.! j j R d d ~ ^ j j W d d &.( j j J d d ) _ j j P ` d ' ] O                                 ",
"                                y V C j T R d d S E j j W d d G H j j J d d K L j j P I d U B O                                 ",
"                                y XXC j s.R d d .X Xj j W d d G H j j J d d K L j j P i.d |.Y O                                 ",
"                                y u }.T h.g.d i.f.{.s.j a.` i.p.} s.j J i.I [.].j j t.'.`._.q.O                                 ",
"                                S.).(.C.g./.R.R.^.~.C.R !.R.b.Q.W.R R E.R.b.T.Y.R R 4.P b.U.I.&                                 ",
"                                O L.K.d d b.j j J.H.d d J j j G.X.d d W j j F.*.d d x.j j P.9.y                                 ",
"                                O B U d I P j j L K d d J j j H G d d W j j E S d d R T j C V y                                 ",
"                                O B U d I P j j L K d d J j j H G d d W j j E S d d R T j C V y                                 ",
"                                O L.K.d d b.j j J.H.d d J j j G.X.d d W j j F.*.d d x.j j D.9.y                                 ",
"                                S.A.Z.R C.V.b.b.B.N.x.x.M.b.b.m. .x.x.n.b.P v.c.x.z.a.P P l.k.&                                 ",
"                                y V j.s.h.g.d ` f.d.s.j a.d i.p.+.j j J i.I u.y.j j t.r.e.w.q.O                                 ",
"                                y V C j T R d d S E j j W d d G H j j J d d K L j j P I d 0.Y O                                 ",
"                                y V C j T R d d S E j j W d d G H j j J d d K L j j P I d U B O                                 ",
"                                y 9.! j j R d d ~ ^ j j W d d / 8.j j J d d ) _ j j P ` d ' ] O                                 ",
"                                % [ 7.6.|  .5...o.O.} +.4...X.#.$.+.H %.X.X.3.2.+.H -.G &.1.<.+                                 ",
"                                + ,.>.:.;.-.( H =.*.&.X.%.H +.$.#.X...@.+.} O.o.X... .| } { [ %                                 ",
"                                O ] ' d ` P j j _ ) d d J j j ( / d d W j j ^ ~ d d R j j ! Q y                                 ",
"                                O B U d I P j j L K d d J j j H G d d W j j E S d d R T j C V y                                 ",
"                                O Y U d I P j j L K d d J j j H G d d F j j D S d d A Z j C V y                                 ",
"                                O B N v M m j j n b v l c j h x z l d k j h g f d d s a p i u y                                 ",
"                                * t r 3 e w 6 q 0 9 3 8 7 6 ; 5 4 3 , 2 ; ; 1 < , , > : ; - = .                                 ",
"                                  * O O O & X X % $ O O # X X X + O O @ X X X + O O o X X X .                                   ",
"                                                                                                                                ",
"                                                                                                                                ",
"                                                                                                                                ",
"                                                                                                                                ",
"                                                                                                                                ",
"                                                                                                                                ",
"                                                                                                                                ",
"                                                                                                                                ",
"                                                                                                                                "
};
