/* XPM */
static char *grinwall_11694876811[] = {
/* columns rows colors chars-per-pixel */
"64 64 79 1 ",
"  c #090E14",
". c #13181E",
"X c #151A20",
"o c #191E24",
"O c #1D2227",
"+ c #1F242A",
"@ c #21262B",
"# c #24292F",
"$ c #262B30",
"% c #292E34",
"& c #2C3136",
"* c #2E3339",
"= c #31363B",
"- c #34393E",
"; c #363B41",
": c #393E43",
"> c #374143",
", c #3C4146",
"< c #3E4349",
"1 c #3F494B",
"2 c #41464B",
"3 c #44494E",
"4 c #464B51",
"5 c #494E53",
"6 c #4C5256",
"7 c #4E5359",
"8 c #4E585A",
"9 c #51565B",
"0 c #54595E",
"q c #565B61",
"w c #595E63",
"e c #576163",
"r c #5C6166",
"t c #5E6469",
"y c #5E686A",
"u c #61666B",
"i c #64696E",
"p c #666B71",
"a c #696E73",
"s c #6C7176",
"d c #6E7379",
"f c #6F797B",
"g c #71767B",
"h c #74797E",
"j c #767B81",
"k c #797E83",
"l c #7C8186",
"z c #7E8389",
"x c #7F898B",
"c c #81868B",
"v c #84898E",
"b c #868B91",
"n c #898E93",
"m c #8C9196",
"M c #8E9399",
"N c #8F999B",
"B c #91969B",
"V c #94999E",
"C c #969BA1",
"Z c #999EA3",
"A c #9CA1A6",
"S c #9EA3A9",
"D c #A1A6AB",
"F c #A4A9AE",
"G c #A6ABB1",
"H c #A9AEB3",
"J c #ACB1B6",
"K c #AEB3B9",
"L c #B1B6BB",
"P c #B5B9BE",
"I c #B6BBC1",
"U c #B9BEC3",
"Y c #BCC1C5",
"T c #BEC3C9",
"R c #C1C6CB",
"E c #C5CACF",
"W c #C7CCD2",
"Q c #C9CED4",
"! c #D6DBDF",
/* pixels */
"ipppuuuj777jjkk4&,3366336,-66lnvhshhsr6r0lvlhsslsi6hhshiisi0w0-,",
"uppppuptqjjj7qq;3660riiiww60,hmnllhhhsiimncliis6ir,sVBvllhhhhi0r",
"&$oX.;:4::;:42540ihllllhshhi,hvlhlhshlhisnls0666rs0hVl06r00riu0i",
";::=;$;#;;$;;$+X-,0r60w0wwrw,ig03000ihir6siri63636-,6,,,-&-,00,,",
"qtadi9:# ;44:;:;660r60iirrri600-,,36r03,wwrsshvhiiilmmmlsr6-&-&-",
"q75qq74:jjkkj2qjiiiisllhVBVVlhss600isi00rr000rishshsiils-5ir0wrw",
"wqqwq<5rjq7j7;4jishlmVlscmVAAVmV0rihvvvmVBrwlsrislmlhrr666rw6wrr",
"9qww:;4jqjjjj4j26rislhr0rssshi63rssshhhvrihvvmFFFPFmAmssi3366wr0",
"jj4=%<jjqjjkkMkj3wsssislhs0rr,rvhss0ssshh6nFBJAFFVhllrsri,3w66r0",
"j<=<jjjqqjqjkCCkririhhiiishsi0lAAvvlmllmVhAJAFAABlssihmAh65r0wir",
"o+<jj47jqjkjj7j7ishhlllllhsirsBVAnvnnhll06rirrrr6wis0r60g636,,3,",
"X*4jqjjjkkj4jj7<ilvvlhshrshhirAFAAVAVmAhriihlhlhshlAnAccliir653,",
"=4j7jjjjjjjj<7kZBVBVAFAAAPYRAhPJFJFJFFFllmmAAAABBmsAVAABlgssrwrr",
";4qqj77jj777jjZkhhssvmAAAJBAmsPYPPJPJABmVFJJJJFABlwmVVABgirr66ri",
";<477jj7772<2:jj0rr006rihnnh03lFAvcVlsrvJJJJAJJFAl0w00r60,----,6",
"*7qjjj77jjj7jjj<6wr06336,6lhhirhlsshssrFBnVclBVmVllsisiur636660r",
";<47jj7ji60shsurr0rlllnvhlirssslznkkZJJLFFDFBFJJPJJJJJAFhsssi066",
"+=<<%;<2rihhsir060666rsi00iishmVZSHDDDGDJFJJsAUFFFFnnmhi0r06rhs3",
";***47j<-0rwwrrwisrr0rirr0shirsrawu7wanbBngwOsFAAvhrshsrssshlVVm",
"7qj7j7jjlmvcnvvmmvvnlhvmAAFJFAAmkMg2gw9a0kar5gsgiilBAFVVFAFAliih",
":577<<7jisrhcshvllhlssmAVFFFJJFAZcCkrqkthckur96urmPPPPPPAVBvllll",
"twtjjjjjcnvVl60asllhiiclshirhi00rpp7jjcmVZLFBskkVAJJJJFFAnlhssss",
"ujkkkkkCAFFJnicBVFFJAAFAAVBmmmvlagaamBvlmAJJFAAAAllVAAllBclcsrrs",
"jjjjkkkkcmcg5,ashsslclvlvhllhssruw559iggjFmcFPAAmlhrrr66,6r6363-",
":4554,:-*3ri6-,u0000r06,-363,03345<ZMzbbmBFVVVFAFJJAmnvvirr00r00",
";;:<50wwuignAVnBmmnvvnliscmBvvvlm9CHHRZkw63660960rr066rihsrir000",
"7550isausklksigmccvccmcihhhllhmhqzHSDLLLAr#-30wssiwwrwrrr0000,,,",
"ppw4--3w5rshllcmAAVmBAAmFFFFFVJluPMZSSILRRPmcBBnBBmVVVmvshhsr006",
"twrijbZDmADAHHDAJFJJJJJAJJJJJAYmCCZDSKDSURJir60630rr063,-,---,33",
"twukCDBlcZDmmVDJFAAJJJR!RYJJPPPvBbGBDSDRUPJihsvvnmnllchriw600633",
":7ttwwahlmvkcBvksvJYPJJPPJJPPAviSGZbISHIJRF--3sssir0rrr63,,6063,",
"455767wtrw:O&53=-363--60rrrr336vZZFHGHHCUAvmUJAAAAVvsrrscnhr33,-",
"7tpppddjbb<4ptddpjq7q<jCMjjjbkkCSSZZBbMZMSbMSSMMGMMGGSSSjdzzdzMd",
"qtppdzdzz4***;<77774tqtj7j77tqqjgjzzMSSMCbj4ddp7747tdzbCzjuqt77p",
"tpppdjzbdpbbzjptt7q;qbMSKSSSMSIKHHKKSCSIKMGjdqppdddtqquptq4<**<;",
"7dtjzjzd7MbbCjjdjukukSSKbSSGKKSSLSMnbcMSSMSSjbdzzzzduqqt7q742dbp",
"qpppdjdtCISSCddzjjjzMBCBICSbjjjjujbbBGSMSSSM2jpppdjzjpup7p4;pzzz",
"ptjptd<7CMSCjdddjjjjjtjjjjjjkjjjSSnjpakzzzMj2tdbddjzzptud77jMzjz",
"77pdp7*477t77pzzjjzzj7q4jjtjjjjjICMKIIHKGzzbzpptppdjjdppp<tCbjzj",
"77*q7%qjdzqdbpjbkzMSSBbjbSbjjj7jISCSSSSIGSSIIKKGKKGMzjjddzjjdpdt",
";<<<*4tq7qtuptpzzzzjjqjq7qqqqj745uwqapjjdbzbBSbSMbzzzzjpttjpptpp",
";<7q77q777tpddjMjkptzMjpjCGbjjjjdqdbppjzbdjz;7d77tpjzdt744pppdjz",
"4<<qq7qppppjzjzbzSbjbKMGKDCCCKKKKGIHgzdadBCSzSGTKKSCCMMbbdq44ppd",
"q<<<<=;47qqtpddzzzjpbIIISMkZMkMIKCMMkt2azpzB7bISKGCMMCbbzzdp<7<7",
"pdjbMMMCCSGGIIKISMMCMbSSIGBbbMSGCBbMb77qqpquqbzbzjjzbbbjdzpp77<7",
"pzbbMMbbCSGKGSZSGSIIz2tqjbHKKSMkkjjt7qSBpzdjbMjpzzzjjjzbbj4<qt74",
"7pppdjjbMCSSSSSKSSSSjqq7;==jjj72<*<747apzjjjjbMbjzbbbbbbjbjjbbbb",
";4<<<<7tpppq77tpjbbj<<*2:*%*$o+$=<;=7Mbbjjjpjpjjjdppdjjdpjq7dpjj",
"jt;=<<<=;<4==*7puauuqappttp4qjjbFAAFPJDFAAFFlARFGCCzjbCbMbj5qjjt",
"jp<;<<7444447<=*&,<4<5<;uto;*wjjsghgsrrir5,33rlvCqqptjjtjujjj477",
"77<<7qqqppddbzzbCCMbzczzk9;jjjjjsirrrgvVVBccBmVBCjjbkkjpjjjzkjjj",
"47<7ppjddbCSSCCGKKIIIIHFMwCSSSGHFFJJAFJFFPYPPVABSbzjjuq77774w9jq",
"77**<7tqtppdzbbbnbmBVBMmj2MbMcBbAAFAcnAFPAFPFlAFSt;<<*$=:*%%<2<=",
"74**;<<<4<<<<tppaiitiradt7jnkjkkglBVBmmvnhhlxvJJICddjtuj5:<<5;<2",
"4777qqq77774*<<;<<9qt699bSMj4ujjsi0663,-0sshxAPFCGCbbkkjpupuuqpj",
"*4444<4qq777*pbzmvBbndhljcZkjCukllhhhsislAVAANlxzzjzkap75qp9wwt5",
";;<<;<<;=*<;<7ptssgrulcllsi03rllvnnvllhh8ylhNNfxllgski3:puuputtu",
"djzzzjjjj47qtqdzlvmlkmnvhirrrsllvvclhhhsfxsyiyessggsr530999qwwqq",
"pjjjjjddz44774tdsvBlgvZGAksi00ryshcllhsrenxnfy0860is9-,642233333",
"47774777t7pptqtprgnckvcvkiw06608rihllhsi>08fnVNlw652$O$%qqq97669",
"44747777qpCMbzbzlsw-=,,,,,666083311333666es8660imlsw33,$wrpiw00w",
";<44477<<<djpppjlka,#$@#-,3,133,6311,,,,68fyhgssvmmcga0-,6rrq977",
";;<<<4<;4<ppppjjsss,@#-3,,::16661111,>->-1rssgvVBABclkhg59rrw007",
"qtqqqq7744ppdjjpsii0003,rw0rfiyyfiyyreriii6ghcBBnBvlkgasuurw0w09"
};
