/* XPM */
static char *grinwall_21694876811[] = {
/* columns rows colors chars-per-pixel */
"64 64 110 2 ",
"   c #030301",
".  c #080703",
"X  c #070804",
"o  c #0A0A06",
"O  c #0C0D0B",
"+  c #100F0C",
"@  c #0E100C",
"#  c #12120E",
"$  c #110F10",
"%  c #0F1110",
"&  c #141412",
"*  c #181715",
"=  c #171815",
"-  c #191A16",
";  c #191718",
":  c #171918",
">  c #1C1C1A",
",  c #201F1C",
"<  c #1F201D",
"1  c #21221E",
"2  c #211F20",
"3  c #1F2120",
"4  c #242522",
"5  c #282724",
"6  c #272824",
"7  c #2A2A26",
"8  c #292728",
"9  c #272928",
"0  c #2D2D2B",
"q  c #312E2A",
"w  c #2F302D",
"e  c #31322E",
"r  c #2F3130",
"t  c #343532",
"y  c #393633",
"u  c #373835",
"i  c #3A3A36",
"p  c #373938",
"a  c #3C3D3A",
"s  c #413E3A",
"d  c #3F403C",
"f  c #42423E",
"g  c #413F40",
"h  c #444542",
"j  c #484643",
"k  c #474845",
"l  c #4A4A46",
"z  c #474948",
"x  c #4C4D4A",
"c  c #514E4C",
"v  c #4F504C",
"b  c #52524E",
"n  c #4F5150",
"m  c #545552",
"M  c #595653",
"N  c #565855",
"B  c #595A56",
"V  c #575958",
"C  c #5C5D5B",
"Z  c #605E5B",
"A  c #5E605D",
"S  c #62625E",
"D  c #5F6160",
"F  c #646563",
"G  c #686763",
"H  c #676865",
"J  c #696A66",
"K  c #676968",
"L  c #6C6D6B",
"P  c #706F6B",
"I  c #6E706D",
"U  c #71726E",
"Y  c #716F70",
"T  c #6F7170",
"R  c #747572",
"E  c #787773",
"W  c #777874",
"Q  c #797A76",
"!  c #777978",
"~  c #7C7D7A",
"^  c #807F7B",
"/  c #7F807C",
"(  c #81817E",
")  c #7F8180",
"_  c #848582",
"`  c #898784",
"'  c #878885",
"]  c #898A86",
"[  c #878988",
"{  c #8C8D8A",
"}  c #908F8C",
"|  c #8F908D",
" . c #91928D",
".. c #8F9190",
"X. c #949492",
"o. c #989593",
"O. c #979894",
"+. c #9A9A96",
"@. c #9C9C9A",
"#. c #A19D9C",
"$. c #9FA19E",
"%. c #A1A29E",
"&. c #A4A5A2",
"*. c #A7A8A4",
"=. c #A9AAA6",
"-. c #ABACAA",
";. c #B1B2AD",
":. c #B4B5B3",
">. c #B7B8B3",
",. c #BBBCB7",
/* pixels */
"[ R x C ! Y g X p p r r ; ; $ ; . 8 4 q 8 0 8 0 b R Y C K K J Q ^ ! E ( Q Q A B d b d l v d 7 = 6 B / / B B v b v / v 0 < @ 3 9 ",
"c K n R R z > > z V x p r n C D ] K m D t & q C o.@.` R ^ ) R Q J Q  .{ L B f b / S B / / / 1 6 ( ( / / / / S d B B / d X n D N ",
"> & ; 8 ; ; D Y [ ..o...o.o.&.-.@.m s m g 4 m ^ [ R C m V C C C l m J S M A U ( / / / / / *.1 u ( / B u S S / d d B A d : C L z ",
"$   & O   r :.o.L L ) ) ) D V V > M ! g t z Q J 0 2 > 4 * $ O o .   # o - < < < @ @ @ - 7 v # d / B l l / b d @ d d / 1 p X.g n ",
"V D z r 8 m X.K Y ! [ Y Y K D n z { +.z t 8 V K m l M K V c x l f d f d d q q e d u d d 1 @ @ 6 f / S / B l l / ! [ ..t D [ r r ",
"-.@.F V 2 K Y x g n C K ! ) [ ..Q ! C t a + h @.+.~ R R L R Q Q / S / J J U / ( / / ( O./ S H u / / / v v / B / ! { V F ..n C p ",
"D g 8 t   C n 8 r 2 2 c V V D ! R o.{ m s 4 s F ) C j p t t t a 6 d f b f Z B b / / / / / / / d l ( ( / / / / / ) G D K L h x h ",
"2 ; $ X r ! Z z r 2 $ ; $ ; $ $ * & & O ; O 4 8 2 ; > 2 > * * * # q d q < d d 7 6 1 < d 1 < < @ @ l / / / / v / n Y n r r g V x ",
"o @ d H ( =.%. .! Y F m M Z b m m B D n Z Z Y ! M l g g y t 8 0 < o @ d b f B d f B Z d l f i b S S J b G z s 5 ; $   O O ; 2 ; ",
"E O.%.*.( ( %.( G Y _ ^ Q ! Y ^ ) o.` ^ ) +.` R C C ! ) m V R K B / ( =.;.;.,.=.+.( ;.( %.( ( ( ( | ( O.` } [ } q D L L F L D V ",
"( J Z ( *. ./ f c C P U Q Q R Q @.] K R ) ` C h V J ! R a j F F ( S f f l d d e v S / S / / A B v A M Q x x z g 2 D R L D Y D K ",
"l 7 f f f f 6 1 ; , 5 4 e u w y e , > ; 0 ; & ; r x h j h a p h v - X d J H l v / / S / / ( / ( =.] U / Q G b + & y n D m n 8 r ",
"A d 7 @ # d d 6 f v A b v b l b J J D j x i r > ; O .   o       o @ = e b B d 7 u 7 1 e 6 q 1 = # @ - @ + . r & O   O $ X ; $ $ ",
"+. ./ U P (  .( / ( | ( ( / S A ! ^ R ! L L b m c > C F C D R Y  .| ( / J B f b d v l / S / b i v f d y y z m z D D K V p p 2 ; ",
"( / U  .O.( ( / ( ( ( ( ( / M l D Y P K g 0 t C t & @.} ~ L T V J B J / / / J / f / S b B B S / b b S S x M x G K Y Y V n n a Y ",
"- o d b B / / / / / / U J J A S ` ^ K g c V P P r > &.Y Y D C K J S / A b S v d d B S b b b / e f d A B c z p K m F V g n p $ L ",
"X o X X X     X @ X @ < @ @ < 9 t t r p d h h d   r :.T ) ! D D D V D T n V D n z t D V K K V z B l A v z d z T D V n V n z r p ",
"1 6 < < & < w h u w u d d u 0 & < % % % O   X X X V X.D ) D z D V T m T V V ) D p r n n d z D V N v N k n n n D z D D z z D r % ",
"$.| ] ) ' [ | X.T ) O.$.| | [ R ) T R T ! n t 3 % ! [ T ) D n V n D K V n D V z r 3 p V z D ! D 3 d N N n D n n V D V n z z % r ",
"$.| | | [ X.X.' / ' [ / K K T / T L / K K n T ) r ) @.! T V D V D D T n n K z z r 3 r D V D V g m A A A n V n D V V n n p d : D ",
"k d k z k m I W R K N z v v z z n z n h D D T V : D O.T ! K T D T ) V n D V D D r r V T K K z D ! D n D D D D D T D D D z r % ) ",
"< % % X X X o X o X X X % % X X O O %   X X O X   n ) z T D V D T K z r r : 3 3 r p V n n D n ! A A z D R D V D K V n n p 3 3 ..",
") / R K V d < X o 6 w t d d d d r p n D ! T D n r z n 3 3 3 : 3 3 > r 3 r r p z 9 9 9 % % : % % X : % : 3 O : 3 : 3 9 % : r z K ",
"d N A A A h w w X w z v A K H I T ! ) ) ) ! ) ..) ) ) ..T T K n D ) T T T D ..[ ..X...T K T T r 3 d n D ) K T D T D D D ) ) ) ..",
"v A N n w N A T A 9 d n A H k A V D D n n D z n D T V z n n z n D D K D D ! ) ! ) ! p p K ) T p T @...) ) D T T T ! ) ) ) ) ) ! ",
"D R A n A / m / / n d z A A m k D D V z V V n z g r g g r g V z D V D K ! ) ! D V n g g V V p   K K z n D D D D D D T ! T T ! T ",
"A / v A ) A N T / / H K A A ) / ! T V n V m n h z n z z z g p d d n V D D n z z r r p p p p : X V V n V K K D V D D D V V D D D ",
"/ I T ) =...) | ) H 4 < 0 k T A D T D D K K T T ! ) K D T D h n n g r 3 3 : % : : % 3 % O O     g V V n n D D n V V D D D D D V ",
"k n n R / z v d w @ X w v v w X : 0 3 r p r a p z p r r 3 3 3 9 % : : O : : % : : O % O O % X % % 3 r p n T T V T D K K D D K D ",
"z w X X w & < t n x H / { ) T / D K D D T K V n p g d r 3 X   : p V T ! ! T K T ) T T K C V z n z 9 3 r p r 3 p 3 : : : % : : : ",
"*.H H < X X < -./ H / / / / I / [ ) [ ) ....) ) ) -.O.) ) V p D -...[ ....[ ) ) T T K ! ) ) ..) $.) $.$.) h X % z n D T K D V V ",
"N z < / H 3 O.O.r z H / H A A V D D T K T T D T T T T K T V V K r : : 3 : % 3 3 9 r 3 r r r p 9 p 9 r p p r 3 V ..) ) ) T D D D ",
"f q f f M f %.f s Z G b f c S P H S / B S J / S b A H v B d 1 d n u e 6 7 1 = 6 - & & * # * 4 8 a s l M a m ~ a ~ } L X.L m b h ",
"s f y s , f ( s S P ^ U E E P S B f / / J b d d v A b A Z d < e d k l d d q 1 < 7 0 7 u a p z h i z g h x L K + r R ` ..M t g x ",
"- # # 1 . y q 1 , - # # , 1 , - 6 - # @ @ o X - o - X X = X @ - < t e 7 e d d d 4 < O # &       O O X       X X , r 5 4 t h y 0 ",
"7 7 c J P ( ^ G f f f y 1 - # # X - 6 d v / / / / ( / / / / ( +.O.;.=.;.=.O.+.( O.( R L ! J C B r > r m K F F ^ K P F 8 4 ; o $ ",
"S P E S P ^ G M S P P G P ( ( ( - / =.( S / ( ;. .(  .( / J S ( / ( / / J b H J H v G B R T m S P s x R ! Y P L ) _ X.! +...R R ",
"G P Z S Z Z Z M f B M f S E S s I  ./ f f / =.( / H U H b b S ( ( ( M d d d f f y 0 m v U F j x h 2 h ) Q Z J J Q ~ } ! ! F b C ",
"l f c U P c f s f f b B S M 1   / J b f S / / b B J / J / / ( +./ G B b B / S b l m K J [ H G J F 8 O s V z C J z g h t r 0 r y ",
"+ . # + - 1 7 5 f f s 5 , * # # / J H J S f b f S ( / G S / *.( v f b b b b f B _ o.` Q { m L I H x   . 8 4 4 * + + $ $ . o O . ",
"f c B G U M J ^ ( P J S b S M +  ./ l S f B B / / / / S ( +./ B / / ( / / / ( / / B / B N k v a z t o 8 R _ R J Z C Z Z C m V F ",
"S E ( P ^ ( ^ J S J ( S f b c + / J d S S S Z / / B f J / / J / G / / / / ( / f i v / B A I Q A J 4 o B ) R Y ! ^ Y P Q ` [ ) R ",
"c S S f ^ ^ f M E c f e q f q . S / e S S l / Z / ( ( ( / ( %.( ( / ( / / v f e e / ( / v A L H o.i 8 ! Y J L Z L Y ! R P Y P Y ",
"%.^ ( P ^ ( ^ ( ( E ( / f 1 - o d / d B S d / / / / S S Z J / S / M b l b B v v / / / v A A v k V > a @.` ! Q ~ ! Q Q ! ) ] [ ~ ",
"M G Z c G S Z S v v b d 1 1 - X @ q 1 6 e < 1 1 d e < = # o @ # o @ 1 1 7 q 1 1 @ @ # o @ # X X   O q z q t t r 0 q 2 $ ; 4 q r ",
".   # , + . -   X X # = # - q - v B / / S / l l 7 = - < 7 w 6 6 l l l 6 1 q i B / / ( / / | $. ._ ^ ! C x 8     + t V F F F F Z ",
"M M y . * , 1 s B f d d d f / / / ( ( ( ( ( ( %./ # d $.>.*./ / / / / / ( ( ( ( / / / / / / / H m 5 h ~ @.h 5 F ~ Q P L Y ! Y J ",
"J ^ S . 1 P J Z G G S B B J B d k / / / / l B S d X U ;.U f 7 6 S B l v / / / b d b b B v d N d a r Z B V ; r ) a h z j h j x b ",
"s c z   x D m R D c b C L F h h A H T x 0 k T / 3 X A ) d 3 t d S f f f c M B c A b M S Z J P Z c F P J f # # s f f f f c M c j ",
"R R 4 t ^ g ~ Z z D Y R J b x K / H A N N I / / w % d A h k n A f f f v b S E Q S S S B f c M c s c x e , + , f f f l j i q 4 5 ",
"H P 8 F F Q } E F P ] Z B R F Q A / I v k A A v 0 < < < 6 < < & 1 7 i i 1 1 2 & - 1 0 1 # > 8 , 1 7 1 1 -   . 1 7 1 5 5 8 , , 2 ",
"> # ; o & a 8 O ; O ; e j 8 O > = 0 3 @ < w w < < d D T H z k k d f b v x b b n f d e 1 - 5 2 $ . . . , q y c E } ( } } } ` Q P ",
"O   O 4 D Z m z m l o + $ . c C A A H / ( ( ( ( $.[ | *.=.-.*.[ %.;.=.%.-.-.-.#.*.$.%.%.#.o.! g c ^ } ` #.%.#.} X.o.} Q Y R ! E ",
"l c c R +.{ ! _ ) } Q 8 . z ) ) U P / / ( ( ( ( / n b v t d N A v B S J R ! L Z ( P J S Z Y Y Y ( #.} U E ^ G S F F M h z Z K G ",
"F m ~ D { Y P P ! D ) m 8 m K Y / P U / ( ( ( f n d A A A H H A J Y J J Y Y L Y P Z S L Z Z G ^ q y s x S S M M M Z Z Z J P Z c ",
"_ R L Q ) ! Y F K J F _ m x #.` U J ( ( / U P G R H L n z A A K Y Q ~ / _ ! L R Y S L U G M Z G o # . . * , + o , , 2 , ; & ; ; ",
"^ _ ~ ! _ ` _ R G R L R L s x 8 # - 1 1 1 1 7 7 s y 7 - . . . + > ; ; 2 2 2 2 2 5 * * * + + $ . . . # 7 7 , o o .   o & + + + . ",
"Q ! ! P L Y Y P G L _ L Y C q 0 5 # 1 1 1 5 , , o + # , , q s s 8 8 2 8 2 2 ; 2 q q s s s s M M Z S ^ } ( E E E Z s 8   # 8 g b ",
"K P R R L P Y ! ! ! ` M Y R h m ( ^ ( ( S P E ( ( ^ ^ ( ` o.o.o.+.#.#.#.o.#.#.o.( #.#.( ^ ` ` `  .` ( ( ` ( ^ E J U J i g ] ] } ",
"P R ~ ~ R R R ! R ` ! F R D z 0 ^ G ( Z f M f Z M c l f l c c s c M M c x x c c c c M c c M c c l f s f c Z M x b j m R c ^ c E ",
"Q ! ) ~ ^ ) ` ` ! ~ Y P L V Z 2 M Z ( ^ G ( ^ P ^ ^ E U ^ G G ^ M M M g g s s s f s y y s s f f f f M M c l h f b M G Z ; R G L ",
"#.o.` Y J J F C J C J C M C J a # f M f f f G P J J J G ^ G M M G G G Z G Z Z G c c c j s s q s s s s s h s j x B s c t O i B L ",
"_ _ R K L ) _ ! P F Q P F F m y 5 f q f f f f f f f f f s s s s s s s M Z Z Z Z Z ^ G G G G G G S f q y i s i a s h j $ $ r j s ",
"z b h e t g s 8 h h h t p t 0 4 1 f f f Z f f f Z f y q q q 5 , s 5 s s j s s s c c f f M M f c f q 7 y i t y s s g q 2 g x x G "
};
