/* XPM */
static char *_4725111694875621[] = {
/* columns rows colors chars-per-pixel */
"64 64 216 2 ",
"   c gray12",
".  c gray14",
"X  c #252525",
"o  c gray15",
"O  c #282828",
"+  c gray16",
"@  c #2A2A2A",
"#  c gray17",
"$  c #2B2B2D",
"%  c #2C2C2C",
"&  c #2D2D2D",
"*  c gray18",
"=  c #2F2F2F",
"-  c gray19",
";  c #313131",
":  c #323232",
">  c gray20",
",  c #343434",
"<  c #353535",
"1  c #343436",
"2  c #353537",
"3  c gray21",
"4  c #373737",
"5  c gray22",
"6  c #393939",
"7  c #3A3A3A",
"8  c gray23",
"9  c #3B3B3D",
"0  c #3C3C3C",
"q  c gray24",
"w  c #3C3C3E",
"e  c #3D3D3F",
"r  c #3E3E3E",
"t  c #3F3F3F",
"y  c #3F3F41",
"u  c gray25",
"i  c #414141",
"p  c #414143",
"a  c gray26",
"s  c #434343",
"d  c #424244",
"f  c #444444",
"g  c gray27",
"h  c #444446",
"j  c #454547",
"k  c #464646",
"l  c gray28",
"z  c #464648",
"x  c #474749",
"c  c #484848",
"v  c #494949",
"b  c #48484A",
"n  c #49494B",
"m  c gray29",
"M  c #4B4B4B",
"N  c #4A4A4C",
"B  c #4B4B4D",
"V  c #4C4C4C",
"C  c gray30",
"Z  c #4C4C4E",
"A  c #4D4D4F",
"S  c #4E4E4E",
"D  c gray31",
"F  c #4E4E50",
"G  c #4F4F51",
"H  c #505050",
"J  c #515151",
"K  c #505052",
"L  c #515153",
"P  c gray32",
"I  c #535353",
"U  c #525254",
"Y  c #535355",
"T  c gray33",
"R  c #555555",
"E  c #545456",
"W  c #555557",
"Q  c #565656",
"!  c gray34",
"~  c #565658",
"^  c #575759",
"/  c #585858",
"(  c gray35",
")  c #58585A",
"_  c #59595B",
"`  c #5A5A5A",
"'  c #5B5B5B",
"]  c #5A5A5C",
"[  c #5B5B5D",
"{  c gray36",
"}  c #5D5D5D",
"|  c #5C5C5E",
" . c #5D5D5F",
".. c gray37",
"X. c #5F5F5F",
"o. c #5E5E60",
"O. c #5F5F61",
"+. c #606060",
"@. c gray38",
"#. c #606062",
"$. c #616163",
"%. c #626262",
"&. c gray39",
"*. c #626264",
"=. c #646464",
"-. c #656565",
";. c #646466",
":. c #656567",
">. c gray40",
",. c #676767",
"<. c #666668",
"1. c #676769",
"2. c #686868",
"3. c DimGray",
"4. c #68686A",
"5. c #69696B",
"6. c #6A6A6A",
"7. c gray42",
"8. c #6A6A6C",
"9. c #6B6B6D",
"0. c #6C6C6C",
"q. c #6D6D6D",
"w. c #6C6C6E",
"e. c #6D6D6F",
"r. c gray43",
"t. c #6F6F6F",
"y. c #6E6E70",
"u. c #6F6F71",
"i. c gray44",
"p. c #717171",
"a. c #707072",
"s. c #717173",
"d. c #727272",
"f. c gray45",
"g. c #727274",
"h. c #737375",
"j. c #747474",
"k. c gray46",
"l. c #747476",
"z. c #757577",
"x. c #767676",
"c. c #777777",
"v. c #767678",
"b. c #777779",
"n. c gray47",
"m. c #797979",
"M. c #78787A",
"N. c #79797B",
"B. c gray48",
"V. c #7B7B7B",
"C. c #7A7A7C",
"Z. c #7B7B7D",
"A. c #7C7C7C",
"S. c gray49",
"D. c #7C7C7E",
"F. c #7D7D7F",
"G. c #7E7E7E",
"H. c gray50",
"J. c #7E7E80",
"K. c #7F7F81",
"L. c #808080",
"P. c #818181",
"I. c #808082",
"U. c #818183",
"Y. c gray51",
"T. c #838383",
"R. c #828284",
"E. c #838385",
"W. c #848484",
"Q. c gray52",
"!. c #848486",
"~. c #858587",
"^. c #868686",
"/. c gray53",
"(. c #868688",
"). c #878789",
"_. c #888888",
"`. c #898989",
"'. c #88888A",
"]. c #89898B",
"[. c gray54",
"{. c #8B8B8B",
"}. c #8B8B8D",
"|. c gray55",
" X c #8D8D8D",
".X c #8D8D8F",
"XX c #8E8E8E",
"oX c gray56",
"OX c #8F8F91",
"+X c #909090",
"@X c gray57",
"#X c #929292",
"$X c #939393",
"%X c #939395",
"&X c gray58",
"*X c #959595",
"=X c gray59",
"-X c #979797",
";X c #989898",
":X c gray60",
">X c #98989A",
",X c #9A9A9A",
"<X c #9B9B9B",
"1X c gray61",
"2X c gray62",
"3X c #9F9F9F",
"4X c #9F9FA1",
"5X c #A0A0A0",
"6X c gray63",
"7X c #A2A2A2",
"8X c gray64",
"9X c #A5A5A5",
"0X c gray65",
"qX c #A7A7A7",
"wX c #A7A7A9",
"eX c #ACACAC",
/* pixels */
";XW.[.L.[.G.W.j.j.G.L.7.j.u %.=.{ f.q.j.%.%.T T 7.{ C M I I C C T %.C M f.;XXXf.G.W.[.XX[.#X%.q.j.7.%.7.%.q.G.%.7 7.G.j.V.j.j.W.",
"3Xj.q.#X=XW.V.G.j.q.V.q.f.: T f.7.j.f.j.%.{ M k %.{ T T C < 7 { %.V.=.{ XX;Xf.{ q.j.j.L.V.G.7.L.f.G.q.7.f.f.7.T = f.[.V.f.f.G.L.",
"XX[.W.8X[.[.G.W.j.q.G.W.G.: C V.%.q.q.j.=.=.I M M C T T M < u =.f.L./ k L.[.=.V.[.G.q.[.#XG.q.f.7.G.%.{ L.W.V.q.: [.#XV.q.q.W.W.",
"V.W.XX;XW.W.[.W.L.f.j.G.f.@ 7 / T %.%.f.q.f.%./ C { { I I I T / M T u M j.j./ 7.L.G.q.[.XXf.{ C q.G.=.=.L.L.q.M < [.#XW.V.j.[.[.",
"G.{ =.V.XXV.G.L.V.V.q.q.7.0 0 k C T I { / =.T I { =.{ I I I M k 0 < 7 C { { T C q.L.W.#XW.7.j.=.7 M / 7.f.V.j.M < q.f.V.V.f.j.G.",
"k < u < u 7 M 0 7 T / %.q.{ M = . = X : = 0 : = 0 7 < 7 0 < 7 M M < u T I T { C I T { { { T =.T u M / / 0 7 I 7 0 7 : = 0 7 7 I ",
"T q.j.I u T %.M M j.G.[.#X[.V.{ T { T %./ 7.%.%.0 < @ = 0 0 M %.k C / q.f.q.%.T { k { =.j.j.q./ 0 0 7 7 : < I T j./ T k / =.T V.",
"G.[.G.L.7.L.G.V.j.#XG.f.q.f.V.j.q.j.q.j.7.j.q.q.L.V.T u I 7.q.7.q.j.=./ q.q.7.G.I 0 V.#X;XW.f.7.u M = : I k 0 M T M { / G.#X%.j.",
"V.=X#XXX{ V.f.q.=.f.j.j.f.f.%.I C 7.%.=.=.T { { f.7.I u q.7.{ { { { 7.j.f.%.%.q.f.< j.0X=Xj.V.%.7 / 0 0 f.{ : M C / =.q.V.G.f.=.",
"f.W.W.XX/ f.%./ %.=.7.7.q.f.q.{ T 7.%.%.7.%.7.=.C / C k 7.%.%.{ =.=.7.j.f.=.=.f.j.M G.=XL.f.G.q.M =.7.{ q.q.%./ V.f.=.7.V.W.G.f.",
"L.W.W.#X{ 7.%.T T T I T { 7.q.%.{ 7./ { %.%.%.%.7.%.C 7 =.f.q.%.=.%.{ 7.=.%.=.f.7.M V.XX;X;XXX%.7.{ %.7.q.XX=Xf.V.j.V.V.V.V.G.L.",
"8XXX[.XX{ %.=.{ / { / { 7.f.f.f.q.V.q.q.j.f.7.=.q.7.I 7 %.f.f.%.f.=.{ =.7.q.V.XXW./ f.j.W.XXW.7.%.0 I j.G.W.W.=.{ =.q.j.7.=.f.G.",
"V.=.%.=.u M I I M C T T T { %.{ T / { T { / I I 7 C { M I I / C I k 0 u k C { q.%.I q.{ / k u 0 k u k C k u k I %.C < = 7 M %.j.",
"< : 7 u < 7 7 0 C T { { { { %.%.k k k 0 M I k C M I { k M M I k u < : : = : 0 M 0 7 { T %.C 0 < / =./ M M I C I 0 M / 7.q.7./ M ",
"%.V.G.L.XXW.L.XX[.[.XXXXXX#X#X=XV.7.=.T 7.G.j.L.L.q.7.I / / =./ 7.q.q.q.=.{ { =.=.{ T u q.[.W.G.j.V.L.XX=X#XV./ q.G.L.V.V.L.L.G.",
"{ G.G.j.W.L.V.W.XX[.W.W.W.XX#X=X[.f.{ M %.G.V.W.W.V.G.f.q.%.V.V.j.V.L.W.V.q.7.=.q.q.%.< %.L.[.L.W.=.f.L.j.f.j.f.7.f.q.7.V.W.V.T ",
"%.W.W.L.G.q.f.j.f.L.L.V.G.L.W.;X;X;Xj.{ %.W.j.W.W.L.G.L.L.V.G.W.W.W.#XL.j.j.q.f.q.q.V.k / G.V.G.f.f.q.f.V.j.q.q.q.q.V.f.=.G.G.T ",
"q.L.j.V.[.G.V.j.f.G.G.L.XXXX#X8X;X3XeXXX/ j.W.j.G.G.G.L.W.L.G.G.W.L.W.V.j.V.f.V.j.j.G.C f.[.V.j.W.L.j.q.f.q.f.V.f.j.[.[.L.[.L./ ",
"q.[.W.[.[.j.V.j.V.V.G.[.=X=X=X8X8X0X3X%.%.V.L.G.W.W.W.L.W.W.L.V.W.V.G.j.j.j.q.j.f.j.f.k q.L.=.%.f.j.j.f.j.f.f.G.L.V.j.7./ f.L.q.",
"q.L.[.#X#XXX3X0XXXXX=X3X8X;X;X0X=X[.=.: / f.q.f.j.L.L.G.V.V.V.q.7.{ =.7.7.7./ { %.7.%.0 f.W.V.G.;X=XG.=.=.7.j.[.=X;X3XXXV.j.j.%.",
"=.7.{ =.=.%.q.=.I / =.=./ / { 7.=.k / M u u I 7 < C %.=.{ { / I I M T / { %.I T T / I : I / T / 7.q.%.T / { / { 0 C %.f.f.j.f.7.",
"q.7./ C :   @ X u C / I 0 u { %.f.=.L.L.V.7.{ { = I j.W.W.G.V.V.V.f.G.f.f.j.q.f.q.f.q.T { I I u = I f.L.[.G.=./ { { T T I I { =.",
"f.j.j.f.M 7 / %.%.f.V.%.M / V.V.q.V.=.{ f.f.I 7.= k =.V.G.j.f.j.=.=.7.I C T C C I C %.{ %./ %.M 0 { j.q.7.%.T T / / T T / T / { ",
"=.{ %.7.T C 7.=.W.#X=Xf.I =.[.W.G.q.7.{ u %.%./ M C %.q.f.=.7.f.{ q.j.{ / =.%./ %.T 7.q.7.%.q.C 7 %.j.7./ T T %.{ %./ / { / T { ",
"M 7./ { M 0 L.3X;X;XL.L.W.W.XXL.q./ %.{ T G.#XT I C %.=.=.f.7.7.{ 7.q.7.=.=.%.%.{ q.7./ %.q.q.%.0 =.{ T / =.T 7.I / T { { { { C ",
"/ j.7.%.u = %.G.G.L.f.f.V.L.[.f.q.%.=./ / L.XX{ I 7 I j.L.V.=.7.7.7.7.7.7.7.=.=.7.q.7.7.q.q.T 7 7 T I I T 7.{ =.7.7.I I T T %./ ",
"M =.{ { M : %.j.q.L.G.G.XX=X=Xj.V.W.=X#X#X;XL.I I 7 u { f.q.%.f.V.q.7.q.f.q.q.f.G.j.q.=.=.%.I u < u k M M / / { / %.I I I C / I ",
"X 0 7 k 0 < I { I %.{ 7.q.=.{ M u / { I T T k : u 7 0 : < 0 0 I u 0 7 k u 7 0 k I C M k 0 7 7 0 < < 0 0 : < 0 u 7 u < 7 < = < X ",
"7 u 7 0 u u C C C I M I k = : 0 u %.7.=.7.q.7.7.C C I k k 7 X < < < 0 M k 7 7 M M I / { / I C C { / %./ u : 7 k q.f.{ / I u C M ",
"M C M C T { / T { I u I u @ M 7.q.W.;X=X=X#X[.[.f.%.{ q.G./ 7 T %.7.G.W.L.V.G.W.W.W.[.[.XX[.L.j.W.L.W.j.{ 7 k / %.=./ { I k M k ",
"u k M C / %.{ T k 0 < 0 7 : T j.XXXXXXL.G.L.[.[.G.7.%.q.L.%.u =.7.j.[.#X=X#X#X#X#X=XXXG.V.L.L.j.L.G.G.7.%.< 0 { u C C / T k M k ",
"I T %.%.=.q.{ / M C k I C M %.V.G.V.L.[.XX#XXXL.L.XX[.G.G.{ 0 / 7.j.W.XX=X;X;X=XXX8X8X[.G.L.[.W.L.G.V.%.q.u k q./ / T { / I %.%.",
"/ { { { / / / T T 0 =.T 0 M G.W.W.j.f.V.W.W.W.W.G.XXW.W.L.I 0 q.K.V.Z.K.s.b.K.K.(.4XwX*X(.(.(.Z.L.o./ / %.: 0 =.{ L.7.0 C =.{ / ",
"C M u 0 u k I I { { q.M M I V.=X#X[.G.q.7.q.G.[.G.j.7.j.f.M M G.8.s.R.OX].!.K.b.u.(.>X].l.8.s.J.b.[ M 7 k < 7 k I f.%.0 I =.=.7.",
": : < 7 0 7 7 < 7 M k = T { I %.%.7.7.%./ T / / %.T M u 0 : 7 C d U o.*.o.~ B y $ 9 F G y 1 y ~ / I M = 0 u k < k / C 7 u C u M ",
"< 0 M T T k < = < 0 M M G.V.{ { { T T C T { =.{ q.j.q.C u { %.k ~ o.[ C B F B x U U G x 9 1 2 9 @ 7 M 0 0 C T k M T T C I u : = ",
"j.f.f.f.f.7.=.7.I I f.f.L.j.V.[.G.G.L.W.[.XXXXXXL.[.[.f.7.[.#Xq.b.Z.y.o.<.u.u.b.s.u.;.U G U E G M I =.V.j.L.L.j.V.G.G.L.L.j.=.=.",
"{ T I T I C I T I k q.7.%.T { %.I %.G.W.V.=.{ %.q.%.%.{ T %.q.%.;.8.[ [ 8.8.o.<.G [ ~ B B o.8.u.=.k I L.G.G.V.j.q.=.%.7.7.%.{ { ",
"T C I T / I I T k C V.=.{ T C 7 T / 7.f.%.C T =.{ I C { I M I T [ [ b G u.<.E O.u.8.<.;.8.s.Z.Z.j.M M W.V.V.f.V.V.q.=.7.%.%.%./ ",
"/ C C I I M M T u f.3Xf.%./ T T M M { j.V.%.T { =.=.q.j.f.7.=.q.*.[ x G b.M.u.R.Z.o.~ 8.(.].!.R.7.u C XXf.=.=.G.V.7.7.7.%.%.%.T ",
"T C C I I M C / 0 7.XXj.W.k k / { / %.7.f.7.{ / j.[.V.[.[.j.j.j.%XK.E G s.R.l.s.b.o.<.s.y.b.(.Z.q.k { =X[.q.7.=.q./ =.%.%.q./ / ",
"{ T T / / C k k u u C u f.T / / %./ { V.[.XXL.j.f.G.j.W.#XXX;X3XK.s.o.[ u.s.<.*.U G o.u.8.y.s.8.=.k %.XXW.j.V.G.7.7.7.=.q.q./ { ",
"/ C u u u M M k < 7 u < / 0 k M < 7 u M k k u k < k k C T I { { o.[ o.*.[ ~ ~ B x G [ o.o.U G [ q.I T 7./ C I C C =./ / { C k M ",
"@ 7 M T { / I u u I %.C I < < k < 0 u 0 7 0 M T M %.j.V.f.7.q.=.Z.b.].OXK.Z.K.s.8.Z.s.<.8.[ ~ 8.W.q.=.%.I M M 0 0 C k C k : 7 = ",
"= M =.f.q.=.%./ f.7.%.I / C T { { I k M I %.=.=.u I j.W.G.L.L.G.Z.s.R.R.b.b.Z.u.<.u.o.U *.~ U 8.W.G.j.f.q.f.f.7.j.f.V.XXf.=.G.%.",
"7 M { { / / %.f.V.7.{ I I M C M %.%./ { %.q.j.j.C k 7.j.q.G.L.W.R.b.s.u.8.u.u.8.u.Z.8.<.b.<.~ <.f.V.V.f.q.V.j.j.V.q.V.[.f.q.G.{ ",
"@ : M / %./ T / / { %.%.C u 7 < : 0 C C C { V.W.G.T =.j.f.L.W.W.K.Z.8.<.u.u.4.8.u.b.u.8.u.[ b G =.G.W.V.q.=.=.q.f.f.G.V.j.f.T C ",
"I u k T %.{ / %.C M / 7.%.{ I M C I C M I %.V.L.[.C T =.f.W.W.[.(.(.l.u.J.Z.s.Z.s.b.b.s.u.o.G U T V.[.V.%.T { 7.V.[.W.f.[.j.7 u ",
"{ / I u k I I M u k 0 0 { / C =.I 7 < u u u / L.L.%.M C 7.j.j.q.7.%.%.q.7./ C I q.C / f.q.V.V./ 7.j.V.%./ =.f.q.L.V.j.[.XX7.M u ",
"/ %./ I C I C M u C I M I k u j.7.T M M M I I / V.q.=.%.=.{ { { =.q.7.%.%.=.%.T T T I / =.T k / 7.%./ I C k u u k M M T / C I 7.",
"j.G.L.V.j.G.G.G.W.L.L.V.G.q.{ L.V.G.V.7.7.j.j.=./ / { { T I T %.{ =.{ / { q.q.{ { %./ %.=.I k { / I C T C 0 7 u C { 7.7.=.%.=.V.",
"V.G.G.j.V.L.L.L.W.G.V.f.j.j.T / 7.L.W.G.q.j.G.V.7.{ I I M M M C C M M T T I T { 7.T { 7.{ / { T / / 7.f.7./ { q./ j.L.W.#XXXL.G.",
"W.W.L.L.W.W.L.G.j.G.[.G.G.L.=.T M { V.j.7.{ { %.%.T M k k k u u C M M C k 7 < 0 %.=.f.q.7.q.q.{ / %.7.7.7.=.=.{ { j.G.j.G.G.V.j.",
"L.L.L.[.#XXXW.V.G.L.XXL.G.L.=.C T { q.L.L.j.=.%./ T / { { T T / M / { I M k u 7 : q.q.T =.{ M { / %./ T %.7./ u { G.W.G.V.j.f.V.",
"j.j.V.L.W.[.[.[.[.G.L.G.j.j.{ I { %.%.f.V.V.q.%.%.%.%.7.7.{ { / C / / T I T C 0 u V.V.=.G.q./ j.=.7.%.{ %.q.%.k I 7.j.G.W.W.G.L.",
"M u 0 0 0 k C / { T f.q.I u k %.k k 7 : < 0 u < : @ @ < M C C k / M k I T M 0 < 7 u C T { / / I T { %.T C M k u / T I I %.=./ T ",
"< k M u u u I =.f.j.[.j.j.{ q.q.W.W.L.q.f.L.j.f.{ C M : : M T 7.7.7.q.q.7.q.%./ k k C C M M u M T M M @ M u M T f.q.%.I M C 7 X ",
"V.L.W.XX=X[.j.V.7.7.7.j.f.7.I 0 I / =.q.f.{ C j.q.q.%.k { XXL.7.T { %.=.=.q.q.7.=.=.f.=.%.7./ / { %.%.T I 7.{ f.f.q.%.{ =.q.{ u ",
"/ { %.f.j.%.M C M =.q.L.=./ 0 0 7 k u 7 k M k f.{ I k C G.#X7./ C C I C T { { { { / { C k T C C T =./ 7.k V./ / f.V.j.7.%./ T M ",
"u C / =.{ M M %.M =.V.V.T k u C < I / k I I u { %.0 7 / W.j.M T / T C C I T T I I / %.C k T I T T %.T { 7 j.=.{ q.f.f.=./ I k u ",
"7 k T %./ u k %.f.=.%.M C 0 k u < k / / I 7 7 V.j.T k I f.q.C C / C M I / { / C 0 I =./ I / I T T / / C 7 j.G.G./ I I { j.j.{ 0 ",
"{ / I I T C C %.j./ k = u 0 C C < 0 C M M / f.=X[.I 0 M { { I { %.I M T { %.T C k C { I k C C { T C C M { W.j.I u 0 M %.j.j.{ u ",
"%./ k u M C I / T C 0 < 7 0 I { 7 u T C { [.XXf.G.C T =.T I T %.=./ T T { / I C / T %./ T / / q./ I M M q.W.I @ : 7 k C C k u 0 ",
"7 u u u M M M I M k < 0 : k M T T < 0 < : C T C T %.[.q.7 u M : u 7 7 0 u 0 0 u 7 : M / / I 0 M k C 0 : 7 I : 7 @ @ = @ = : 7 0 "
};
