/* XPM */
static char *_8582211694875621[] = {
/* columns rows colors chars-per-pixel */
"64 64 119 2 ",
"   c #353430",
".  c #393735",
"X  c #3B3A36",
"o  c #39373C",
"O  c #3D3C3C",
"+  c #413E3D",
"@  c #3F413C",
"#  c #42423E",
"$  c #3E3E42",
"%  c #3D3D49",
"&  c #403F43",
"*  c #3F4143",
"=  c #3E414C",
"-  c #434344",
";  c #484645",
":  c #464945",
">  c #4A4A46",
",  c #45454A",
"<  c #49474A",
"1  c #46494B",
"2  c #4B4B4C",
"3  c #514D4D",
"4  c #4E514D",
"5  c #51514D",
"6  c #444651",
"7  c #494651",
"8  c #444953",
"9  c #4C4C52",
"0  c #47495A",
"q  c #4C4C59",
"w  c #514E52",
"e  c #4E5152",
"r  c #4D545A",
"t  c #535454",
"y  c #585556",
"u  c #555856",
"i  c #5A5A56",
"p  c #54555A",
"a  c #59565B",
"s  c #55595C",
"d  c #5B5B5C",
"f  c #625F56",
"g  c #615E5D",
"h  c #5D615E",
"j  c #62625E",
"k  c #656B5F",
"l  c #686A5F",
"z  c #4C5260",
"x  c #535662",
"c  c #555B62",
"v  c #5B5D63",
"b  c #565C69",
"n  c #5C5E69",
"m  c #625F63",
"M  c #556066",
"N  c #5E6163",
"B  c #566269",
"V  c #5D636B",
"C  c #5E6670",
"Z  c #636364",
"A  c #696665",
"S  c #656965",
"D  c #6A6A65",
"F  c #64656B",
"G  c #69676D",
"H  c #666A6B",
"J  c #6B6C6C",
"K  c #706D66",
"L  c #70676C",
"P  c #716E6D",
"I  c #6E7166",
"U  c #6E716D",
"Y  c #72726D",
"T  c #656671",
"R  c #666D74",
"E  c #6C6D72",
"W  c #6F6F79",
"Q  c #706F75",
"!  c #6E7172",
"~  c #6C7379",
"^  c #737474",
"/  c #787675",
"(  c #767976",
")  c #7A7B76",
"_  c #74757A",
"`  c #7A7679",
"'  c #757A7B",
"]  c #7B7C7B",
"[  c #807D74",
"{  c #817E7C",
"}  c #7D8173",
"|  c #7E807D",
" . c #838077",
".. c #83847D",
"X. c #89867D",
"o. c #8A887C",
"O. c #777781",
"+. c #7A7780",
"@. c #767E80",
"#. c #7C7C82",
"$. c #7F7D88",
"%. c #817F83",
"&. c #7F8083",
"*. c #838383",
"=. c #888785",
"-. c #868885",
";. c #8A8A85",
":. c #84858A",
">. c #89878B",
",. c #87898A",
"<. c #8A8B8B",
"1. c #908F8C",
"2. c #8F928B",
"3. c #91958B",
"4. c #8D8D92",
"5. c #8F9394",
"6. c #949494",
"7. c #949993",
"8. c gray63",
/* pixels */
"M B M c B C V V r N a d ( ) i ; 5 > : - : > 2 y 2 i t - 1 w 9 < 5 A A 3 & 3 7 & , , , 7 q 7 1 1 r = 0 r 9 t Z ) / h t d b n V n ",
"B B M M M C C V V F a d ` ) f > i > # # - : : ; t N d 2 w t < , y K K 3 ; 3 w 7 , 7 6 , 8 e p r = = = = 1 2 Z ) ) j t d v c b b ",
"B M M M B V V V F H d v { { i > 5 > # - 2 5 2 2 2 d p 9 t y 2 < 3 Y L # < 7 & & w p t , - = : = 8 r = = - , g {  .j i Z v c n n ",
"M M B B C V n c F R m J ;.=.f # : - # ; 4 5 2 > - < - : 9 9 , < > [ A + 2 w < w q 9 r p e e e 8 = 8 = * $ ; S ..^ d t v v x b C ",
"N N B C C B V V c v p Z { / 5 # # # > ; - - + - - : O - 1 2 - 2 ; Y g + < 3 & 7 7 , , 7 1 * * 1 = = = * * e ^ 1.Y d t v v c n n ",
"M M r r r r p c m F a d ` Y i i # : > ; # # - 2 & O o - t w q u i Y g # < & $ & < & $ $ 1 , 1 4 8 r q 1 : t K ..K g d d a b V c ",
"| | ~ | } ~ ~ @.E ] ^ _ ,.X./ [ ) ) ' ) ] { =.,.( Q J ' :.] ] *./ ) J d m d p v w d v Z J | ] ^ &.,.,.&._ ` ..<.1.<.-.] #.:.,.$.",
"r r M N B r r p a F J J ] / D Y Y D A S A J J J G j a d G d 9 w j i y g G Q Q ` Q :.,.] ] ,.( t M N V d t 2 3 3 y f d 9 1 N H r ",
": : d H v e 9 < , * $ - 2 5 2 > u I i # > 2 2 i J t y v d p u a g 2 5 j m ! #._ m F v S ) { j O g m m y & 3 3 + 3 w g y 3 & , 9 ",
": 1 d F d t 7 , , , 2 2 2 > : # > j u # 2 4 2 d J y y d d d G G i 4 i S J #.6.4._ ` J g Y ..Y 5 m m a 3 3 y y 3 y 3 3 < & & * , ",
"- , y Z d p w 9 , , - & # # # # # 5 > - 2 2 2 d Z 4 9 d u p d Z S i d d a Z Q ( %.>./ y g [ Y 3 m g y & 3 y 3 + 3 ; + ; 2 2 9 1 ",
"> > u j d t p 7 9 < , , 2 5 5 5 : > ; # > ; > d J s a A F m Z Z S Z S Z d Z _ #.>.6...i g o. .i a w & 3 y y 3 & & + + 3 d d 2 2 ",
"u 5 j k d y w , & & - 1 t t > - 5 5 1 ; ; : 3 Z P y t Z G G E G S S N N H ^ #.<.*.<.^ 5 f  .o.l i t 2 5 a m y y y y g A J Z y 2 ",
"# # 2 5 > 3 9 - 9 , & - : 2 : - : > > # O - 2 t ^ d 9 d v m Z v N S N d D ! _ *.] ] A 3 i [ o.Y g y < - & & & & < < 3 y 3 > > > ",
"f j D Y _ ` ] _ F F Z d i d d h S K ` ^ J Y ( P ( m d H m v v v h N i h _ ] ' *.) { / D K [  .[ ;.-.) K L ` [ L g g g Z g d d S ",
"3 3 i i y Z m y w Z _ ] ^ S i u : a A S d d a , p 9 d G m t t p ' ( N d E F t t F Q ] ` K A l A Z A A Z L %.[ m y y y y 5 > > 2 ",
"; > 1 e u u 2 > 1 > H ,.y 1 1 * 1 t c a q 7 1 7 q 7 , , 6 q q 7 L a 7 w x q 7 9 v p x x x v c p 2 < ; < a _ P w w w 3 < < 3 2 : ",
"2 2 2 4 4 1 1 : 2 1 S ,.u 4 4 2 p c c a 9 7 7 q 8 8 q q q q 7 7 T a w w w < < q & 7 q x x b x 6 2 2 < ; t ` { g g i 3 < < 3 w 3 ",
"2 4 2 4 1 1 1 5 5 : Z -.d - : 4 2 t t 2 , * - 1 9 9 9 p q 9 p c %.m 3 3 w 2 t d q q p p q m T c 2 3 ; & 3 / ] d y w 3 & - 3 t y ",
"5 5 u t t 4 t t s e U ,.Z # * 1 : > 1 2 , * - 1 1 : 9 s t , 1 a >.m + o ; 3 2 1 a m s 7 , p v t w w > < g =.>.A g y 3 < < 3 a d ",
"d d h h i t 4 t t 2 U *.J * O @ @ @ @ @ @ @ @ # > 4 u Z d : - > =.g # + > 5 5 2 y i Z s 5 u u : & + + - d { ` w m d y y y d g Z ",
"1 4 e t u t e 4 N h ] -.] u t u i 4 : : # 4 5 u 5 u u i 5 2 u Z [ L i # ; # # > ; ; 4 4 1 t d u Z d d S Q %./ y 3 2 3 w w 3 w y ",
"| ] ] &.&.*.*.*.] ' <.<.<.( ' ) } I D D ^ ] } ^ <.<.-.&.*.,.6.8.1.=.[ [ P A P ^ / J K ^ G ( %.*.1.;.;.<.1.1.<.{ ^ Y ^ ) ` Y / ] ",
"] ( ! U U U D S U H ( S U Z J J U S D ^ ..-.| U Z J _ ( ^ J G m G m g A J ^ ( ( ..` ' ] J a y w y 2 y g i i j A j g j A j g j A ",
"| N u i d h S D ' ( _ ' ^ J D ( | ( Z N _ <.&.F e r p a c c p q 9 w p x m G _ %.%.F G _ p y o 3 ; # # # > # > 5 + ; 5 > # # > D ",
"] Z i N j S ^ ' -.] ' | ] ) ' ] ! R ! E O.4.,.F v v c F m F n x a c m m G W O.` Q G Q +.d q & < ; + > 5 3 > 3 5 # - 3 # + O : K ",
"] N u d d N ^ ] ,.( Y ^ ' ' ' ' E G _ ! F #.#.e T F T F T T T T x c m n W $.$.W G W +.>.m 7 w w ; ; # > # > > i ; # > # X X ; / ",
"*.H d S S ^ *.<.-.^ S J ! U ^ ( J F _ ! F &.4.B T G T T T T F F c n n n T %.%._ m E Q %.m $ 7 w 3 > # # > # > 5 > # # + X X ; ) ",
"| Z u h J ^ ] ,.*.( J D J ! ( &.J N U ^ S #.&.s F F H J R G F N V C N v E %.+.G P J P >.[ > 5 3 3 # # 3 5 5 3 > # + # X X + ; Y ",
"| h t d d h S H ' E J D H Z D ( S d I ( U ] } h g d N Z Z Z d d t s d N R +.^ Z g 5 S ) Y # # + .   + # 3 > # + # X + . X # # j ",
"| S Z S Z h S J Y J J E D Z Z D i i I | ..;.2.o.j j h Z j j h i i r t u D ^ Y S Y A o.{ X.Y K f l A K K Y Y / ) ) ) ) P / [ Y X.",
"F s N J Z N ^ #.( E ^ ] &.! J H S k I U Y D H U U U D H H H H H | U h d S J ^ U L j *.l L [ P j D A l k g k Y  .K K Y j D Y j A ",
", % % $ = , e s 6 a 9 _ O.a G v R B B B H s r M r c b b c x x d #.N + & , % 7 q % % = = = = * = 4 * : 4 t - 4 J 2 # + ; - X . + ",
"$ $ $ * $ % % * $ 1 q #.:.F ~ R ~ R ~ @.~ C B B C V M r z z x M *.J , < 7 & 0 q 0 r 0 8 8 8 e M 1 * @ @ - - d *.2 ; - & ; - ; ; ",
", , 1 2 1 1 : * $ - 1 &.>.F U ! R | @.~ ~ R R H R V B M c c B V ' j # - 7 & , , = = r e 1 = = = h r 4 4 2 @ w ( 2 : O . . + + + ",
"* @ O O @ * @ # 1 : e | <.J U ^ R ~ } } H U U B c s M r r r r r ] A ; ; 2 < 8 , 8 e 8 e e 1 4 1 4 u u r 4 2 d ] : : & O < y y < ",
"- # @ @ # # # # @ @ > ) -.U D U I } R k h k B h N h h h p p s u } D # # ; O ; O 1 : * * * : 4 4 u e 4 * * : Z *.y w 2 2 y m y & ",
"> > : > > > : @ > : i | -.U j k k U k M h B k s e e e e e p h N } I 5 2 : O - @ @ @ * = e 4 : * e h 4 * * 4 u J g a w y g m y & ",
") ( ( Y ^ Y J S S j U ..-.) D D k k h h k k B h C U ~ ( ^ ' :.5.;.-.U D A h S Z h N H U U U N h r h h u h S S J d d a Z L ^ / { ",
"U S h h d h h d h u h N H J Z F C B k R U ( U H h U ~ ~ R R W _ | | ( ( ( H ( U &.&.&.| U U ( #.-.&.U h H U D J J J A A A g L { ",
"H s w p p m Q _ G Z Z F W ^ W J ~ U p N H &.c p p x p p p x x n v N N V Z a p a s ' :.a p w v u e N J H S h y d d g d t y m / *.",
"R v x v c m R E E n m _ +.R G G M h v W ' &.c c n n n n n b n T b v N V v v v N p _ :.c m F W Z N D ! ^ ( ^ J J Z J P L m g P %.",
"F a x v v n F m W F T _ O.W W T B V Z G W +.c n v x b n n n n n n n n V V N B H d #.>.m T Q Q c d N A D ' ' P G Z Z S J m i A ` ",
"F c v m m G T T R _ W V F #.#.W N h c v T _ c v m n n m T m n n T n n V V N N N c %.4.v m G F w N N d S ) ] E S ^ g a Z A A P %.",
"F u s v v m F v Z E G a c ! ! N e 4 i h ] #.Z d d c c v v v v c c c c B N d h h y ) X.s d d Z t J U Z S ' ] Y S J g a m m a A { ",
"J d d d c a m d N u t s d p p h t 4 e 4 G J y 9 t y d s a u s s c x s M N h h h h ) ..h g i g d Z S N d J D Z d d S L L g < g / ",
"( H S U A S J Z j 5 t h h d i D 7.| ..I -.| ) ) D U U U J H H ! H V N S S k k k I }  .k A i j f u N i u d j d i Z J / ^ m g m / ",
"d t u h d i u t S S h d j U | | Y D ) h ( U j N ^ ( ] ( ! J ( | &.( U U U U I U Y ) } I / l l j S ! H Z J J G J u y y y g m m m ",
"O - - O $ & - O o : - ` Z t S d v N s r v c d M t N d r v d V ] 7.3.h I ) A ^ Z E F Z F Z d v Z p s s t d &...u ; # & O O $ o & ",
"O - - $ - < , : $ < : G d d ^ G s v c s b N p c s b c s c c V ~ 2.3.S Y .._ *._ W W W T W _ E G V N v t t Y J > # # - - - , & & ",
"< 1 2 - - - - & O - $ Z 9 t F d c V V n F v s b N c N V c c V H ....k D ^ F _ R _ ' _ F J _ _ Z ~ E W Z v ^ J ; > 2 ; ; & & & & ",
"$ - - - : , < 2 : , 2 E d 9 d a N F F F V N c v V p c V p r N s ....D D ^ H ^ E m F F n v ! +.' _ ! _ ! J ) J - O @ $ + & & & & ",
"1 , - , : , , , : $ 1 ` v 2 u G F F N v N c a c c 9 a v r p v p ..} I U ( ! E E T F F m v m H Q @.! ! E J ! S X < & & & x & q & ",
"$ O O - $ O O O 1 O < J 2 - 1 v u c r 9 s t q r e 9 r a e q p p ;.| U U ( J S F W G T E m a p c ' F F F Z U J 2 & & & & & & & & ",
"a u v G ^ ] #.:.4.%.*.6._ ] %.-.#.#.#.#.,.4.%.%.#.:.*.%.#._ ' *.-.| ( Y _ ^ H ! m v v n F R R H F v F J S W ( Z L A G m m m m m ",
"d y u v m d m S Z d m F w G Z d v v v F _ _ R H F ~ R F N p q Z Z k S S J J J ] #.' G d v ^ Q F c s J ' J J G d g m m m L L L L ",
"d 1 & : 2 , , 9 o - - o o o $ o $ $ , 1 *.p $ , * , , - $ , , - - - 1 e 1 * - t d J F F F u e F s i v p G 9 < w 7 $ < < o m ` a ",
"a 2 o $ O o O $ - , , & * : - * , - 1 8 &.t * , , 1 , , , 1 9 7 9 2 : , : : * @ d N u u G v 9 9 e N J J #.m w q 9 & w w < m { m ",
"G t - - , : - - - , - - - , - $ o O 2 2 ] y - 2 9 1 , < 1 : , < 1 e q , 1 u 4 @ i S d s E E s 9 e s J F _ d t t 7 7 y 2 & m ` g ",
"J t - O $ $ $ - - $ $ O $ * - - O $ 2 9 W 9 - 1 9 - & 2 1 - , < $ , : , - > 1 > t S h e v Z a p D N Z u m u v c y a v 2 & m { A ",
"E d , * - - - - : , , , : < 1 w 1 9 a d E t & - < & , t p w 2 p e 2 7 9 e 1 > 1 j ^ S 4 s F v s U h d > p q u 8 7 t y < & Z / j ",
"Z y 1 - - + $ $ < : 2 2 9 2 2 2 & - 2 w d 9 - - - - > 9 2 : - & p = $ 1 e 1 - # D D 4 @ t N p 9 M 4 i e a w a , 7 w x p a L Y A ",
"^ _ _ ^ ^ Q J G ] _ ` *.<.*.^ G Z Z m Q ] _ ^ ^ J ' #.` Q G A F E R E E D H I D } | D d E _ S N h e S h m F _ F G T L G L { [ L ",
"t d J Q ^ E J Z G d v Q ] E t - t 2 - 2 9 t 2 9 2 y m s w p y p c _ &.J p 4 u h u N i 2 y e * 4 4 : e , , p +.+.Q G v y g g g g "
};
