/* XPM */
static char *kari1694913267[] = {
/* columns rows colors chars-per-pixel */
"64 64 148 2 ",
"   c #040004",
".  c #090305",
"X  c #0C0807",
"o  c #060209",
"O  c #0A050B",
"+  c #0D090E",
"@  c #10060E",
"#  c #110B0E",
"$  c #0D0611",
"%  c #0E0B11",
"&  c #110710",
"*  c #130D14",
"=  c #180E16",
"-  c #150E19",
";  c #190F19",
":  c #0F1111",
">  c #151116",
",  c #191316",
"<  c #161319",
"1  c #1A131B",
"2  c #1B191E",
"3  c #20161F",
"4  c #201A1E",
"5  c #1B1620",
"6  c #1D1C21",
"7  c #221B22",
"8  c #221F28",
"9  c #232226",
"0  c #292226",
"q  c #252329",
"w  c #2A242A",
"e  c #2D282B",
"r  c #31272E",
"t  c #312B2E",
"y  c #2D2B31",
"u  c #342D33",
"i  c #392E34",
"p  c #333135",
"a  c #393235",
"s  c #363439",
"d  c #3C353B",
"f  c #3B3A3E",
"g  c #41363F",
"h  c #413B3F",
"j  c #3D3B40",
"k  c #463B44",
"l  c #493F47",
"z  c #474145",
"x  c #494347",
"c  c #45454A",
"v  c #4A4549",
"b  c #4D4A4E",
"n  c #514B4E",
"m  c #4E4A51",
"M  c #534E53",
"N  c #515153",
"B  c #5A5455",
"V  c #585856",
"C  c #5A5559",
"Z  c #5D5A5B",
"A  c #625C5D",
"S  c #645E62",
"D  c #656164",
"F  c #6B6565",
"G  c #6E6A67",
"H  c #6B666A",
"J  c #6E6A6B",
"K  c #726D6C",
"L  c #75716F",
"P  c #6F6C71",
"I  c #736E72",
"U  c #767174",
"Y  c #7A7475",
"T  c #7E7976",
"R  c #7B757A",
"E  c #7E797E",
"W  c #81767E",
"Q  c #827C7B",
"!  c #7E7D82",
"~  c #817581",
"^  c #847D83",
"/  c #897E86",
"(  c #877F8A",
")  c #8B7F89",
"_  c #898386",
"`  c #8C8887",
"'  c #868389",
"]  c #8B848B",
"[  c #8E8A8C",
"{  c #91868E",
"}  c #918B8E",
"|  c #8D8791",
" . c #8E8B92",
".. c #938D94",
"X. c #998E95",
"o. c #948E98",
"O. c #939195",
"+. c #9A9496",
"@. c #969399",
"#. c #9A959B",
"$. c #979998",
"%. c #9C999D",
"&. c #A29C9F",
"*. c #A7A29F",
"=. c #9D97A1",
"-. c #9E9AA1",
";. c #A29CA4",
":. c #A89CA6",
">. c #A59FA9",
",. c #A4A1A5",
"<. c #A9A3A7",
"1. c #A7A6AB",
"2. c #ABA6AB",
"3. c #ACABAD",
"4. c #B1ABAE",
"5. c #B5B0AD",
"6. c #AEADB2",
"7. c #B2AEB2",
"8. c #B4B1B4",
"9. c #BAB4B6",
"0. c #B5B3B9",
"q. c #BBB6BA",
"w. c #BBB9BE",
"e. c #C2BEBB",
"r. c #BFBDC1",
"t. c #C8BFC2",
"y. c #C3C2C5",
"u. c #C6C5CA",
"i. c #C8C7CC",
"p. c #C7C9C8",
"a. c #CACACD",
"s. c #D2C9CC",
"d. c #D1D0CE",
"f. c #CECDD2",
"g. c #D0CFD4",
"h. c #D4D5D0",
"j. c #D6D5DD",
"k. c #DAD7DD",
"l. c #D9D8DC",
"z. c #DCDDE1",
"x. c #E1DBE5",
"c. c #E2E1E4",
"v. c #E5E4E9",
"b. c #E8E5EB",
"n. c #ECE8EE",
"m. c #F2F3F7",
"M. c #F6F5FA",
"N. c #F8F7FC",
/* pixels */
"N.@.r.1.6.0.6.6.6.6.6.6.6.6.6.6.6.6.6.6.6.6.5.3.3.3.3.3.6.0.$.p.c.$.5.1.1.6.3.3.3.3.1.3.3.3.1.3.3.3.2.2.3.3.3.3.6.1.6.1.6.1.6.m.",
"6.2 2 o : 2 < < < < 2 : < < : 2 : : : : : : : : : : : : : :   f $.: +   X : + : % + % $ $ $ % % $ $ $ * + + % % : o : : : : c i.",
"f.6 < < q 6 2 6 6 6 6 6 6 6 6 6 6 6 6 2 6 2 2 2 : 2 2 : : 5 : N 5.2 X > 2 < % < > > < > - < - - * * - < > < > < 5 : 6 5 : o j c.",
"w.: < 6 q 2 2 8 6 6 6 6 6 6 6 6 6 6 6 6 9 2 6 6 2 9 9 6 : < % N *.: : 4 4 , * 2 1 < 1 1 < < 5 < 1 < < < , < < < 6 : 5 6 6 % j z.",
"w.: < : : < 2 2 : 6 6 2 2 2 2 2 2 2 2 2 5 < 2 < : 2 2 : : : o c ,.> > , + # > 1 * * * * * * - - * * * * > > > > 6 : : : 5 % s j.",
"u.< 6 < 2 8 9 < 6 6 6 6 6 6 6 6 6 6 6 6 6 6 6 6 6 : : 2 6 9 % m 8., # , > 2 4 * < 1 < 1 < < - ; 1 2 1 1 1 2 1 2 5 6 6 : < % s l.",
"r.o 2 6 5 8 8 : 6 2 2 : 2 2 : 2 5 2 5 5 5 5 5 5 2 : : 2 : 5 : m 4.X X , , 1 1 + = * * - - < - ; ; ; , 1 1 , 1 1 % : 2 5 q : j n.",
"r.o 6 6 : : 8 9 6 6 6 6 6 6 6 6 5 5 5 5 5 5 < 5 6 2 6 6 2 : $ m e.# @ 4 @ # 1 1 1 1 1 1 1 1 ; ; 1 1 ; 1 1 1 1 1 6 6 < : 6 o s v.",
"w.< 8 6 6 2 2 5 : q q 2 < 2 2 6 6 5 5 < 5 6 8 - 5 5 q < - 5 o M 7., # # 4 = = 3 # 3 3 = 3 ; ; 7 = = ; = * 7 7 , 6 5 < < > < s c.",
"w.: : : < 2 6 8 2 2 2 : 6 6 6 : * 1 5 6 5 < - - 5 - 5 % - 5 o m 4.# * + = # = , , @ X * ; 7 - * ; 3 ; 3 2 1 ; * % < 7 7 > o e c.",
"y.: 6 6 6 < : 5 8 6 2 6 6 6 6 : 1 1 1 2 5 < < 8 < 5 < < 5 6   M 9.# 3 * = 3 = 3 3 * = 3 ; ; ; ; 3 3 = ; 7 3 1 7 5 > * * < < s n.",
"r.: : 2 6 < < < 6 : 6 2 : : 6 < 2 2 * + < 1 < 2 - < % % < <   M e.. # = @ 3 @ = ; * 3 = & & ; ; = ; = @ = = = 7 7 > > 2 2 : q f.",
"y.< 5 : < : 6 8 : 2 6 < < 6 6 < 2 4 4 > , 1 , > < 2 > > , , + C e.= @ = = 3 @ = = = 3 = = 3 7 7 = 3 3 = = ; ; ; = ; 5 1 * % u n.",
"1.$ < : $ % : % % : : % < < o o     > > X X > X + > + + . # X f &.= . X X # X # . @ @ . & & o .   . @ = O & & . o o O       2 w.",
"m.P  . . .$.-. . .$.' ' $.' ! ,.*.E _ +._ _ +.} { } ` } ^ } { &.s.X.Q { ) Q X.{ { X./ ~ X.) ~ #.:.W W X.] { #.] X...#.#.;...P k.",
"0.y c j j j j y y j y y j 6 y ' _ u 4 f e e a w a u t a w a t t 0 r g g g g g g g g r i l r k ) ) g i l i i l k d d d u j j i 2.",
"1.o : $ % % % % - - $ - $ -   ^ R   & + * @ * + * + @ # + @ $ + & + @ + & + & $ @ @ o & O *   ^ Y   = * + o * % + * + + + *   @.",
"1.% < < 5 < 5 5 - 5 - - - - . / ^ o 1 * 1 * 1 * * = * 1 , * , - * * = * = - ; ; = 1 * - * ; o ] W   2 , 1 * 1 > * > > - * 2 o ;.",
"6.: < 5 5 5 5 5 - 5 - 5 < 1 o ] ^ o 1 * ; * 1 = ; - = = ; ; < ; * - * - * 1 - ; 1 1 * ; * = o ' !   1 1 5 - 2 < 1 2 * < - 5 X ;.",
"3.o < : - - 5 - - 5 & 5 - - . ) ^   ; * * * = * & - - - * * * * * * * * * * & - * = & * * *   ( !   - * < * 1 - * < * * * 1 o -.",
"1.% < < 5 5 5 - - 5 $ - * =   / ( O - - - - ; - - - - - - - - - * - - - - - - - - ; & - - ; o | | o - - 5 % 5 - - - - - - 1 o >.",
"6.% < < - < 5 - - 1 - - * = . / ( $ - - - * ; - - - - - - - - - - - - - - - - - * - $ 5 - - $ ( o.$ - - 5 - 5 - - 5 - - < 5 o ;.",
"1.o : : - - - - - 1 * , = * . / ( o - $ - $ - - - - & - - - - - * & & - $ - - - * - & - * - o ( o.o - - - - - - - < - - - ; o ;.",
"3.+ 5 : < < 5 - - - @ , = *   / ( $ - * - * ; * - - - - - - - - - - & - - - - - - ; - ; - - o ( o.o - - 6 - 5 - - 5 - 5 - 5 $ >.",
"3.X < : : 5 6 % 8 $ - 5 @ 4   ] ( o ; - 1 & - - * - - & - 1 ; & * - ; - ; 5 ; - ; o ; 8 & 5   ( o.% $ < 5 1 < 1 % 5 1 * 8 5 & =.",
"1.  : : : < 6 - - * ; 1 X 4   Q ] o 5 & * * - ; - 1 ; - * = 1 - 5 * $ & - * * - - * - ; & 5 o ^ #.* - > % < * 1 5 6 - o - % $ -.",
"3.X 2 < > + % % * < 1 * , 4   W {   5 & + = > # * * - $ @ * * # - & - 1 ; + & 1 = = , # & 2   ^ @.o 1 < $ 1 * , % < - > 7 < * >.",
"*.  : : 1 < < 6 * 1 = # = #   W X.  1 2 = 4 * # = > * * , , , , & - ; 1 * * * = @ , , # ; *   W %.  * 1 * 2 : , - * < 1 2 o   ..",
"3.: : : 2 , : 2 < < * * , + . Q +.  # , , , X , , * # , , , , @ 3 3 # . * , , @ = # , * , # @ ^ 2.X + , , 2 : , 2 , # : > # > *.",
"$.      X       +       X   . A Y     X   . . # @ .   . X .         .     X X   X       .   X G } X           . .       X X + ` ",
"h.V K D U T U ! R P U I K K K &.5.Q Q Q Y Q Q Q Q T T T Y L L Q K K L Q Y G L Q Y G Y K L L L *.5.L J G L G L K L G U L K G Z e.",
"p.V T D P J D P H S H S S S B A n B B A B A A B B A A B B B A L 9.Y n B G F A A F D L F G G A D D A J G U J T F L G U K U T K d.",
"y.o   o o   o   . o o . o . . . . . . .   .   . . X     . +   v 5.X   .   . X   . o o o O . o o   o o   o o o   o   o     o 5 y.",
"f.% : % > % > * * * = * * = = = * * * * * = * * * = * * = ; O B 9., @ , # # * * * * = * * = - - ; ; ; 1 1 1 1 - 1 - - < - % y j.",
"f.: : < > : < > 1 < = 1 ; 1 = = 1 ; 1 1 1 1 1 1 = 1 * * 1 1 o C e., @ , # = , = 1 1 1 1 ; 1 ; ; * = ; - * ; < * - % % % : $ q g.",
"a.% % % % % > % * * * * * * * = * * * = * * = * * * * & * * . n 4.# X = # * * * * * * * * * - - = * - ; 1 * < > < * * - % $ q g.",
"f.% : - > % < > * > = * = * = = ; * * 1 * = > * * ; * * * =   n 5.# X , # # , * * * * * * * * - = = ; ; ; - > < 5 : - : : $ q f.",
"f.: - : > % < > < > * 1 * = 1 = * 1 = * 1 * * 1 = 1 = * 1 * o M 8.> # , * , , 1 = > ; - - - - - & - * * * * * * % $ % $ % o 6 i.",
"f.: % : > % > * > > * = * = = = * * * * * = * * * = * * * 1   n 4.# @ , # * * = * = * * * - - - = = ; 1 1 1 1 1 < < 5 < : % 8 f.",
"f.: - : > % > * * * > * * * = = 1 ; * , = * , * * * * * ; ; . M 4.# @ 1 # * * = * ; 1 - ; ; - - & = * * * * * * < % : : : $ 8 i.",
"f.- % % 5 % $ % * > * * * 1 = = * * * * = * = * O 1 = + * =   M 9., # # * 1 @ 7 * * * * * * * * = * * , * * > > < % : < < X 6 u.",
"f.5 : % : : < < > * < = = 1 ; = = 1 ; * 1 * , 1 * 2 = * 1 1   n 2.@ > # * 4 + . = , 1 ; ; - ; 1 = = * * = > > > % * < < + o q f.",
"u.< : o % % - % * + @ * * * * = * * * * * * * * * * + * ; *   x 4., , , # 4 1 * * * * * * * & * # = , * # , > , * > > % + : q p.",
"f.2 : % < < < % * > * * * * = = * , * = * 1 * * = * * 1 1 *   n &.# # # . # * 1 ; * * - ; - - - = @ # # > # # # > + + + < : 9 r.",
"f.: O + < : % < * * * * * * & @ $ * * & * * # & * @ * = * @   b 2., # 4 1 , , * * @ * * * * - * * = # = , # , , , X : , < : 9 p.",
"f.- % + : o + % * * * @ @ @ @ @ @ # @ & @ @ @ % = * * ; + * + z <.,   X , # * * 1 1 ; - * $ $ $ * * * # # , # > + : > : :   6 p.",
"6.2 9 < < 2 2 1 1 1 1 ; 2 1 3 3 7 2 7 7 7 7 7 2 7 1 7 7 1 8 1 k ` e , , 4 4 4 7 2 3 1 1 1 ; 1 ; = # = # , # , , : > > + : X : O.",
"v.P $. .O.-.;.O.#.#.#.#.&.&.;.&.#.#.#.X.@.X.#.#.@...+.X.X.:.] :.2._ +.{ } ^ R W I U ~ ( ] #.#.;.&.+.&.&.+.&.$.%.+.%.$.[ &.,.! l.",
"0.* 6 < 2 1 2 > 2 1 2 1 1 1 * E R . = * * = = * = 3 = = ; = * * = = = = = = ; 1 3 = 3 1 ; 3 ; R &.= 4 4 0 2 w 0 0 w 9 w w u 5 0.",
"1.o * % * % * * # * * % * *   I U . # = @ # @ @ @ @ @ @ & & & & & * * = = = = = = @ = * = = O H _   @ X + . * + + % + % % - o =.",
"2.o * % * % * + + + % + * +   I K   # # X # # # @ @ = @ $ $ & $ * & * * * = * * = * = * @ *   S ` . , # > # > * * * * % * 1 o =.",
"3.+ > * > > > * * * * % * * o U K   # # @ = * @ * * * * * * - * * = * > = = 1 = , * 1 1 * =   S _ . > # > + , * * < * > * < o =.",
"2.+ > * * * > * % + * + % %   I H   # * # * * * * @ * % * & - $ ; , - 1 , > 1 1 = * = * > * . S E   : + # + > + * * % % % - o #.",
"2.+ * * > * > * * * * + * %   I F   , # # , , > @ * % * $ * $ * * = * * * * * * * @ * * * 1 o S Q . , > > # 1 * > < - * * < o =.",
"7.+ ; * > > < * * * * % * * o Y D   > * + , < > * > * * * * % * * * * * * * % * - + * * < < o S T   < # # : 1 # * * % % % - o =.",
"2.o * * * * * % % + * + * * o I D   * * + , < > * * * * * % $ % % * * * % * * * > + # * % %   S U   > + > # 2 * * * * - % < o =.",
"2.* 1 + < % + < o 1 1 + - >   U D   : , > : 1 1 : - - : - % % % * > > * * > * * % % % % < * + C U   , > + 1 + * % * * * % * o -.",
",.o * + 1 1 % o + 1 %   * +   I Z   + > > X * + < < - < - < < < * + % % % % * % % % + + % % o S K   > +   * + 1 + > - * % < o o.",
"7.* 2 * * * 1 X > * * + 1 < o E Z   : : , > < > : % % % % % % % > < < < < < > > : < - : * % + D U   , , # * + 2 * 5 > + - 5 o ;.",
"<.  1 *   o * + + + + + > %   I b   o X : > : : < < < < - - - - % % : % % : % : - % : : > o   Z J   # * # +   * + > + o % - o ;.",
"1.  < 7 < % > * * * < * * +   K N   + X : - < : % : $ % % : % % - < < < < < < < < < : < < % o D D   X % > > * 1 % * * 2 2 * o =.",
"t.o * * * * * * > + * + o * + I c X :   % % % : < 2 < < < < 5 5 - : - : : > : : < < : : % : + D D # + . # + + > < $ % < % - $ >.",
";.o %       o   o   o     %   C p   X   o o   o     o     o o o o   o   o o o o o o o o o +   c v X X           %     o   - O ' ",
"v.^ 1.@.#.%.#.@.%.@.;.#.#.,.] u.0. .$.O.$.$.O.-.@.=.$.=.=.$.=.-.O.O.O.O.O. .O.O. .$.-.$.-.-.' y.0.` %.#.&.#.-.#.#...>.;.| 2.| z."
};
