/* XPM */
static char *a4aa1db5cf564c66cd729041e5a8aa42HQrJWyqwjmBRVkvb[] = {
/* columns rows colors chars-per-pixel */
"64 64 75 1 ",
"  c #760000",
". c #7D0200",
"X c #7D0901",
"o c #820200",
"O c #850B01",
"+ c #880A01",
"@ c #8F1602",
"# c #901602",
"$ c #921B03",
"% c #8D2504",
"& c #8F2904",
"* c #912604",
"= c #942904",
"- c #9A2B04",
"; c #9F3105",
": c #963A06",
"> c #9A3C06",
", c #A13505",
"< c #A63E06",
"1 c #A83F06",
"2 c #9D4007",
"3 c #A34207",
"4 c #A94407",
"5 c #B04C08",
"6 c #B45408",
"7 c #B75909",
"8 c #B95B09",
"9 c #B4660A",
"0 c #BC630A",
"q c #BE640A",
"w c #B6680B",
"e c #B7680B",
"r c #B76B0B",
"t c #B8680B",
"y c #B9690B",
"u c #BB710B",
"i c #C1690A",
"p c #C16B0A",
"a c #C26C0B",
"s c #C36E0B",
"d c #C46E0B",
"f c #C5720B",
"g c #C6720B",
"h c #C8760C",
"j c #C97A0C",
"k c #CB7B0C",
"l c #CC7D0C",
"z c #CE820D",
"x c #CB8E0E",
"c c #D0820D",
"v c #D2860D",
"b c #D3880D",
"n c #D2890D",
"m c #D48A0E",
"M c #D48D0E",
"N c #D68E0E",
"B c #D78F0E",
"V c #CE940F",
"C c #D1960F",
"Z c #D2970F",
"A c #D9920E",
"S c #D9940F",
"D c #DB950F",
"F c #DC960F",
"G c #D3980F",
"H c #D69A0F",
"J c #D99B0F",
"K c #DA9C0F",
"L c #D69910",
"P c #D99B10",
"I c #DA9C10",
"U c #DC9D10",
"Y c #E09F10",
"T c #DEA010",
"R c #E1A110",
/* pixels */
".. ..  .. .......o...o.o..o.oooo........................ ..   . ",
"X>2223323333333333343444444444444444343443344333343333233>3232>O",
"%xZZGHGHHPJKKKUUPPUPUUUUTUURRRYYUUTTUUUUUUPUPPJJJJJJJHHHHHHHZHV%",
"%u=&*=**======-==-=---------------------=--=-==-=====*=*=*=*==r%",
"%9. . . .............ooo.ooooooooooo.oo..o..o..oo........ . ..r%",
"%9X.......o....o.ooooooooooooo+ooooooooooooooo...o............r%",
"%9X..........oo.o.Oooooooooooooooooooooo.o.oo..ooo.o.o.......Or*",
"*ro... ..oo....o...oooooooooo+ooooooooo.ooooooo.o......... ...t%",
"*r........o....oo.oo.oo.ooooo++o+oo+ooooooooo.ooooo......... X9%",
"%rX.....o....o...ooo.Oooooo+ooooooooooooooooo.o....o..........r%",
"*rX..........oooooooooooo+ooo+o++oo++oooooooooo..oo.o...... .X9%",
"*r.......o.oo..ooooooooooo+oo+oooooooooooooooo.o.o..o.........9%",
"*t......ooo...o.ooooooo+oo+ooo++o+oo+oo+oooooo.oooo.o..o.....Xr%",
"*rX..........ooooooooooooo+o+ooooo+oooooooooooooo.o......... .9%",
"%rO...o...o..o.ooooooooooooo+ooo+o+ooooooooooooo.o.o....... .X9%",
"*r.......o.o.o.oooooooooo+oooo+ooooo+oo+oooooooo..o...........r%",
"*rX......o.o.ooo.oooooooo+oo+oo+ooo+ooooooooooooo.o...oo.... Xr%",
"*t.....oo.o..o.ooo.oooooooooo+o+++oooooooooooo.oooooo.........t%",
"*t.....oo.o.ooo..ooooooo+oo+oo+##ooo+oooooooooo.o...o........X9*",
"*rO.......ooo.ooooooooooooooo+oiq++oooooo+oo.ooooo.o..o.......t%",
"*tX.......o..ooooooooooooo+ooo-FA-oooooooooooooo.oo..o.......Xr%",
"*r.....oo.ooooooooooooooo+ooo+g88q+ooooooooooo.oo.o...o.......9%",
"*r.....o.o.o.oo.oooooooooo$iq8Bidkiq8-ooooooooooo.oo.o.......Xr%",
"*tO...o.o.o..o.ooooooo+ooo1YvBkBFDDAY1oooooooo...o..o.o.......t*",
"*rO......o...ooooooooo++o+1i6k$###i5i1oooooooooo.oo.o..o......r%",
"*t.....oo..oo.o.oooooooooo1ic1o+oo1ci1ooooooooo.oo.o.o........r%",
"*9X......oo..oooooooooo+oo1Nd++ooo+hb,ooooooooooo...o........Xr%",
"%rX..o.....ooo..oooooooooo1v,oooooo;A-ooooooooo..oo.o........o9%",
"*9X....o.o.oo.ooooooo+ooo+6iooo+o+o+i8+oooooooo.oo.o.........X9%",
"*t.........oooo.ooooooooo-l8o+o+oooo1D-oooooooo.o..oo.o.......r%",
"*9........o...ooooooooo+odv8oo+o+ooo5bdoooooooooooo..o.......X9*",
"*rX...o..o.ooooooooo+ooo,v88+oo++ooo87b,ooooooo.oooo..........9%",
"*tX......o...oooo+ooo++o,m68ooo+o++o87c,ooooooooooo.o.o......Xr%",
"%eX.......oOooo.oooooooo+gv6++oo+ooo8cd+ooooooooooo........ .X9%",
"*t.......ooooooOoo+oo+ooo-B1ooo+oooo7v-oo+ooooooooooo........X9%",
"*e.........o.oooooooooo+ooia+o+o+oo+q5ooooooooooooo..o........9%",
"*r........oooooooooooooooo;B;oooooo-z<ooooooooooo.oo....... ..r%",
"%tX.......o.o..ooo+o+ooooo,vh+ooooOfN<oooooooo.ooo.ooo.....  X9%",
"*tX......o..O..ooooooooooo1dc1oooo<zi<ooooooooooo.oo.........X9%",
"*r.........o.ooooooooooooo<q5t$@#$z50<ooooooooooO...o.........9%",
"%rX.. ....oo.ooooooooooooo<UDDDDNkbbT1ooooooooo..oO.o....... Xr%",
"%9X.......o.Oooo+ooooooooo-qqihpiN878*ooooooooooo..o.........X9%",
"*tX......ooo.oo.ooooooooooooooi77s+ooooooo.oooooo........... X9%",
"%9.............ooooooooooooooo-DA-.ooo.o.oo..o...oo..o.X.... .9%",
"%rX. ..........oo.ooooooooooooo0qoooooooooo.ooo.oo...... ....X9%",
"%rX .....oO.ooo.ooo.ooooooooooo@@oooo.ooooooo.ooo.o.....X... X9%",
"%9X ..X...o..oooo.ooooooooooooooooooooo.o.ooo...Oo...X.....   9%",
"%9X. . .....o.o.oooooooooooooooooooooooo.oo..o.o...o......X . 9%",
"%9X. X.....o..O..oooooooooooo.o.ooooooooo.oo.o............. XX9%",
"%9X ....X.o.o....o.ooooooooooooooo..o.oo.o..oooo.......X.  . X9%",
"%9.. . .....o...o.oooooo.oooooooooooooooo.oo.o.oo.o...... ..  9%",
"%rX ...X.......o.o.oo.o.ooooooooo.o.o..o.o.o...o......X X.  X 9%",
"%9X .. ......o.o.oooooo..ooooooo.oooo.o.o.o.o.........X....  X9%",
"%9X . ..X..o....o..X.ooo..ooooo.ooo.o.o....o.....O...X.... X X9%",
"%9   . .......o.o.ooo.o.ooo..o.oo..ooooo................     X9%",
"%9X  X. .....o...o...o.....oooo..o.o.o.................  X X  9%",
"%9X.. . ............o.o....oo.o..o.o..o.o...... ....X XX.  . X9&",
"%9X  . ..  ........o.....o..oo.o...oo.o....o........X   . .  X9%",
"%9X ... .................oo...o.o..oo.............. . X   .X  9%",
"X9X   .    ..................o.......o........... .. .   .    9%",
"&u:&==&=*****%*=&=&==========-==-===-===*====******=&&&&2X2X&&r%",
"XVVVVVZGHHGZLHHLLLLLPPPLLPLPPPPPPPPPPPLPLLLLIHLLLLLLZZZZVVVVVVVX",
"X222222223233232>332332333<33333333333<333333333232222222222222X",
"      .  . .  .... ...................... .... .. ..     X      "
};
