/* XPM */
static char *sdasi1694914625[] = {
/* columns rows colors chars-per-pixel */
"64 64 256 2 ",
"   c black",
".  c #010101",
"X  c #020202",
"o  c gray1",
"O  c #040404",
"+  c gray2",
"@  c #060606",
"#  c #070707",
"$  c gray3",
"%  c #090909",
"&  c gray4",
"*  c #0B0B0B",
"=  c #0C0C0C",
"-  c gray5",
";  c #0E0E0E",
":  c gray6",
">  c #101010",
",  c #111111",
"<  c gray7",
"1  c #131313",
"2  c gray8",
"3  c #151515",
"4  c #161616",
"5  c gray9",
"6  c #181818",
"7  c #191919",
"8  c gray10",
"9  c #1B1B1B",
"0  c gray11",
"q  c #1D1D1D",
"w  c #1E1E1E",
"e  c gray12",
"r  c #202020",
"t  c gray13",
"y  c #222222",
"u  c #232323",
"i  c gray14",
"p  c #252525",
"a  c gray15",
"s  c #272727",
"d  c #282828",
"f  c gray16",
"g  c #2A2A2A",
"h  c gray17",
"j  c #2C2C2C",
"k  c #2D2D2D",
"l  c gray18",
"z  c #2F2F2F",
"x  c gray19",
"c  c #313131",
"v  c #323232",
"b  c gray20",
"n  c #343434",
"m  c #353535",
"M  c gray21",
"N  c #373737",
"B  c gray22",
"V  c #393939",
"C  c #3A3A3A",
"Z  c gray23",
"A  c #3C3C3C",
"S  c gray24",
"D  c #3E3E3E",
"F  c #3F3F3F",
"G  c gray25",
"H  c #414141",
"J  c gray26",
"K  c #434343",
"L  c #444444",
"P  c gray27",
"I  c #464646",
"U  c gray28",
"Y  c #484848",
"T  c #494949",
"R  c gray29",
"E  c #4B4B4B",
"W  c #4C4C4C",
"Q  c gray30",
"!  c #4E4E4E",
"~  c gray31",
"^  c #505050",
"/  c #515151",
"(  c gray32",
")  c #535353",
"_  c gray33",
"`  c #555555",
"'  c #565656",
"]  c gray34",
"[  c #585858",
"{  c gray35",
"}  c #5A5A5A",
"|  c #5B5B5B",
" . c gray36",
".. c #5D5D5D",
"X. c gray37",
"o. c #5F5F5F",
"O. c #606060",
"+. c gray38",
"@. c #626262",
"#. c gray39",
"$. c #646464",
"%. c #656565",
"&. c gray40",
"*. c #676767",
"=. c #686868",
"-. c DimGray",
";. c #6A6A6A",
":. c gray42",
">. c #6C6C6C",
",. c #6D6D6D",
"<. c gray43",
"1. c #6F6F6F",
"2. c gray44",
"3. c #717171",
"4. c #727272",
"5. c gray45",
"6. c #747474",
"7. c gray46",
"8. c #767676",
"9. c #777777",
"0. c gray47",
"q. c #797979",
"w. c gray48",
"e. c #7B7B7B",
"r. c #7C7C7C",
"t. c gray49",
"y. c #7E7E7E",
"u. c gray50",
"i. c #808080",
"p. c #818181",
"a. c gray51",
"s. c #838383",
"d. c #848484",
"f. c gray52",
"g. c #868686",
"h. c gray53",
"j. c #888888",
"k. c #898989",
"l. c gray54",
"z. c #8B8B8B",
"x. c gray55",
"c. c #8D8D8D",
"v. c #8E8E8E",
"b. c gray56",
"n. c #909090",
"m. c gray57",
"M. c #929292",
"N. c #939393",
"B. c gray58",
"V. c #959595",
"C. c gray59",
"Z. c #979797",
"A. c #989898",
"S. c gray60",
"D. c #9A9A9A",
"F. c #9B9B9B",
"G. c gray61",
"H. c #9D9D9D",
"J. c gray62",
"K. c #9F9F9F",
"L. c #A0A0A0",
"P. c gray63",
"I. c #A2A2A2",
"U. c gray64",
"Y. c #A4A4A4",
"T. c #A5A5A5",
"R. c gray65",
"E. c #A7A7A7",
"W. c gray66",
"Q. c #A9A9A9",
"!. c #AAAAAA",
"~. c gray67",
"^. c #ACACAC",
"/. c gray68",
"(. c #AEAEAE",
"). c #AFAFAF",
"_. c gray69",
"`. c #B1B1B1",
"'. c #B2B2B2",
"]. c gray70",
"[. c #B4B4B4",
"{. c gray71",
"}. c #B6B6B6",
"|. c #B7B7B7",
" X c gray72",
".X c #B9B9B9",
"XX c gray73",
"oX c #BBBBBB",
"OX c #BCBCBC",
"+X c gray74",
"@X c gray",
"#X c gray75",
"$X c #C0C0C0",
"%X c #C1C1C1",
"&X c gray76",
"*X c #C3C3C3",
"=X c gray77",
"-X c #C5C5C5",
";X c #C6C6C6",
":X c gray78",
">X c #C8C8C8",
",X c gray79",
"<X c #CACACA",
"1X c #CBCBCB",
"2X c gray80",
"3X c #CDCDCD",
"4X c #CECECE",
"5X c gray81",
"6X c #D0D0D0",
"7X c gray82",
"8X c #D2D2D2",
"9X c LightGray",
"0X c gray83",
"qX c #D5D5D5",
"wX c gray84",
"eX c #D7D7D7",
"rX c #D8D8D8",
"tX c gray85",
"yX c #DADADA",
"uX c gray86",
"iX c gainsboro",
"pX c #DDDDDD",
"aX c gray87",
"sX c #DFDFDF",
"dX c gray88",
"fX c #E1E1E1",
"gX c #E2E2E2",
"hX c gray89",
"jX c #E4E4E4",
"kX c gray90",
"lX c #E6E6E6",
"zX c #E7E7E7",
"xX c gray91",
"cX c #E9E9E9",
"vX c #EAEAEA",
"bX c gray92",
"nX c #ECECEC",
"mX c gray93",
"MX c #EEEEEE",
"NX c #EFEFEF",
"BX c gray94",
"VX c #F1F1F1",
"CX c gray95",
"ZX c #F3F3F3",
"AX c #F4F4F4",
"SX c gray96",
"DX c #F6F6F6",
"FX c gray97",
"GX c #F8F8F8",
"HX c #F9F9F9",
"JX c gray98",
"KX c #FBFBFB",
"LX c gray99",
"PX c #FDFDFD",
"IX c #FEFEFE",
"UX c white",
/* pixels */
"g d p y t t y y 7 9 9 b y 0 - 7 6 7 0 q q 9 6 4 4 7 0 w w w p z , 1 4 8 0 9 6 4 5 5 6 ; l B < e 5 5 6 6 6 7 7 7 7 e p s i e q q ",
"q 9 6 4 2 2 3 4 , 6 e 9 9 6 8 5 5 7 9 q q 0 7 6 6 9 8 e p e w h 0 6 2 4 8 9 5 1 = 9 : 2 h u 3 9 8 8 7 7 7 7 7 8 8 0 r t r e w w ",
"c z j g f f h j r d c : 7 5 p 3 7 8 0 q q 0 9 8 8 w 7 e j r 6 g x s w 0 y i r 8 5 k 3 i k , 2 2 0 9 8 7 7 7 9 0 w q 0 q e r r e ",
"x l j g f g j k h b n 7 8 w s 0 q q q 0 0 8 7 7 7 r 8 w g q 4 z z d t w r t e 9 r g q d j 1 , 3 8 7 6 5 6 8 0 w y e w e y u r q ",
"r e q 9 9 0 w e y s y s 0 i y f t r w 9 7 6 5 4 5 e 0 9 r 8 q v 4 4 4 2 , : : > 5 = 4 7 t y > 9 3 3 3 4 6 9 q e t e e r y t 0 5 ",
"i u t e r t i p p a w n t u 7 f t e 0 7 5 4 4 4 5 9 w 7 3 9 a h = , 3 2 : = - > 4 o 2 ; 5 d , 4 < 1 3 5 7 9 q q 9 9 0 w w 9 5 2 ",
"u y t r r y p a l h j m h e 7 t w 0 7 5 3 4 5 6 9 4 w 7 - t z 7 2 5 7 7 5 3 3 4 6 < 2 > 1 t 0 : 2 3 6 8 9 9 9 8 5 6 8 8 7 6 6 7 ",
"i u t r t u a s d p v g c 0 y r 9 7 5 3 3 4 7 9 r 1 q 7 * s n % 5 3 1 1 3 4 2 < = 6 * > , 7 k : 5 7 9 q q 9 7 5 4 6 8 7 5 6 q y ",
"w w w e e w q q t l u w v j 6 0 6 5 4 4 5 7 9 0 1 u : 4 w k 2 1 2 2 2 2 2 2 2 2 1 > - = = > w j 1 3 8 w 8 2 2 6 * 8 = 6 5 & p b ",
"0 q w w w q q 0 w e r e t h s 3 0 9 7 6 6 6 7 7 0 4 2 8 g t 2 : 1 1 1 1 1 1 1 1 > > > : * - 7 s 2 2 7 u a w 3 > 9 0 9 w 4 9 h w ",
"0 q q w w q q 0 r 4 y y 2 a c 3 8 8 7 6 6 6 7 7 9 O 2 q l 2 6 > < < < < < < < < ; : , , - * 1 w s 8 : , 5 4 > * 6 : q 7 4 z h ; ",
"w w w e w w q 0 y 0 i i 5 q f y = = = - : > , < t - e f i , 5 : , , , , , , , , > ; : , > - : 1 x r , > 4 7 5 4 2 > w 2 t M 7 = ",
"r r r r e w 0 9 9 y e e t 3 7 M g h j k k l l l h s j n 2 2 < - , , , , , , , , 2 ; * > 2 < ; - i r y f l h p y e s s 6 v c + 2 ",
"y y t r w 0 8 6 > q 3 2 y 3 3 C t t t r w 0 8 7 8 t w g ; 6 : < , , , , , , , , 4 ; * > 3 2 , : p t t u t 0 7 9 8 g t 6 x d * w ",
"u y r w 9 6 3 2 : 3 < ; 3 w u d q q 0 9 6 3 < , & % $ 5 w 5 - 4 < < < < < < < < 3 , : < 1 < 2 6 d w 1 - % # % ; ; 7 2 2 6 e a 5 ",
"y t e 0 7 3 < > 4 , 4 - $ s b < 5 5 5 5 4 1 , > 2 O + , n 1 # , < < < < < < < < < < 2 2 > ; 4 t 8 1 > < 2 , - = 1 1 < 4   5 C + ",
"y e 0 8 6 4 < : 1 5 * ; O G 8 3 0 q q q 9 5 2 < ; < @ % u s 6 5 * : < , , < , > 6 $ 2 y 2 , t s = ; , 1 3 3 2 1 > < 4 3 : ; q c ",
"w 9 6 4 3 2 , : ; X 6 < x s r , 8 9 9 9 7 4 1 , - 2 = @ 3 y 9 : < 2 4 3 2 1 1 < > % > 2 : 8 i 8 ; > 1 3 5 5 4 4 3 3 5 4 , : 8 f ",
"e 0 7 5 5 5 4 3 q + 3 5 C & q 5 6 7 7 7 5 3 < , : 2 1 $ $ w u , > > , < 1 < < < 5 6 6 ; : u i & > < 3 5 7 8 8 7 8 7 7 6 2 < 4 w ",
"9 6 3 2 3 4 4 4 6 2 + h s - 4 w 4 4 5 4 3 2 < , 3 > 4 < % 8 g e 2 < 1 6 9 9 0 w 6 0 7 > 2 i t * < 1 3 6 7 8 9 9 0 8 7 7 7 5 4 4 ",
"4 2 < < 2 3 3 3 O 9 = C i r 7 8 4 4 4 4 3 2 1 1 e ; 3 q : , u f 2 : ; 3 6 5 5 8 > < , 1 8 0 7 6 1 2 3 5 6 7 7 7 9 8 7 8 0 0 6 2 ",
"1 < , 1 3 3 2 1 5 f s a e 0 e 4 5 4 4 4 4 4 4 4 u < 3 e 2 $ 2 a t 6 2 8 0 5 3 6 7 7 4 q y 1 - 9 3 4 4 4 5 5 5 6 6 8 8 8 q e 9 2 ",
"D D F H K K G D z l m , < 4 q 6 6 6 6 5 5 6 6 7 q 8 5 7 5 % = r n d u d g u r u r u q t s 4 * 8 7 6 5 5 4 4 4 5 5 9 0 8 0 e 0 3 ",
"6 7 9 q e w 8 5 e r l 5 > u 4 8 7 7 6 6 7 7 8 9 2 r 8 2 7 , - w u 4 > 5 7 1 > 2 < 8 3 6 s e 1 w 9 8 7 6 5 4 4 4 6 q w 9 9 e 0 3 ",
"3 3 3 3 4 6 8 0 7 q u y 5 ; < q 5 4 4 7 q w 9 6 3 y 6 < 9 1 2 v * & & & = ; , < < 3 @ & p r ; 3 8 w q 6 5 7 4 : 3 8 9 6 9 r w 4 ",
"5 4 4 4 4 6 7 8 9 6 q i w < < q 7 6 6 9 w w 0 7 7 2 4 5 < 2 w u : ; - = = - : : : - ; , 5 t q = 4 9 q 7 4 5 4 , 3 6 8 7 6 6 6 5 ",
"7 6 5 5 5 6 6 7 0 3 7 p p 7 2 6 9 8 8 9 q q 9 7 8 % 1 7 * 6 a < 1 < , : ; - - - = # 4 4 * e f & , 6 9 7 4 3 3 1 3 5 7 6 < ; 2 0 ",
"8 8 7 7 6 6 6 6 8 8 9 t a i 7 : 7 7 7 7 7 7 6 5 3 & ; < , 0 e * 3 2 1 , > : ; - - * 2 2 - 8 i 5 : 3 7 7 3 1 2 3 4 4 4 2 = % 3 p ",
"9 9 9 8 7 6 6 5 5 t y 0 y j r % 4 4 4 3 2 2 3 3 : 4 * & q w > - 1 1 1 < < , > > > 2 - ; 6 < 1 d < 2 5 5 3 < 1 4 5 4 1 ; % = 9 j ",
"9 9 9 9 9 8 7 6 4 u p 9 e j i : 1 2 3 2 < < 2 4 , 9 - - i 9 # 1 , < < 1 < < , > < 5 $ & 9 = # g 8 4 2 4 3 < < 2 4 4 , & & 2 t d ",
"8 9 0 0 0 9 8 7 5 q r r t i u r 2 4 5 4 2 3 6 9 9 3 1 q r 1 = 3 , < 1 1 < , > : < : * - : & * 6 u 7 < 1 3 < , 1 < 4 , $ ; w t 7 ",
"7 8 0 q q 0 9 8 8 3 8 a p q t z 4 6 7 6 5 6 0 e p = 7 j 7 = 3 2 < 1 1 1 < > ; - , @ , < . % 2 O f 9 , < 3 1 > , ; 4 < $ , i r = ",
"7 8 0 q w w q 0 5 e 5 8 d 0 9 Z h h h h h g f f d i j s , < 6 = < < < , , > > : > 1 , = = > - + w y i u t r i s u w w i p 0 > $ ",
"1 3 6 9 w e e e w w r e 0 i g s - - ; : : : : ; , * 1 w 7 1 2 2 : , 1 3 3 2 < > > > : = = ; ; * q 8 3 < , , < < < 2 1 < 8 r 6 & ",
"< 2 5 9 q w e e y 0 a r < f n , : > > , < < 1 1 : % * 0 a 5 * 1 ; > 3 6 6 5 2 < > - = - = = > 3 q 3 = $ % & % # @ - & O - e e > ",
"4 6 8 0 q q q 0 r q r 9 6 f f * 1 < < , , , < < < 2 - 4 f w & : > < 2 4 4 3 1 , , - = : ; ; 2 w 3 > & # $ & * * % - * + % 4 q 9 ",
"6 7 0 w e r e e w u 6 6 f a 5 4 1 < > ; = * * * @ < & # q u 4 1 2 2 < , > : : : < : ; > , 1 7 e % & * % # @ % = ; * = ; * % 3 a ",
"2 4 8 w t u i i t a 7 w b y : u 9 7 4 1 , : : : # 1 ; O , t e 5 4 2 > - = = - ; , < , > 2 8 9 6 % = : = $ @ $ * - $ * 1 = X - i ",
"1 3 7 q r u i i p y t d f 0 5 t 5 3 < ; = = = - 1 1 3 > = 6 t 9 < , > ; - - - - - 2 1 - 2 e 9 = : ; - * % % * - ; * - > = @ & 2 ",
"4 5 8 q e e e e s 8 f z 7 4 r 6 7 5 2 , > > , < , # , 5 * , y u ; : > > > : ; - & 2 1 * 1 y 8 o : & O o # * - = , 1 < - = - % O ",
"5 5 5 5 5 5 6 6 0 s f w 5 8 0 8 5 2 , ; - : < 2 2 , 4 e 8 > 2 t e 4 > , 2 < > : ; 1 = < i 7 @ * = * * = = ; : > , > : ; = & % % ",
"g g g f f f f f t s f u 9 7 7 7 7 6 3 1 < 2 4 5 3 < 2 8 3 = > 0 f r 6 6 6 3 < < 3 0 5 7 u 4 @ - ; ; - - - ; : > > > > > : - = * ",
"a a a p i i i u r r u i e 6 5 9 8 7 6 5 5 5 6 6 5 1 1 3 < ; 1 q V x f d d a i p 5 q 0 0 e 2 & > , , > : : : : > > > , < , > ; - ",
"5 5 4 3 3 2 1 1 6 3 7 y t 7 5 q 5 6 6 6 6 6 5 5 6 4 2 3 3 6 q i , & @ $ & & * ; < 3 3 5 9 5 < < 3 2 1 , > > > > > , < 1 < > ; = ",
"5 5 5 4 4 3 3 2 6 1 4 r y 9 7 q 5 6 7 8 8 7 6 6 9 8 6 3 6 w y y 2 > : 1 4 4 6 0 2 : : 1 6 0 8 < 4 4 2 1 , , , , < < < < > ; = * ",
"7 7 7 7 7 7 7 7 w 8 8 e y r 9 8 7 7 8 9 9 9 9 8 w e 9 4 7 r w 5 < > , 3 5 3 3 7 9 , , 3 4 e r , 5 4 2 1 < , , < < < , > : : ; ; ",
"3 3 4 4 5 6 6 7 e w 9 9 r i r 6 6 6 6 7 7 8 8 8 0 r w 6 0 u q > 1 1 4 9 9 5 3 6 0 1 4 6 1 q i 2 4 3 2 1 < < < < < , > : > < 2 3 ",
"3 3 4 5 6 8 8 9 7 9 6 3 0 a u 6 3 3 2 2 3 4 5 6 7 e e 8 r d t > , < 5 q q 6 5 7 5 , 6 7 ; 8 a 7 3 2 1 < < < 1 1 , > : : , 3 7 0 ",
"6 6 7 7 8 8 9 9 r 8 7 5 4 r t 1 2 2 2 2 2 2 2 2 r r t 5 v q 3 3 1 3 5 8 9 0 0 9 5 3 1 7 0 < 3 h 8 1 : < 3 3 2 3 > 0 = 2 4 < i 7 ",
"8 8 8 9 9 0 0 0 t 8 9 9 5 q y 9 7 7 7 7 7 7 7 7 9 8 0 8 i 5 < 1 4 6 8 9 q q 0 0 8 0 6 8 q 3 2 y e 6 2 5 7 5 3 3 : 3 - > 1 2 8 < ",
"q q q w w w w e t 8 w r 7 8 u p 5 5 5 5 5 5 5 5 r w e d 7 6 4 4 7 7 8 9 0 0 9 9 8 r q 9 r 9 4 9 7 < : < 2 , : : 2 : 2 > 3 q 1 > ",
"t t t t t t t t r 8 e u 8 7 p h t t t t t t t t u r y v 1 9 9 9 7 7 7 7 7 7 7 7 4 r q 8 y y 8 7 a w 6 8 q q q w 9 > q 1 8 d < 1 ",
"u u y y y y y y w 7 w t 7 8 p d 6 6 6 6 6 6 6 6 5 2 5 g : 8 9 0 8 8 8 7 7 7 7 7 4 r q 8 t t 7 6 h r 5 4 5 6 8 q 7 ; 8 , 6 s < 1 ",
"t t t r r r e e 9 6 9 9 5 e p q = = = = = = = = = & - 0 5 q 0 0 9 8 7 7 7 7 8 8 8 r 0 8 w 7 1 6 t 4 * $ # # $ * : & ; & > 9 1 , ",
"q 0 0 0 9 9 8 8 6 5 5 2 3 i i > 1 1 1 1 1 1 1 1 ; * = > i q 6 4 5 4 3 2 3 3 5 6 9 0 6 7 9 , > w e 3 ; - ; = = ; # = O # = > 8 2 ",
"7 7 6 6 5 5 4 4 4 4 3 ; 2 d i @ = = = = = = = = 1 : - # f 5 - % , > : : : > < 1 5 4 1 5 7 ; , a > & # * ; - = - # 1 X & ; - i 9 ",
"9 8 7 5 4 3 3 3 , < , # f 8 < ; : ; - = * * * * - # - = & q t O > - ; > ; * = > 7 # 6 0 . - a 6 * & % % $ $ $ % * # @ $ # % 3 u ",
"4 3 1 < , , , , 1 1 * 6 i 7 @ : ; - = * * * = = > = , ; @ 2 q ; = * = > > - - > 3 ; 5 1 # 7 p : & % % $ $ $ % % # @ $ & % % > 9 ",
"9 9 7 6 6 6 6 6 1 1 $ a e 5   2 = = * * * = - ; , - , : + & 7 q $ @ $ - ; * * ; ; 3 1 & : r 0 + $ $ # # # $ % % + @ & - * % * , ",
"2 1 < < , < < 1 1 2 < u 9 2 % 4 & & & * = - ; : : & = ; $ # 2 u * @ + $ & % * ; = 5 : % 6 8 * o $ # # # # $ % % # % = ; = % % * ",
"7 6 6 5 6 6 7 8 7 8 i 5 5 ; 4 > & & & * = - : > > * $ = = @ * 8 6 > * = ; ; , 3 , 5 : 1 r :   * % $ $ # # $ % % * - - = * * * * ",
"u u y u u i p a r w k < < & 8 $ & & & * = - ; : 1 , % % ; @ o > u 7 < < 3 4 6 0 5 4 , 9 u *   2 * & % % $ $ $ % * - - & & - - * ",
"2 2 2 3 4 5 6 7 e 7 y 0 - = 3 & * * * * = - ; ; : 4 = + = $ + 1 9 1 ; < 4 4 4 5 3 1 , 7 q ; $ 2 ; - = & % $ $ $ @ & * $ & ; ; % ",
": : : > , < 2 3 7 > < s * < > , = = * * * = - ; $ 4 = X & & * 0 - # + * , > - = : ; - > 2 < > : > : - * & % $ $ . # % $ * : - @ "
};
