/* XPM */
static char *b28a55a0c44c4b6cec6f90b93c4d5aeaCR9HHBllhHODTtQp[] = {
/* columns rows colors chars-per-pixel */
"10 10 32 1 ",
"  c #505050",
". c gray32",
"X c #535353",
"o c gray33",
"O c #555555",
"+ c #565656",
"@ c gray34",
"# c #585858",
"$ c gray35",
"% c #5A5A5A",
"& c #5B5B5B",
"* c gray36",
"= c #5D5D5D",
"- c gray37",
"; c #5F5F5F",
": c #606060",
"> c gray38",
", c #626262",
"< c gray39",
"1 c #656565",
"2 c black",
"3 c black",
"4 c black",
"5 c black",
"6 c black",
"7 c black",
"8 c black",
"9 c black",
"0 c black",
"q c black",
"w c black",
"e c black",
/* pixels */
"<&<;;;;<;;",
";@;&&&&;&@",
";@&@@@@@@.",
"1&;;;;&;;&",
";@&@@@@@@.",
";@;&&&@&&@",
"<&;&&&&;&@",
";@&@@&@&@.",
"<&;&;;&;&@",
"&.@.@@.@.."
};
