/* XPM */
static char *_7d171f8c20244bdcb6527318a442060jHCz2BMXqsAOaMbm[] = {
/* columns rows colors chars-per-pixel */
"30 30 256 2 ",
"   c black",
".  c #010101",
"X  c #020202",
"o  c gray1",
"O  c #040404",
"+  c gray2",
"@  c #060606",
"#  c #070707",
"$  c gray3",
"%  c #090909",
"&  c gray4",
"*  c #0B0B0B",
"=  c #0C0C0C",
"-  c gray5",
";  c #0E0E0E",
":  c gray6",
">  c #101010",
",  c #111111",
"<  c gray7",
"1  c #131313",
"2  c gray8",
"3  c #151515",
"4  c #161616",
"5  c gray9",
"6  c #181818",
"7  c #191919",
"8  c gray10",
"9  c #1B1B1B",
"0  c gray11",
"q  c #1D1D1D",
"w  c #1E1E1E",
"e  c gray12",
"r  c #202020",
"t  c gray13",
"y  c #222222",
"u  c #232323",
"i  c gray14",
"p  c #252525",
"a  c gray15",
"s  c #272727",
"d  c #282828",
"f  c gray16",
"g  c #2A2A2A",
"h  c gray17",
"j  c #2C2C2C",
"k  c #2D2D2D",
"l  c gray18",
"z  c #2F2F2F",
"x  c gray19",
"c  c #313131",
"v  c #323232",
"b  c gray20",
"n  c #343434",
"m  c #353535",
"M  c gray21",
"N  c #373737",
"B  c gray22",
"V  c #393939",
"C  c #3A3A3A",
"Z  c gray23",
"A  c #3C3C3C",
"S  c gray24",
"D  c #3E3E3E",
"F  c #3F3F3F",
"G  c gray25",
"H  c #414141",
"J  c gray26",
"K  c #434343",
"L  c #444444",
"P  c gray27",
"I  c #464646",
"U  c gray28",
"Y  c #484848",
"T  c #494949",
"R  c gray29",
"E  c #4B4B4B",
"W  c #4C4C4C",
"Q  c gray30",
"!  c #4E4E4E",
"~  c gray31",
"^  c #505050",
"/  c #515151",
"(  c gray32",
")  c #535353",
"_  c gray33",
"`  c #555555",
"'  c #565656",
"]  c gray34",
"[  c #585858",
"{  c gray35",
"}  c #5A5A5A",
"|  c #5B5B5B",
" . c gray36",
".. c #5D5D5D",
"X. c gray37",
"o. c #5F5F5F",
"O. c #606060",
"+. c gray38",
"@. c #626262",
"#. c gray39",
"$. c #646464",
"%. c #656565",
"&. c gray40",
"*. c #676767",
"=. c #686868",
"-. c DimGray",
";. c #6A6A6A",
":. c gray42",
">. c #6C6C6C",
",. c #6D6D6D",
"<. c gray43",
"1. c #6F6F6F",
"2. c gray44",
"3. c #717171",
"4. c #727272",
"5. c gray45",
"6. c #747474",
"7. c gray46",
"8. c #767676",
"9. c #777777",
"0. c gray47",
"q. c #797979",
"w. c gray48",
"e. c #7B7B7B",
"r. c #7C7C7C",
"t. c gray49",
"y. c #7E7E7E",
"u. c gray50",
"i. c #808080",
"p. c #818181",
"a. c gray51",
"s. c #838383",
"d. c #848484",
"f. c gray52",
"g. c #868686",
"h. c gray53",
"j. c #888888",
"k. c #898989",
"l. c gray54",
"z. c #8B8B8B",
"x. c gray55",
"c. c #8D8D8D",
"v. c #8E8E8E",
"b. c gray56",
"n. c #909090",
"m. c gray57",
"M. c #929292",
"N. c #939393",
"B. c gray58",
"V. c #959595",
"C. c gray59",
"Z. c #979797",
"A. c #989898",
"S. c gray60",
"D. c #9A9A9A",
"F. c #9B9B9B",
"G. c gray61",
"H. c #9D9D9D",
"J. c gray62",
"K. c #9F9F9F",
"L. c #A0A0A0",
"P. c gray63",
"I. c #A2A2A2",
"U. c gray64",
"Y. c #A4A4A4",
"T. c #A5A5A5",
"R. c gray65",
"E. c #A7A7A7",
"W. c gray66",
"Q. c #A9A9A9",
"!. c #AAAAAA",
"~. c gray67",
"^. c #ACACAC",
"/. c gray68",
"(. c #AEAEAE",
"). c #AFAFAF",
"_. c gray69",
"`. c #B1B1B1",
"'. c #B2B2B2",
"]. c gray70",
"[. c #B4B4B4",
"{. c gray71",
"}. c #B6B6B6",
"|. c #B7B7B7",
" X c gray72",
".X c #B9B9B9",
"XX c gray73",
"oX c #BBBBBB",
"OX c #BCBCBC",
"+X c gray74",
"@X c gray",
"#X c gray75",
"$X c #C0C0C0",
"%X c #C1C1C1",
"&X c gray76",
"*X c #C3C3C3",
"=X c gray77",
"-X c #C5C5C5",
";X c #C6C6C6",
":X c gray78",
">X c #C8C8C8",
",X c gray79",
"<X c #CACACA",
"1X c #CBCBCB",
"2X c gray80",
"3X c #CDCDCD",
"4X c #CECECE",
"5X c gray81",
"6X c #D0D0D0",
"7X c gray82",
"8X c #D2D2D2",
"9X c LightGray",
"0X c gray83",
"qX c #D5D5D5",
"wX c gray84",
"eX c #D7D7D7",
"rX c #D8D8D8",
"tX c gray85",
"yX c #DADADA",
"uX c gray86",
"iX c gainsboro",
"pX c #DDDDDD",
"aX c gray87",
"sX c #DFDFDF",
"dX c gray88",
"fX c #E1E1E1",
"gX c #E2E2E2",
"hX c gray89",
"jX c #E4E4E4",
"kX c gray90",
"lX c #E6E6E6",
"zX c #E7E7E7",
"xX c gray91",
"cX c #E9E9E9",
"vX c #EAEAEA",
"bX c gray92",
"nX c #ECECEC",
"mX c gray93",
"MX c #EEEEEE",
"NX c #EFEFEF",
"BX c gray94",
"VX c #F1F1F1",
"CX c gray95",
"ZX c #F3F3F3",
"AX c #F4F4F4",
"SX c gray96",
"DX c #F6F6F6",
"FX c gray97",
"GX c #F8F8F8",
"HX c #F9F9F9",
"JX c gray98",
"KX c #FBFBFB",
"LX c gray99",
"PX c #FDFDFD",
"IX c #FEFEFE",
"UX c white",
/* pixels */
"<.#.| -.<.&.$.E Y e y t u q v d h D d a B b m F W Q Q ~ ] o.",
"6.=.) 8.2.6.-.} _ C l s Z d i y k m h j c S T v c D Q [ O.*.",
"7.:.W e.=.7.@.} B j 7 < V r - 1 4 6 7 8 2 x P 7 a N Y ( ' { ",
"o.X.I @.Q ' U N B s 9 7 C s w t w s i t q v E n V H I U T ~ ",
";.5.:.:.o...| D Z 4 4 2 7 ; 9 < 8 x r 5 0 0 x H E R I P Q } ",
"( } [ _ ^ R ~ c v @ $ @ .   > O : f 1 & 3 - 7 b U I K K E _ ",
"` ! G ] ~ ~ Q G G e 6 1 t 3 q 8 9 g r y k b A b F J K H J L ",
"O.E j O.^ ] E ! n y * . u ;   # O # * 7 u D Y 3 D P T I L P ",
"H Z N Z K P F B r 6 & . y =   O +   o 6 y M H 5 b N V B B Z ",
"^ ! ! ( ` ! S z A e 8 2 r 3 8 , 7 f 0 7 y k S N Z S S C A K ",
"( ^ ^ ( / I v u l X O       -     y =       , p n m v z c C ",
"W U J H H Z c s z ; - $ - @ 1 # + u 4 * : , e p k z x l x M ",
"U J S A D S B b i 8 1 * p 1 ; 1 1 3 2 0 w l F p j v B C D J ",
"Z C C Z A B c g & = O   w #   + #     @ % u V 2 e s z b B S ",
"M M N B N c d t w < 1 > y , , > ; 1 $ * 1 p N s y a d d h c ",
"H F S Z V m z g d % 2 2 1 * 8 & % f 6 - 9 q s x S A N x c B ",
"b c l j g i 9 2 = o     .         7 = o @ X ; 7 6 e i i p f ",
"b c x x x l g a s 9 < < 3 2 2 2 , u 6 2 6 7 s a e a g g h z ",
"l k j k l l j g 8 , = ; , : = * $ - # * - 5 d 8 w p h j k v ",
"r r e e q 8 4 1 % + + = > = O   .     $ O , s 1 ; 4 q e y s ",
"g h j h a r 8 4 9 2 , 4 7 4 > - > 2 2 7 ; 4 j 9 5 e p s d j ",
"j l c z h p t e e 1 $ @ # # @ $ & 4 < ; o X 1 % 0 i d d s s ",
"9 q q 9 5 3 3 5 1 $               < #       X   ; 3 8 7 6 6 ",
"f f a y w w y s 8 2 < 6 q 8 3 1 > d 6 , 7 3 6 8 8 y f g h j ",
"9 e q 4 1 2 , & % +   @ 5 1 X     X X   . * 3 8 o < q 9 9 r ",
"2 5 3 : = = & O & #   @ 2 > X .   O @ o O = 3 7 o & ; = & - ",
"t u t 0 7 7 5 2 5 3 - : 8 3 - > > 3 4 < > 2 8 0 7 9 w t w 7 ",
"6 6 4 1 , , > ; * & X . $ O   # $ - - # X o + + # # > 8 6 * ",
", : - = * % % & % % .   + .   @ o % & O     X X O o = 5 5 * ",
"r 0 8 9 8 6 7 0 0 9 2 2 9 5 < 8 < 5 8 4 2 5 9 0 q 0 w u i y "
};
