/* XPM */
static char *_3727411694875621[] = {
/* columns rows colors chars-per-pixel */
"64 64 256 2 ",
"   c black",
".  c #010101",
"X  c #020202",
"o  c gray1",
"O  c #040404",
"+  c gray2",
"@  c #060606",
"#  c #070707",
"$  c gray3",
"%  c #090909",
"&  c gray4",
"*  c #0B0B0B",
"=  c #0C0C0C",
"-  c gray5",
";  c #0E0E0E",
":  c gray6",
">  c #101010",
",  c #111111",
"<  c gray7",
"1  c #131313",
"2  c gray8",
"3  c #151515",
"4  c #161616",
"5  c gray9",
"6  c #181818",
"7  c #191919",
"8  c gray10",
"9  c #1B1B1B",
"0  c gray11",
"q  c #1D1D1D",
"w  c #1E1E1E",
"e  c gray12",
"r  c #202020",
"t  c gray13",
"y  c #222222",
"u  c #232323",
"i  c gray14",
"p  c #252525",
"a  c gray15",
"s  c #272727",
"d  c #282828",
"f  c gray16",
"g  c #2A2A2A",
"h  c gray17",
"j  c #2C2C2C",
"k  c #2D2D2D",
"l  c gray18",
"z  c #2F2F2F",
"x  c gray19",
"c  c #313131",
"v  c #323232",
"b  c gray20",
"n  c #343434",
"m  c #353535",
"M  c gray21",
"N  c #373737",
"B  c gray22",
"V  c #393939",
"C  c #3A3A3A",
"Z  c gray23",
"A  c #3C3C3C",
"S  c gray24",
"D  c #3E3E3E",
"F  c #3F3F3F",
"G  c gray25",
"H  c #414141",
"J  c gray26",
"K  c #434343",
"L  c #444444",
"P  c gray27",
"I  c #464646",
"U  c gray28",
"Y  c #484848",
"T  c #494949",
"R  c gray29",
"E  c #4B4B4B",
"W  c #4C4C4C",
"Q  c gray30",
"!  c #4E4E4E",
"~  c gray31",
"^  c #505050",
"/  c #515151",
"(  c gray32",
")  c #535353",
"_  c gray33",
"`  c #555555",
"'  c #565656",
"]  c gray34",
"[  c #585858",
"{  c gray35",
"}  c #5A5A5A",
"|  c #5B5B5B",
" . c gray36",
".. c #5D5D5D",
"X. c gray37",
"o. c #5F5F5F",
"O. c #606060",
"+. c gray38",
"@. c #626262",
"#. c gray39",
"$. c #646464",
"%. c #656565",
"&. c gray40",
"*. c #676767",
"=. c #686868",
"-. c DimGray",
";. c #6A6A6A",
":. c gray42",
">. c #6C6C6C",
",. c #6D6D6D",
"<. c gray43",
"1. c #6F6F6F",
"2. c gray44",
"3. c #717171",
"4. c #727272",
"5. c gray45",
"6. c #747474",
"7. c gray46",
"8. c #767676",
"9. c #777777",
"0. c gray47",
"q. c #797979",
"w. c gray48",
"e. c #7B7B7B",
"r. c #7C7C7C",
"t. c gray49",
"y. c #7E7E7E",
"u. c gray50",
"i. c #808080",
"p. c #818181",
"a. c gray51",
"s. c #838383",
"d. c #848484",
"f. c gray52",
"g. c #868686",
"h. c gray53",
"j. c #888888",
"k. c #898989",
"l. c gray54",
"z. c #8B8B8B",
"x. c gray55",
"c. c #8D8D8D",
"v. c #8E8E8E",
"b. c gray56",
"n. c #909090",
"m. c gray57",
"M. c #929292",
"N. c #939393",
"B. c gray58",
"V. c #959595",
"C. c gray59",
"Z. c #979797",
"A. c #989898",
"S. c gray60",
"D. c #9A9A9A",
"F. c #9B9B9B",
"G. c gray61",
"H. c #9D9D9D",
"J. c gray62",
"K. c #9F9F9F",
"L. c #A0A0A0",
"P. c gray63",
"I. c #A2A2A2",
"U. c gray64",
"Y. c #A4A4A4",
"T. c #A5A5A5",
"R. c gray65",
"E. c #A7A7A7",
"W. c gray66",
"Q. c #A9A9A9",
"!. c #AAAAAA",
"~. c gray67",
"^. c #ACACAC",
"/. c gray68",
"(. c #AEAEAE",
"). c #AFAFAF",
"_. c gray69",
"`. c #B1B1B1",
"'. c #B2B2B2",
"]. c gray70",
"[. c #B4B4B4",
"{. c gray71",
"}. c #B6B6B6",
"|. c #B7B7B7",
" X c gray72",
".X c #B9B9B9",
"XX c gray73",
"oX c #BBBBBB",
"OX c #BCBCBC",
"+X c gray74",
"@X c gray",
"#X c gray75",
"$X c #C0C0C0",
"%X c #C1C1C1",
"&X c gray76",
"*X c #C3C3C3",
"=X c gray77",
"-X c #C5C5C5",
";X c #C6C6C6",
":X c gray78",
">X c #C8C8C8",
",X c gray79",
"<X c #CACACA",
"1X c #CBCBCB",
"2X c gray80",
"3X c #CDCDCD",
"4X c #CECECE",
"5X c gray81",
"6X c #D0D0D0",
"7X c gray82",
"8X c #D2D2D2",
"9X c LightGray",
"0X c gray83",
"qX c #D5D5D5",
"wX c gray84",
"eX c #D7D7D7",
"rX c #D8D8D8",
"tX c gray85",
"yX c #DADADA",
"uX c gray86",
"iX c gainsboro",
"pX c #DDDDDD",
"aX c gray87",
"sX c #DFDFDF",
"dX c gray88",
"fX c #E1E1E1",
"gX c #E2E2E2",
"hX c gray89",
"jX c #E4E4E4",
"kX c gray90",
"lX c #E6E6E6",
"zX c #E7E7E7",
"xX c gray91",
"cX c #E9E9E9",
"vX c #EAEAEA",
"bX c gray92",
"nX c #ECECEC",
"mX c gray93",
"MX c #EEEEEE",
"NX c #EFEFEF",
"BX c gray94",
"VX c #F1F1F1",
"CX c gray95",
"ZX c #F3F3F3",
"AX c #F4F4F4",
"SX c gray96",
"DX c #F6F6F6",
"FX c gray97",
"GX c #F8F8F8",
"HX c #F9F9F9",
"JX c gray98",
"KX c #FBFBFB",
"LX c gray99",
"PX c #FDFDFD",
"IX c #FEFEFE",
"UX c white",
/* pixels */
"k [ x s B v S z Q @.h N m v B m M b B D m N m l O.g @ * < $ & 0  .A d r y i e a 4 p s s u t u m  .v v H z y i 8 U o.f y 7 e r 8 ",
"t R f p N x m i I o.z N N M C M l j v V C F K F O.v , 2 7 ; # - ] B i e u t 9 r h g r w i t 0 y Q y t N n z z e P [ r 9 5 w i y ",
"k R j s M x v y I ..b z c b C N A B B n N n M v ( j & + ; < 4 9 { Z y p k l x m z d w 7 p r e a ^ u 5 s g h d 6 R  .z z z p r 3 ",
"x S e 3 w q t 5 T { n i f g v v g d d t c h x z ( V 0 * $ * - - } C 4 6 0 2 9 e f s a 0 i 5 t c _ z q r w r i w _ ) 5 = < = 9 r ",
"] } U H U R ~ R { $.! F R K J J F S D z Y A D D X.X.| _ ! T J Z &./ n L W F R E Y H P V U x B J $.] / / W Q ' | O.+.B C W A Q ) ",
"G H J I R ~ ( ^ / ] ` / &./ J H ` ` _ D o.Y I P n Z L U T W Q W H A l / | L ^ Q ^ G I J %.R Y K v C J K D C A K h F S ] 1.H A b ",
"l h M Z B A F J N c V A { Z i a a k m p ] J L P G C m b m N C S Z A k ~ Q d x f c y b m o.D B l p z c z z f t t i v l H ' y i u ",
"G M F S b M A K L v B Z | V u g t d v r ' A Z Z S m c B F F C B z b u T R d Z C n x E T =.Z N v b M j a l k y w i b m R o.y u y ",
"D J Z C m x N N H A A S ( z t g h z a k U L x z g D N b Z Z n s u k h Y W N C x B S K ` %.c N m v D Z m k j M b S m z ( / f f h ",
"j l j x x j l l b c N N W k w e 7 t q s D B p a u l s i j k h d j c k K I b B x k h h H  .n j 0 s f a f s y i y i u u P P u e 0 ",
"] ! R Q / / ( ' { ] | ] :.' ! T P ! R / $.o.) ..O.o.{ [ O.O.+.1.O.X.` X. .W Q Y P I P _ ,.' ~ J ] I H T W I I ~ ) ` ` ;.:.' ) ! ",
"+.Y S B S K L ( ~ I P V E L T K R ~ P L ( ^ ^ *.N j g j v x x W  .' ~ ^ W J G D F E Q ! _ E ( o.X.S n C S B F X.W T J K J G J H ",
"_ c s t p j d S U N m f B N J V b M h f b l b ^ 0 = 1 2 7 3 , m n l l k j h a d s n V m k j c W U t r i r 9 i ` K A m h g b m B ",
"| m M b B A x T H f j d n z C l V F V Z K V C ' p 3 u t i i 9 P F M C b v M j x n m N Z M B g J P y z v f y s O.V c b g g n z b ",
"! p k h l v y J ~ k x c C v F M v N v M F n m ( r < a e y d w R K N S z l B j b N l z A B D d I V 4 s a w 9 w [ B k m k l m d x ",
"~ t s r t s 8 H E w 0 w p q x k v b g j N z m ' 3 $ e 2 5 u 8 U d 9 i 6 0 k a c d q r z a x y ^ D 4 i w 5 0 r  .C f c s p h 0 f ",
"@.[ _ ..%.*.&.*.-.+.*.P R C n V F D A P G b T  .n N Z D J E ] O.v S b A / ` Q A U L E H F T W ..$./ J G S Z T  .{ W ( { ..X.o.| ",
"^ T I R E U L P J C Y L ' O.~ F P Q E R ~ $.{ R / / ^ / ( / ^ ~ { } / W X.=. ._ Y J K L  .&.) ' Q P H J G Z S P H Z K R / ..H D ",
"B m n M b k g g l i l c z U h # * < 6 e h #.H v B m n N Z Z M c Z B P S ! { m l y t 9 r R ( z c z x b M M n c z j h z b F O.r i ",
"c z l x v v x z b x A A i R B 4 p q y j d O.M K Z B M M B V N M k p D B ~ +.j i h b g f ) ] n J j l k d s g s y u u u y v $.> 0 ",
"V m v b N Z V m z l C V u ~ J t g r t d p O.N J A D D Z n k f d v t x a J  .z g p k a i ! / k C C B v f s f s t i a d f B -.3 t ",
"j h d u u u r 8 k g b l g E M 1 : 3 1 < e X.S d e d v m c g a i f t f u C E a 0 w e 9 t T ! s s p y e r i a a p y i k c C { 9 t ",
"^ } X.] ! T I K D H / K / @.` J T ) R H U $._ V B S J I U I L K K Q ^ ~ | | P B / Q / _ ;.2.' ` ' E U ! ' [  .@.[ ( { } | *.^ _ ",
"A ^ X.[ R K K K Y _ &.L E U U Y Q ( Q ! E K ^ ( o.` Y F Z V M n ] *. .` [ ` [ _ ) ( ..` ^ ` / ..$.~ G J P K R ' I M m c h k B S ",
"h n &.c K C h g z ' W z j z v c C Z m C Z M C N H O.7 1 y y w 7 J T h f l d x p u h y 0 q r 6 6 c b 1 t a g j T L 9 s q i t h p ",
"v B X.i z j l C N ' R c m A V m m N M A D Z D Z M { q 8 p p y r / W z g s y b x u s a y u d s i D D q y u g l ~ H 9 s e p t h h ",
"c F +.j k p a b l E P l b Z N C G H J G S V b z A | a q q 9 7 q %.I i u y r k i e 9 t w 0 e p 0 N B 8 3 , 0 r L J y j s f u d c ",
"s B ) j k p i j B / ^ x a i 7 p 9 9 p i g n l z A _ s 8 > , 1 w +.G k x d t a u i 7 u 0 0 4 w > B A f t w j s T b 0 t w q 7 2 r ",
"T _ X.L Q ^ ` ..' @.*.( } +.W [ $.{ ..Q E ( D Z ^ %.W Y F I U ) >.+.=.,.@._ ^ [ ' E ` Q | ! ( L { @...[ } >.' 1. .~ ~ ~ ( ' I ! ",
"N K P Z P P G D v j b v { 2.! ^ G m L A E $.~ Q v L S K A I Z H F n M L o. .N c C n A M  .Y P A m D K H R @.Z Y T T P U _ =.E T ",
"s V V Z H Z l p v u g a R | j k v y v f C _ b g x N n A m H x c a 0 , 0 ' X.y 5 u u a 0 } S l h z b B m I @.z n d b f j J $.A k ",
"e z s g x n n n y w v k Y ' k Z n u N z L X.m f V m l m x K m V q x k i / _ y v f k f 0 $.F s a b c b l J @.f f a M d g P 1.D a ",
"j l r h B V V D B M n C ( ' b m b x N d Z  .J h V V m Z c g C n z g 7 x !  .x f p g p 6 +.G j z c d h k Z } x b h e z t S w.N g ",
"x v a s l j k v V m b N ) ) s q r w g p A  .W D y a t a q 5 a y q z n / @. .a 7 y y y 2 Q z i i 0 e p j B ! t r e w i y F 4.P F ",
"} O.o.] o...+.:.( [ .._ >.:.Q T Q T / / o.5.-.#.| O.` ` ^ R ] ` R $.@.5.7.1.! ! _ ~ ' Y =./ ( ! Q | ' [ o.;.J G J / G Y | 8.#.+.",
"C L ( F U P Y ( E +.<.! ' ` ( @...{ } {  .o.{ ] >.,._ ! / ! ' / | 2.[ { ` [ _ #.X.' @.[ +._ X.] } <.Q L L Y c b H #.A T ( ( / ^ ",
"v S ` c m h s l c Q o.l v l n J N V N S D Z D D ! R i 9 g j z d S ' M B n b x M m z A m b l Z v F  .p 5 6 7 1 5 e / e z n a z l ",
"l B [ p f w 4 8 p J } f S V M c z B m D G S U J Q Q u 6 x M m z H } x m v l f y f s x k h h c d B $.y 9 u e y y y ..s l m p g f ",
"l n { q p w 4 9 3 C ..k U J S z v J C F F C L M L ! s 9 n N n c Q +.g h g f k i a h j k x b l a l #.6 3 y 6 w 7 s %.j s x s p u ",
"M B ..6 y 0 3 7 < G ;.c J N V x g D b m b k M y S ~ k e n v k k Y X.u p p a k i w s u i k x y 9 b :.4 , q > 5 : 0 } i 6 a d y y ",
"X.[ #.! ( D M K U _ -./ _ U I Q ^ E L R E W  .^ =.] C V S B V z {  .' I C V Z Z y A j g v h a p / _ Z i h x v G ` } S x n m D C ",
"S V K x T Q U U J K U L } ! } O.} X. .,...` { / [  . .X.=.&.o.;.| o...) ! ^ ( / / @.} | ;._ ' | o.@.[ W ! / / _ E [ _ &.7.:.;.&.",
"t u k 4 n K F N N b s b H 4 e w 7 f l ] F S D P F V C M ) ) a x f k l j j z z k l h l D $.m g u f s f d u s h p r s g E ' M f f ",
"g l Z i C F C V N B d H R - e t p v x @.J J F Q Y Z C v X.%.i v s d g j l l g a h r h S *.i 0 0 f e a f e a c d z d p W ' x s n ",
"g t z s H A c n M x 0 V W 4 g h y h a | F G V J G H W G X...i A l l x b n v k h x d n F X.9 i m l u j v d k M l v d y Y / d r z ",
"s 1 0 q F B i t s t 7 n ^ i 0 & e s d ` L K S C B N F G  .] y s u u a h j d d f f q q N %.m a e u e s z j g g a p i i U ^ f 9 r ",
"C b G b E I B n c B Y ( :.( L M S H F ( K B B k h u r n ' ` n i < , 3 8 7 5 8 y p q > c #.T d : t u y s k d p j p k l R { P H J ",
"B E #.P E R W ( ~ } :.^ ( T Q }  .O.o.#...[ -.+.@.O.' O.$.] ^ K Y Y E ~ Q R /  .' @.~ | ,.#...O.] } ! W } ] ] ;.=.>.} O.=...O.+.",
"t d X.w y k x r 5 ! K c m C I Z S B F K / ) L ~ T ( ^ J F T W L ( 2.) H W T P I D U D m b Z D Y %.K d f k d h M T x j v M f y K ",
"w f @.f p d z d 9 Q K x c x n s c l n m F J n J G Y L n x C A M S #.K x m F D J K Y L Z B A C m  .J t ; , 0 y r ( d i i d j h ~ ",
"7 g &.S z u s d 5 G B g b C F C h g v x V D n P n A C z l V D C J 2.R x s C N Z b m S V Z J L v  .H u 6 9 e e w ` t h f g n d U ",
"6 d X.U M t r r y B d 2 0 u u p i i g u f k u v h b b j j n N b B :.P j q z d h l g B c m M D g o.x 2 q u 6 9 z } i m l d b y D ",
"U Q 1.%.{ W ~ ! / | ~ D T Q J U C B V l b M p k c B B x h j f u L 4.{ W R / T Q I A K v V g c a X.c 1 6 e 8 p S ^ y a 7 3 r 8 S ",
"D C K F A G W R F P U K _ ) N Z | [ } ' %.<.{ { ( [ } ` / / ! R ^ >.o.o.3..._ [  .^ ` R -.~ ` } 1.*. .` [ X. .' { T K I / E F ] ",
"n c l z k C U G D A H S R D , , 9 5 0 y F ~ N z k v n b b N C Z M V m C o.h r i t 4 7 q ..C m I A Y ! R R E F k N L c Y &.L s f ",
"v M b N n D I M D N D S ~ U 8 w u 0 e s T } A k n m n v v N S F A l x C ,.p q y k w 8 u 3.G g S N n n N m c x b N W t Z #.m 2 - ",
"v b m V G K F V C C E U ^ ! a t q r i p E ` x A M m x l v z B N g V z n =.v 1 k s e j v <.H l h B b C a C c n V j i n H $.z & 6 ",
"p s d h c M n z b z m n R Q t 1 s q 5 q Q | b c v m h g j g c l r u w N %.a $ t i 3 5 7 } A g r g j M f C k h j x a p b >.Q 3   ",
"~ ) ' ' | +.+. .] o.@...7.t. .) ! J M N } O.Z m z J N F K G D m m F B W ,.G x B D n v h o.^ R J K L K C U C N n m I L L 1.o.V t ",
"x V S A D J H Z L *.*.( [ | / | ] { ) Q ) Q Z S ~ *.Y Q ~ ^ ~ Y K *.` E { ( ] T Q ( ' P o.] O.#.2.*.E J Q U U H T :.#.| 1.*.o.O.",
"w j b x l c l a y ) I w 8 6 7 f e g g f a q w y K | 8 , = 4 w q 5 W l 9 8 w z t s z m a z k N V ) J ; * 5 6 6 = M L t d J Z m V ",
"q l N c k c z s f  .A < 8 q q y s k d c b k v f A #.7 4 , 8 0 4 w ' l j d 8 d h N b n v C A A n { R = < q t e ; S U 6 h G b g z ",
"w z B z g c n z u | b % 9 r q 8 r u 8 d d t d 4 l #.5 q 7 e 5 & 4 { y i f 7 q u k a d x c v c h ..) : 7 q t u 2 x Q r c n p s b ",
"2 a j t q d z k p &.S ; 6 4 < : 5 r q j p 9 h 9 S <., = O ; = o 5 >.s 7 d h h u a p x C j g x M { ( # ; * : 6 : g W 6 p f a h b "
};
