/* XPM */
static char *wallblack_11694876811[] = {
/* columns rows colors chars-per-pixel */
"64 64 47 1 ",
"  c #010105",
". c #05050A",
"X c #08070C",
"o c #07080C",
"O c #090A0E",
"+ c #0D0D12",
"@ c #100F14",
"# c #0F1014",
"$ c #111216",
"% c #15151A",
"& c #18171C",
"* c #17181C",
"= c #1A1A1E",
"- c #1D1D22",
"; c #201F24",
": c #1F2024",
"> c #212226",
", c #25252A",
"< c #28272C",
"1 c #27282C",
"2 c #292A2E",
"3 c #2D2D32",
"4 c #302F34",
"5 c #2F3034",
"6 c #313236",
"7 c #35353A",
"8 c #38373C",
"9 c #37383C",
"0 c #393A3E",
"q c #3D3D42",
"w c #403F44",
"e c #3F4044",
"r c #414246",
"t c #44454A",
"y c #48474C",
"u c #47484C",
"i c #494A4E",
"p c #4C4D52",
"a c #4F5054",
"s c #515256",
"d c #54545A",
"f c #57585C",
"g c #595A5E",
"h c #5B5C61",
"j c #5F6064",
"k c #626367",
"l c #606068",
/* pixels */
"7793q5,2q3qqqqeeere9:1dseeghddptdpuupppttpttttpttppppppdpdddddpp",
"+.O oO+*=-:qq135999917gdjdfepddddputtuutptttttttptpttppdpdpptddd",
"q3qtqqeeqqqqeeepeeeueekdddghhdpueeuutuuuptpppptppttttttetpdldddp",
"e,qeqqqqqqqqqqeerree9eaeueqq777599q999qe9qqtteq9qq979q997777qqtp",
"h7qqqqqqqqeeppuee0e52596525575qqe97311599qqqqqqq952127qqq7575333",
"q1363qqq7qqqeueqe995566epephhpuetttttuuttt9779etttttttetttpdlptt",
"66eeepeeqqqqqepur9eeee9ihe5:*%$$**:19e95e95115qe59q95::--*::12qd",
"eahdfhsfpdhhhhlhjafgjsrsp6-*:15q1::2epddtt9779etpddt5>:19521,13t",
"q9qtpdpdeupdddddssssire9e>5ffffudutdtpeeeqeeeeeqqqeedutdtddpde:9",
"eeq999555qqqq99qiisaue95019ggffiudddtptpppttttppqphqpddupdldle,9",
"9999999qqqqeqqee0e0e9995e15iuee9quttqtttqq999qqqeudqquuq99ttt91q",
"tttq999qqqqeuuterre09eee9335115597::=:%$%**=****#O**:,3551532559",
"99751113111355537753111169511607eq1797:2qtppppeqq*3qq5qt9592>777",
"1111259qe97557775665551::11::12:*:*22,-q7qqeqqq9q=3::*=->,5>-21-",
"teqqqeetptteeeetriiuuir99qq0q0799e99951tqqqqqqqqe1q35qqqq5q9qq7q",
"51113555135557575751111:::-:1:-1:3**:1*3qqeeeeqqe$:-:=>:2:>>,-%,",
"%%$$#+++*o..  .  oO.    ooo+oo#%$o#*#o#eaiteeeuae$oo$%o+##oo+o.o",
"ppdpuetpu1*15325e932253399qq5369e90551:5ue9599eiq,365e9e9515ee96",
"e9qquqqq:**15:1q5120t0775:::,33,o**#-1:**#####$*%-1-#%##:1:::::3",
"111quduq03%$271:59tiq2,,1:19q93%6uu90ire:111111>eeeeeeee:3e995::",
"O-35qqtqe6# o#oO o#o  #=+#*%ooooifarrtteuffiaffieeeepafd.. .%=%+",
":1q11qqq9995:*:etuq2,267te03-:70uieifssaifaersfisseapepi971:10ee",
"qq552qq,06edjjjhsffsssssiuussfae5959r995tur00rutqq2qq5q59sgsspiu",
"qqqqq>-,69eppjjdgsggsttiurreeuau5u9q919e95900559eq2qeee5epueeuee",
"uppeq3qqeeehhesgggjka90auteuiauq2909550i66999555r07799960usaueei",
"dppqqeqeeeqq57esqeq0qur0=:115555:1-*:-**$*-::-*%:***::::12551>>>",
"33qqeeeeq53qeeeequu00re60qeq955199219059>:*##*::7766336951>5uie5",
"qqqq33qeeq31eeeeqriiq769e090ee955099909tqtteettq0999999050te990e",
"*-::-:,3*>qq:##$>,159521::::5511996551>559eeee955135569972,111>%",
":-:1qqq3eq5q>*:5,5955007790077799655995509765999775555775700959q",
"31*#*::=*#$,11:**=*##*>:-:1,::1511:19ee96559955599951,,15,::22>=",
"-,3q12qq:*:15eeq6#.o:157e99799096955errtae5555earuue737q90q099qq",
"<<8w844<4880wwwweue1:11:3321225500550ue0150999537ere956q51525252",
"84,;<44446884,,,09521169,1332>>>::**>5599ee97ee9993>-*::11::1152",
"<-&&;,;;=;;<<<,,::112256,231,:>1155555111--51:-1,133513111:>5521",
"<<4844446448ww84>5725095755212565669ee553*#13#*116ee995555255555",
"&;;&&@&;=&;<42<;9091,36252113599551:>::5::oooo::11,,,155e951>>25",
";-&&&&&&&=,<3<4851111*$*##$*>1>:151*###*55*$#*55:#oo*151:>>:**##",
"&&&;44<;4<,,>-;21>155:**$%*:>>--*::>1**111*11*111:*-:::**:111-*#",
"&%&;48080<&;446653,-:2526679959511::11>>:3#*-*1::,21::,155955999",
"&;;<44<<6O%,,<23111::*:5,:->22,-****-:::*o#-:oo*::::--*#::211::1",
"&;;,,&&,=O=-%&@@o##$$#o#,-$#$*--***::::--#$::$*::::::::*::*###*:",
"<<4<<<<42405<432q931,::1732,12679eeee771533553353570eee055511155",
"&,;;;;;<156>,2,,-,1595,,,3690965::>11555111>:11151331:::1559e951",
"<<,,<<;,511>1>**::****>99quuq2&@511159995993359377751115#*10iir9",
"&;&&<<<<5*%%-:-1:>111-$*%=,36644**#-1117113333315311:***555551:*",
"<84448wy6:1559riiirereuattrrw087r055*#oooo####ooooo*150r990errrt",
"ww8<<,<<::ufiaauaireuq95wrryyr07tuii9::,77qrrq951::9uaiu59rriutt",
"<&;<<<484&&;;<wwwyyw2484wwyyrwwrwwyww4wayywwwwpyiie7wyyryq0ryyww",
"&&&;;&&@&&<<&@@X.XO@%&;<4<4ww087www8<4848884448899518wwr07788444",
"&;<88w844448<<4888444-@&%@.   .XXXXXX@;&-;-&--;&-:%oXXXX     .X@",
"84888w888wyyw8ww4888w4;4&@X... .XXX@X<4444686644271o.+OX...  .@-",
"84<44<<4<48ww8444848w;@-<;&&;244w828<448444444445062578w44<;&%;,",
"844wywwyww84w88y8888w4-474<;<8ww<--<;&&;<<;;;;<<=*%,2=&288842334",
"88wyywwwyawww8<4w8084;&;@-<<<<&@XX@%&@;=@@XO@XO@-=$*=O.+@&&;;<;;",
"<<488yww8888w848w0ww4<<4<488844;4<2;<<4<&-;<<;&&,63:,42,<248004;",
"wwwwww00w8wy044yww0w8;<48844444<<;<<;<<&;;&@&&;;;,<&<44;<2444484",
"-;;;-;;;;&&%&&;4@&@@XX%-%&;&;;&&@@&&&;<;<<<,<<<<;;,@&O@@@&;&&-&&",
"XXX.. X.XXXX.XXX@&@X..%-4844<<;;2<22<<4444444844444,4,<4;;,<<484",
"78844<<;;44-@%;;<4;;-;44444244484884<44444844444444,8448w8442444",
";<<22244242;@@&<<;;<444w44444888ww8;;40244444444484;28w084444448",
"%%&-;,<<844ww8484,<48448444<<&@XXXXXX8yw44644484ww8O..XXXO%;2444",
",<<22448848yapywywyw88<4w848w842444;;<8388844888<48&<<4844888448",
"88884880888448wywwy84088w4480wwww0ww8488888648888684yww6wwww848w"
};
