/* XPM */
static char *wallblack_21694876811[] = {
/* columns rows colors chars-per-pixel */
"64 64 78 1 ",
"  c #040202",
". c #080706",
"X c #090806",
"o c #090708",
"O c #0D0B0B",
"+ c #100E0E",
"@ c #13110E",
"# c #0E0E10",
"$ c #110F10",
"% c #151313",
"& c #181615",
"* c #1B1916",
"= c #191718",
"- c #1D1B1B",
"; c #211E1E",
": c #23211E",
"> c #1F1D20",
", c #211F20",
"< c #252323",
"1 c #282625",
"2 c #2B2926",
"3 c #272528",
"4 c #292728",
"5 c #2D2B2B",
"6 c #302E2D",
"7 c #32312E",
"8 c #2F2D30",
"9 c #312F30",
"0 c #353333",
"q c #383636",
"w c #3A3936",
"e c #373538",
"r c #393738",
"t c #3C3B3B",
"y c #403E3D",
"u c #42413E",
"i c #3F3D40",
"p c #413F41",
"a c #444343",
"s c #484645",
"d c #4A4946",
"f c #494748",
"g c #4D4B4B",
"h c #504E4D",
"j c #52514E",
"k c #4F4D50",
"l c #514F50",
"z c #555352",
"x c #585656",
"c c #5B5A56",
"v c #595759",
"b c #5D5B5B",
"n c #605D56",
"m c #605E5F",
"M c #63625E",
"N c #615F60",
"B c #656362",
"V c #696762",
"C c #6A6966",
"Z c #696768",
"A c #6D6B6A",
"S c #706F6D",
"D c #72716C",
"F c #716F70",
"G c #757373",
"H c #787775",
"J c #7A7975",
"K c #797778",
"L c #7D7B7B",
"P c #807D76",
"I c #807F7E",
"U c #868484",
"Y c #888687",
"T c #898788",
"R c #95928B",
"E c #9C9992",
"W c #A09E9F",
"Q c #A3A1A2",
/* pixels */
"c22aAMMzSUD72juajjczcjdauuttttwwuuw7w77uIbdwukuuw8wu77uji>>7:-<-",
"=<qgaudCBb767uwwwwuuutw7777777wwwuw377tgbbCBCDSJCSBjuuu7wwjj52w7",
"wt7sdjuhxa-uauuw700777wtw0557775uw7w7<7zccbatdjMjMcdjMcuzcBcwww2",
"ud70shtd<:%wwtw72223<377522577770<>00<3a883>=<>>=-=-57<>753>>ww:",
"gjy:2-++@#-537-&20uutuut0ww7<:27888euggakfieiddwuduad7273270wudd",
"wq6-t05-2>0jbDxMBAACADJJAcdaddgdfiifjvvgzkieeew77uat7525wwudduww",
"0tyrwee0ww7usa5wuauwwadd0<*2ajdwi38ffeiieieii87:8udw37757wwudw52",
"55<5:955=w>33<>3-23222:#->5wuuuw83ikiiiikgetw8w7ttut7wu07ww75<<3",
"080e0ee8>0te0te3t27077720w07wttw8iiiuuujt0wt7777juu7ww27w222:*--",
"iriteti8u088858u73775522w015dgt0338iuww7w7872*:*****>>-22<2:-:22",
"5<>>>3e8ei8->ia077w575207w657&X-#%>>*:2:##=3227wwww7wuwd7wuuww72",
"3>>>>3833330ritt7wwwww2www6uMjucMDIj::w27:502:27d02><:%*@%::-::%",
"35888ee3>38iie0e7w77w0:77::wzgucdjDcwwduw7uduwujuwwwddwwu72<%@@@",
"=>333eii3803308>2<3<22-1777wq117@X2MJPJDDMVCcjjjjzbMbcdj7<:2::2w",
"3333>ifki3>8e33r5<62:2277:10ysy6w7wMJDnjMncjddddcczu72*>527w7577",
"iifi88e3i838iaapt5w037tawwus0wt,ww722222722::277du73272wwuduuddu",
"iai88rppp9,95pt595,,er9694999peywe1;6750%%10q5%%JJGvjkifzzcbkr55",
"><-#%<484$=te99t5ee999595p9tt9hetst9qe685459r9-,5ag8>%X%#-33>%O#",
"   O39285--9,;=,-95;=&%=,,44,99408485-%<2<<<4,$$tkviiawe5853<30t",
"3ifasrrk98,5,9598r9,,9ery$59rp5e05555559==<500<9ppp0eatw0ifaafsi",
"f9%=90<==>-rgNNNNANggvNNbppNhyfpeaartlktaipe9<=5gtw3<<>538050r8-",
"$$%==-<4=%$pbNglgbvfpflzvfNl99e9yrpggapr954;,45ft3<3<<<3w8<-378<",
"%-59<59<5,-tpe,9,4559eeyg4Ny;e,9a5tvgr0r944<444t5#*<5w0733<3003%",
"54pa40a09r599t0plfyypt63r-9y59te5rfp0ia5<;3509>,%#=%#-><>=%%,,-#",
"aZBNm9;69-,95,5ppt95e95ey,ytvZFUKGQNl-5=5ipavl09<588905-0=33;O% ",
"gKFNl9,,%-,,4596,4,,8549o=bKUIZFvlZkf9pfbfpffafggzftetafp7e5<<95",
",e4>-,549pp9ep95$=%=,-=,69ere6O; o-4445lvtagpyffgzbbvzgiate5%5t0",
"i4#$,5ptpfe5r95e9errttype9,,49=e0tpa0<>fafllfggtkfttafi0yae5=rit",
"lp9rppft09-,965p99e9eepp39459e,y900<-==r0pr42534e5-%=<-%<5,-%99<",
"4tte9yp6994,999tr99e50te44;,9e9pfpa494<3,4=+-%+3-,5853--<4,,<5<=",
"5ap056e454,,,,,,9,4,;,4;4;=-544;<=3,594;4432989reiaaitifgfaiar98",
"5tee933,=OO&%$%--$$$O%;OOO$=,;eer499,4<<,>4<-8r<yie9560ei008r,<5",
"e545-=-,-,54-,<4-><<4er5-5,5,3554,<<,56-4,==,0ytyt035755-<55:->2",
"pgp99fftt5;,9fgla5-=4aka%9595ttetr099tt990999er9t5:25<2tcdtw7755",
"epe,tlgy9etffprrtee055<%-r3=%==%,443594>3454,,---++:3>3kj0=#@*<7",
"re,4fp9e,<9e6,5pr0r9444,xBa<-=;39ptrpp990995559e0w03559ewwww72>:",
"fy4tvf9tt5-=$$-40<-=>45,ZBf985agty9,33;364,,,4905te>353>><3>*%>2",
"42;3t9,,$$O-4599tetitr05ae3<3-ee9t6,,<,394,49966380eafii%%>333<3",
"ee9tppe954,,459t0008<4rir5555<e<46qe6et994<59954500eaae8e3>>><35",
"t99tt099tteeeptea023,499040980s<449040ye9550rte90ppiai83><355335",
"e,,49645a0,9r459<3>=%-,<:=%--<,#===&,499,554<4<,:*:122::339ie<<8",
"%++=,,39,%$>--5==-%  -<-O##%%,85,494<450tppeerrey16267wjaww78338",
"59e099eyprtp8tf<495<39043333<5we00944rlZNvzzzzxvhy722yujfw3<553>",
"49t0e9964599<59%3>-<<-=>-%#=<8w0554<4900t990rttay272227w3-%:2*##",
"flllghp99atplgfpt944<,4ru0700073ee00094,-=$>,,<22::*:277:@*::@@*",
"ysppspt48p95p049<99,-398>-3870e045944589544899902yuyuuww:**:*&:w",
";,359rrtrp5404-%-90<>24-8358535550rrr05<,44<3466*jREPVnVuuuuuujV",
"eee94,9y0944459=aap09999t33500e891=%;43--,,--355wudduuuuuuu72wuw",
"60r05wuw30:5722%JWUmzCa30-7di700::@*6y2;49yy8y8yw777111qy1:61216",
"66qw70uda76w::7X8d85ea>###%-##%%**:::::2ypy4;<4822::116qq1:61612",
"X*&X%7w0-*@%&*:>05@%30383eq53577uuuyyuuypyy4<444111:16qqy11q2q61",
"0du0ud5X222-57wjjjuaat8ttguqufpdju7wdjuyyy948y8<66116qq661:61111",
"t5&-77<7a:255tdd*::27:275e<>qt572227yy7:,1,;-;<,:*:1661661:61111",
":2wjMncbjw--:@XX:*>>7wuukzt7aa77wuuujdy210yy85yy:*:161111::1:::1",
"wsguwut6<w-2u2:uuwwwuw7*7u5%-2<-777776;@;,,,;-;<::161::1q62q2661",
"5:153672:uacu*wadww2722:2u7#%watuuw767yyy,$o$$$+*:1:::1:::*:**&&",
"*->>22<-7Bwdw7jjduw7www727:*:wu7u7227ww7::*X:yp;17277:1wyywqwssw",
"*-----*#27#*:<<72:227772@7w::ud7w27w722w6@1hTIIpuhhhdyshhssuuyw6",
"@****--%#XX##-X:2272772:27:*2uu7***2:@@*@1PnsnPy122::::::*******",
"<777777775uwww5t22::*:**2:*2ww2*::*@*:::6:62yyp<w6::::2:***&**:1",
"twuwweww775777w7722::22772wuu7777w772ww7y22qs6quy1166772222::6w7",
"w77775577uwttwccdddddddjjcjddjnnjjjuu7wwquq2yw267:26w7::::2::66:",
"u07wwwwwwuddu7MCjjdjjjdddjjjnnnujjjjuw7w7q662:1w1:2::1:::222676:",
"duwwwwwwuwwuw:wuuwwwuwwuuwuduwwuwww77uw2w7w6*:1::26::2:w72227622"
};
