/* XPM */
static char *zalijblack1694913267[] = {
/* columns rows colors chars-per-pixel */
"64 64 67 1 ",
"  c #030106",
". c #080307",
"X c #06040A",
"o c #0A060C",
"O c #07080D",
"+ c #0B080E",
"@ c #0D0B12",
"# c #110E15",
"$ c #121117",
"% c #15141A",
"& c #19161D",
"* c #17181D",
"= c #1A191F",
"- c #1D1B22",
"; c #201D24",
": c #222127",
"> c #25242A",
", c #29272E",
"< c #2A282F",
"1 c #262930",
"2 c #2D2C32",
"3 c #312F35",
"4 c #323137",
"5 c #35343A",
"6 c #38373D",
"7 c #35383F",
"8 c #3A393F",
"9 c #373A41",
"0 c #3C3C42",
"q c #403F45",
"w c #3D4047",
"e c #3E4148",
"r c #424046",
"t c #45444A",
"y c #48474E",
"u c #4A494F",
"i c #4D4C52",
"p c #504F56",
"a c #525056",
"s c #54535B",
"d c #58575F",
"f c #5A585E",
"g c #5C5B62",
"h c #615F66",
"j c #626067",
"k c #64636B",
"l c #68676E",
"z c #69686E",
"x c #6C6B72",
"c c #706F77",
"v c #727177",
"b c #74737A",
"n c #78777F",
"m c #7B7A82",
"M c #807F87",
"N c #84838B",
"B c #88878F",
"V c #89888E",
"C c #8B8A92",
"Z c #94939B",
"A c #9D9CA4",
"S c #A09FA7",
"D c #A3A2AA",
"F c #A8A7AF",
"G c #C5C4CC",
"H c #F7F6FE",
"J c #FFFEFF",
/* pixels */
"6550858pnn*#rraup0yiiiepsiipsdsiem30hdmsmdmdmmgmmmgmmmsmHmtggpp0",
"6458858uvM#%urt8tesypypsiiipissdmm9ymsmgggdhdmgmgmmdmmmZJmycNmNm",
"8560888yvV.*iiuryisysydiisdspsdhZM9ymgdmdmggmdhmmgmgmgmDJc2kCCBC",
"5455558rzC %rtutyyq0s9seyisiyidmAm10sdddgmgmmdmgdmmmmmmAJBekBBBC",
"54454558kC#>888q9990i7yyeeeeet0pZm0yisppyiyidipsyyspsssmGmypghhk",
"2<<<<<4<rz-26424999911>799999999hm999999eyi97e7yiwiyyi0ymhpyiiii",
"tyttyyyttftuaiuipysiymttpppiiipipd0sessssymedmyisesspsiiysspsspp",
"OOoXOOOXOO# .O.O@O@#>M2%$#@@@O@@O@O%@@@#@O@%yM3&@@@@@@@@XOOXOOXO",
"::::::>>>>>>>>>>>3;9mM,3454775779999999w939ymm7e9399999999000900",
"08080000qqrrrrrr9i9yMM>7paaasssssdddimddgmdgmm7emmmmmmmmMMmmCCCC",
"55556556888800qq9iqpmm10iiipipppsssdddddsmmsgm9imddhmggmmxmlmmmm",
"5555565685868000900imm10uuuiiipipsssddddiddsmm9sgmmgmmmmmmmmmMmm",
"888880888000qrrrqqqplm12ipppaaaassdddddddmsmdm3yggmdmgmhhmmmmmmm",
"4454455566888800qqqslm19ueyyuuuiipissdsspyemmm7ymddmgmgmmmhmmmmm",
"5666666680800000099ikm19iiiiaaiapssdssdsiepsdm1idmmdmghmhmmkmkmm",
"5555566666688888q0qpgl99eyyiuuuaipipsssssmdmms1egdmggmhgmhkmlmml",
"4444444248<48454445rfa84000rrrrrtt5ua8quttusjgu0isiiiiiispyispid",
"<<<<<<<<*4:>2<444426ut5242424222,8446444880ruur799w9w9w91999ee9e",
"888888880fu0q8rrrurraauuauuauauutkfaasjassssffgfsdssssssmmseeewt",
"+#+###O#4a<#*$$$O+OOO@OOO#O+O+O#rs8:-*-@**%%%%$*##$$$$##1e3%@@##",
"><2<><<2rf<#<4<<465485405885588qvkr8rqrqyuuutttteyweyyey1yssddds",
"8000880raj:#8rrr8rr0rr0rrrruruuaju,4upshasffggfghhsmsmsm@3ysmmmm",
"24554448af*+00508r00tr0tqrrrqquung36auppuupasspsddddsdmd-9eyimmm",
"44664460af*#q0<q8085rr0trrrr00ruja<4uaaaaaaassspsdddsdis%19igmmh",
"44444558uf:#8q8r068rr80rrqrrrruizi35uiuapppppsgsssddddgg#3eydsmd",
"24544558ua-+58458880088088qr08quzi24uauuspppssppssssssdd&9ypmmdm",
"<4444455ua-%8tr088800880qrrrrrtuzu<2uaiayyypiiiysdsdggdd#1weymmp",
"45888880ta>*46868888880q00rrrrruja54tuuipsddssggppspspss-9yissmd",
"*****-=;ru2------::-*-::--:::-::fu6>>:->-;:;--->11111111-9097737",
"**-****=28>*$+%$+++OO@+O###**$$*45>*%+O##%##@@@@@@@@@#@@1yy97137",
"rrrrq80q0itr00ururrufjfuuuuaaaaauaauiuuu0900dgsyeiie0iyy9ii0iiti",
"--:*****.*++++*O#O+:ra0-#OO$#+O+O##+**+#%@#>9i91@@@@@@@@@@O@@@@#",
"8888685855858588858qau,5000qqqrrrrrttrtuttuaft4ruauaauauaaaaaaaa",
"5444445455555855558qau:300000qqqrrrrrttrrrruar38uuuaaaaaaaaaaaaa",
"32233444555555555588au:30000qqqqqrrrturtrrtua838uuuaaauaaaaaaaaa",
"<2232444545454556588ar:2880000qq0rqrrrrttttua838uuuuuuaauauaaaaa",
"22234445444545446588ir>2880880q00qqrrrrrrrrua828uuuuuuuuuaaauaua",
"<2224445444555556468ur>388800000q000rrrrqqruu8<8tuuuuuuuuuuuuaau",
"22234444545555556466iu>488888000000r0qrrqqqtu828ttuuuuuuuuuuuuuu",
"22444445545555566468uu>4888880008000rqqrrrquaq48rutuuuuuuuuauuau",
"*****%$$**$*%#%$%%%;8u8=%%%%%%$$#%$#$*****%*4t8:*$$$$$$$$**$$$**",
"#$$$$*%$#-$-*#*%$%%%>3>$##$%$$$#*%#$$$$O%%%*:2<*$$$$$$$$*$$$$$$$",
"rrttuuuuusisfisaaffaffffffffffffzffzvvvzjzzjjvvzzzzzzzzzvzjjzjff",
"856664688t45urtqruauruuuipppppppu08ajzjzjjzfjjzjzzzvzvvvr0ujnnnM",
"424543386r-=8885488888q8q00qqqqqr2>5ruruuuuuuaauiauaafaf$*4afjjz",
"*$*--*;<8r%+24222223444355433566u6<480888888qr8888888880$:8rr080",
".OO@+O#=5u%O:<:2222244443333356684<<58868880888800q8q000O:80qrrr",
"@OO##O#-2t*.=**><<:<22443322233585<<58q50808858800000888$2000rrq",
".O.+oo#%6q&o+.o###%&&;;;;;;3,,3q55*=86688560056q89998909$>27weww",
"@OO++o+#30&.ooooo@@ooooo$#@&&&&,08%*56668868665688999979$177ww99",
"+OO+o.o%;8&.+oo o@@o@@o@#oo#oo%;84++<5664555680678887777O:45wwww",
"+..+o.oo&0;.+@#X@ooooo@o#ooooo#%80%%<2332222366377775775$175797w",
"$$#%###%.,&.  X @@@@ooXoooo@ooo#:<# o......X....OOOOOOOOO**##@O@",
"$####@#&#6,;-&;-@##$%%--%&&;;&&&=6:%;&%%&&*=&&&;****$***:21*%***",
"yyyuutqu0sqquqyyiiasgdghhhhhhhkhizfshhhhhfjlzffzjzzzzkzkjvkjkxzx",
"455654563q33q800qqq64322uiyqqpiiqguyaapufppsq,3rjjjjjjjjjzzjxvxz",
";;-;;;;;;;;;,;;,;,-;%2;X,,,,2222222233336235,q;.4444454566555555",
"XXooXXXXoooo.XXXX@X@o,-X .........oooooo...#o,&..OOO.O..O.O..O.O",
"@+@@@+@@ooooooooXo +o,-XXooooooooooo.####.oo#5;#O.OO..O.........",
"@oo@o++o@@o+@o@+@#O#o,-.@@@@@++##+########o#.3;.+OOOOO@@OOOOOOOO",
"XXXXXXXXXXXXXXXoXo +o,-XXoXXoo....#..#..oooo.3;...OO..O.OOO.....",
"@++@@@@@@@@@@+o@ X +X,- ++@+++o+##.##.##oo#o+5;.+...++.O...+OOOO",
"oXoXXXoXXXXXXXXX+@X@X;- +ooooo...#o..#..oo...2&.................",
"XXooooXXoooooooo o +o,-X++++ooo.#..#...#o....3:+..+.....+..+O..O"
};
