/* XPM */
static char *zalis1694913268[] = {
/* columns rows colors chars-per-pixel */
"64 64 105 2 ",
"   c #050503",
".  c #070805",
"X  c #080806",
"o  c #06050A",
"O  c #08070C",
"+  c #07080B",
"@  c #0A0B0A",
"#  c #10100E",
"$  c #0E0E11",
"%  c #100F14",
"&  c #0F1013",
"*  c #121213",
"=  c #191917",
"-  c #15151A",
";  c #18171C",
":  c #1B1B1C",
">  c #161421",
",  c #1C1C22",
"<  c #1F1D28",
"1  c #1F2024",
"2  c #222224",
"3  c #25252B",
"4  c #28272D",
"5  c #27282C",
"6  c #2B2B2C",
"7  c #262630",
"8  c #2D2D34",
"9  c #353534",
"0  c #393937",
"q  c #35353A",
"w  c #3B3B3B",
"e  c #40413E",
"r  c #3D3D43",
"t  c #403F45",
"y  c #3F4045",
"u  c #434343",
"i  c #484846",
"p  c #45444A",
"a  c #4B4B4B",
"s  c #50504E",
"d  c #4D4D54",
"f  c #4F4F59",
"g  c #555454",
"h  c #585856",
"j  c #55565C",
"k  c #58575D",
"l  c #57585D",
"z  c #5C5C5C",
"x  c #61615F",
"c  c #5C5D63",
"v  c #5F5D68",
"b  c #646462",
"n  c #696967",
"m  c #62626B",
"M  c #6C6C6B",
"N  c #71716F",
"B  c #6A6A73",
"V  c #6F6F7A",
"C  c #6F7075",
"Z  c #747473",
"A  c #797977",
"S  c #74747D",
"D  c #7C7C7C",
"F  c #81817F",
"G  c #7D7D84",
"H  c #817F8C",
"J  c #7F8085",
"K  c #848483",
"L  c #888886",
"P  c #84858C",
"I  c #87888D",
"U  c #8C8C8B",
"Y  c #878793",
"T  c #898796",
"R  c #8B8B94",
"E  c #8D8C9A",
"W  c #908F9D",
"Q  c #939395",
"!  c #93939C",
"~  c #97989D",
"^  c #9C9C9B",
"/  c #9594A1",
"(  c #9897A6",
")  c #9A9AA5",
"_  c #9E9DAA",
"`  c #A3A3A3",
"'  c #A2A2AC",
"]  c #A8A8AA",
"[  c #A6A6B1",
"{  c #ABABB5",
"}  c #B5B5B4",
"|  c #B2B2B9",
" . c #BCBCBC",
".. c #B5B5C2",
"X. c #BABAC5",
"o. c #BFBFC9",
"O. c #C3C3C2",
"+. c #C7C7C9",
"@. c #CDCDCC",
"#. c #CCCCD4",
"$. c #D4D4D4",
"%. c #D5D4D9",
"&. c #DAD9DC",
"*. c #DEDDE4",
"=. c #E4E3EB",
/* pixels */
"I #.X.X.o.o...X.X.................{ X.J J ..[ [ ' [ ' ) ` ' ` ~ Q S m l l f y y q $ { | 2 4 2 , : : = = # # # # # # # # # # # # ",
"m | ' ' [ ' _ ' ) ) ( ( ( ( ( ( _ W _ G B / / J / ~ ~ ! ~ ~ J B q 1 & & & + + + %   / ~ o @ O O # @ @ X X @ @ @ X X X X X X X X ",
"m | { { { [ ' { [ _ _ _ ( ( ( _ _ / _ G G ( / / E Q Q Q ~ J C d 8 2 = - : = - - @ X ' ~   O @ @ @ . . X X X @ @ X X X X X X X X ",
"c | { { { [ [ [ ' _ _ _ _ ( ( ( _ W ) V m ( / W ! ! Q E J J c y 1 = = * * @ @ # @ X ] U   O $ O @ @ @ @ @ @ @ X X X @ @ X @ X X ",
"c { ' ' ' ' _ ' _ ( ( ( / / / W / J ) B m ! R R J ~ ~ J J m y 5 1 : = - * & $ & X o ` D   @ O   # @ @ X . X X X X X X X X X X X ",
"j { ' _ _ ' _ ' _ _ _ ( ( / ( / ) W _ V m ~ Q ! Q ! J J b y 1 & * * & # & + @ $ @ O ` G X * & @ X @ X X X X X X X   . X X X . X ",
"p ' _ _ ) ) ) ) ( ( / W / W W W ! R ) B c R R R E J J c y 5 - & & & # $ # @ # $ X   ) Z X X O + @ @ @ @ X @ @ @ X X X X X X X X ",
"r _ ' ' ) ) ) _ _ ( ( ( / W / / ! W _ V c J J R J C j q 1 & - - & # $ @ @ $ $ @     ` C O   X O @ @ X X X X X . X X . X X . X X ",
"q _ ' ( _ W ( _ / ( / / W / W W ! J _ m m I J l m j 0 1 - & * & # @ # $ # @ # @ @   ^ N   @   X X X X   X X X X   X X   X X   X ",
"8 / _ W _ _ _ ( ( ( / / W W W W ~ R ) l m J C y y 0 1 - # & & + # $ $ @ # @ @ @ @   ` M   @ X X X X X X X X   X X     X X     X ",
"1 W _ W _ _ _ ( ( / / W W W W W ! R ~ f c J c 1 6 1 - & & & & + # @ @ @ @ @ @ @ X   ^ b   X X . X X X X X X X X X   X X X X X X ",
"- G / ( _ ( ( ( ( / W E E E W W R R ~ y c I y & 1 : & & & & # @ @ # @ @ @ @ @ @ X   ^ z   @ . . X X X X X X X X   X X       X   ",
"- f B J _ ( ( [ ( ( W E T E E E J Q ~ y m I w + & & & + $ @ @ + @ @ @ @ @ @ @ @ X   ^ g   . . X X   X X X X X X X     X X X   X ",
"> 1 8 f G J J [ / ( W E E T E E R Q R q c J 5 + & & + + @ @ # @ @ @ @ @ @ . . @     ^ i   . . X X X X X   X X X   X X     X   X ",
"> & > 7 d v G J W / W E E E J E R J J 1 l J 1 + & & & + $ $ @ $ @ @ @ @ @ @ @ @     ^ e       . X X X X X X X X X X X X   X X   ",
"$ - > > > r d G W W W E E W J E J D C - l J 1 + # + & + @ @ +   @ @ . @ . . . .     ^ e     . . X X X X X X X X X     X X   X X ",
"& & # & & = 5 w B G R / T H T R H w 9 $ d K @ * @ @ O @ @ @ @ @ + X O X X @ @ @   @ ^ s   @ @                   X X   @ X X     ",
"# + @ # * * ; , 7 r B T W W T H g 6 6   n L @   O   @ @ O @ + X @ @ O X X X     @   K 9 @     * X X @ @ @ X X @ X X X X @ X X X ",
"# @ @ @ * $ $ $ 3 q c H E E H B 3 , 2   B M @ - @ @ @ + @ @ +   @ @ X X O O @ @ X X ` 8 @ @   O     X X                     X X ",
"            O O     O - < < ; o         N g                                       X K 2                                         ",
"0 e i i p a g l v k k c c v v k b M M n Q Q b Z A A A A D D K D D K K F K K D K U n ' U K M A A A A Z Z Z Z N N M n n n b b x x ",
"} O.@.$.$.$.&.&.&.%.*.*.*.*.=.*.+.%.@.^ ` $.O.$.+.O. . . . .} | ^ ) ^ ^ Q Q Q Q P n } ^ S M B M n n n n n x x x x b x z l z h h ",
"* : 3 6 6 6 6 6 q q t t t t p p u 9 2 X l A 6 = , : = * * @ X                       U 0                                         ",
". @ X     @ O   O   o o o % , , O   $   M g   * @     X @ O O X X X @   O X @ @ *   ] 9   o   * @ @ @ @ X @ X X X X X @   X X   ",
"@ @ @ @ @ * & * $ $ $ * * * - - - @ @   n n   $ @ @ @ X @ + @ @ X O @ X @ @ + @ X   ! w   @ X X X X X X X X X X . .   X     X X ",
"@ @ X X @ $ @ @ @ $ @ $ # # % * $ @ *   n b   O @ @ O O @ @ @ @ O X @ O X O X X X   Q w   X O X   X X X X X X X . . X X X . X   ",
"@ X X X @ @ @ @ @ @ @ @ @ # # @ O @ $   b x   + + @ @ @ @ @ @ @ + X + X O X O @ X   ~ w   X X X X X X X   X X X . .     X     X ",
"@ @ X X @ @ @ @ @ $ @ @ @ @ @ @ @ @ @   z l   X @ @ @ @ O X X @ @ @ @ X @ @ X @     Q 0     O X X X X X X X X X . . X . X X   X ",
"O @ X O O @ O @ @ $ @ @ @ @ @ @ @ @ O   h l   @ X @ X O + @ + @ O X X @ + @ X X X   R 0   @ @ X X X X X X X X X   X X X   X X   ",
"@ @ X O @ @ @ @ @ @ @ @ @ @ @ @ @ @ @   z z   O X X O X X X X + @ X @ + @ X @ O     U 0   @ @ @ X X X X X X X   X X     X   X X ",
"$ @ X X @ @ @ @ @ @ X @ @ @ @ X X X $   b n   X X O X X X + X O @ X O @ X @ @ X @   U 9   X @ X X X X   X X X X   X   X X     X ",
"@ @ X X O @ @ X @ X X @ X X @ @   X O   n n     X X X O X O X X @ O X X @ + @ O     R 9   X X X X X X X X X X X   X X X   X X   ",
"@ X X X X X X X X X X X X X X X @ @     N Z   X X X X X X X X X   @ @ X X X X X @   K 0     @ X X   X X   X X   X X X   X X   X ",
"@ X     X X X X X X X X X X X X X X @   M Z   X   X X X X X X X X     X   X X X X   L 9     @ X   X X   X X   X X   X     X X   ",
"@ @   X X X X   X X X X X X X X X @ X   N Z     X X X X   X X X X X X X X X X X X   L 0       X . . . . X     X     X X   X X   ",
"@ X X X X X X X   X X X   X X   X X X   M N   X X X X X X X X X X X X X   X X X X   K 0     X   . . . .   X X   X X   X X   X X ",
"@ . . . X X X   X X X X X X X X X X @   M M   X X X X X X X X X X X X X X X X X X   K 0     X X   X   X   X X X X X X   X   X X ",
"@ @ X . X X X X X X X X X X X X   X     n M   X X X X X X X   X   X X X X X X X     K 9     X     X X X   X   X     X X   X X   ",
"@ X . . X X X     X X X X X X X   X X   n M   @ X X X X X X X X @ X X X X   X X X   K 9     X   X .     X X   X X   X     X X   ",
"@ X X . X @ X X X X X X X X X     X     b n   @ X X   X X X X X X X X X X X X X     K 9           X X .   X X   X X X   X X   X ",
"@ @ X . X X X X   X X   @ @ X @ @ @ X   z D   # X X @     X   X X   @ X   @ X       K 9     @   @   X X @ X @ @ X X X X X X @ X ",
"                                        s N                                         b 0                                         ",
"F F F K L U L U L L L K D F D F A n A n U ^ b b N M M n n M M M M n n n M M M n n h U L z z b h b x b b z b x b x b x x x x l z ",
"F F F L U U U L K K K F K K K F A Z A n Q ` K L U U U L L L L L Z Z Z A Z Z Z Z Z h ^ U M M n b b b b b b b b x x b b x x x x x ",
"                                        x h # @                                 .   A 9                                         ",
"@ @ X X @ @     @ @ X @   @   @   @ @   A x     X         X   X X   X @     X @     ^ 9       @ @ @ @   @ @   @ X @ X @ @ @ @ @ ",
"          X     X X X               #   M b   *   X X X   X X @     X       X       D 9   *                                     ",
"X         X @ X       X   X @ X @   *   M M     X X X X         X X X X X X X X @ @ N e       X X       X X X X @               ",
"X       X X X X X     X     X X   X @   n n       X   X X   X . X X X X X X X X     N w   . @   X   X X   X     X X X   X X   X ",
"X X       X X     X X X X X X     X X   M M   X     X X X .     X . X X X X X X X   A w   . @     X X   X X X X X   X     X X   ",
"X       X X X X X X X   X     X   X     M M   @   X   X X . .   X X X X X X X X     Z w     @ .   X X   X     X     X X   X X   ",
"X X       X X   X     X X X   X         M M         X X X . . . . . . . X     X     Z w     X . X X   X   X X   X X   X X   X X ",
"X X     . . X .   X X     X X   X X X   M n   X X X X X X   .   . . .   X   X X X   N w .   X X   X X .   X X X X X X   X   X X ",
"X X     . X . . X X   X X   X X     X   M n   @       X X X X .     .     X     @   Z u X   X X . .   X X     X     X X   X X   ",
"X X     . X X .   X   X X     X   X     M M         X X X X       X                 Z e X X X X . . . X X .   X X   X     X   X ",
"X X     . X X .   X X X   X X       X   M M   X X X X X X   X         . X       @   Z i X   X X . . .     X X   X X X   X X   X ",
"  . . .           X     X X             z Z                                       X n s   X   @ X X X       . X       X   X X X ",
". .                   X       X         b N                                         n g   X   X X   X   X X   X X       X X X   ",
".   . .           X       X             b Z                                         M z     X     X   X       X                 ",
"  X   .   .                             b N                                         N x     @     X       X X               X   ",
"X X                                     b M   X                                 X   M x   @ @   X             X                 ",
"X     X                                 z n                                     X   n g   @ @                             X   X ",
"  X                                     h n                                     X   z i   @ X                 X       X   X X   ",
"X X   X                                 h n                                     .   g e   @                           X X X X X "
};
