/* XPM */
static char *zos1694914108[] = {
/* columns rows colors chars-per-pixel */
"64 64 126 2 ",
"   c #0F0F11",
".  c #101012",
"X  c #111113",
"o  c #121214",
"O  c #131315",
"+  c #141416",
"@  c #151517",
"#  c #161618",
"$  c #171719",
"%  c #18181A",
"&  c #19191B",
"*  c #1A1A1C",
"=  c #1B1B1D",
"-  c #1C1C1E",
";  c #1D1D1F",
":  c #1E1E20",
">  c #1F1F21",
",  c #202022",
"<  c #212123",
"1  c #222224",
"2  c #232325",
"3  c #242426",
"4  c #252527",
"5  c #262628",
"6  c #272729",
"7  c #28282A",
"8  c #29292B",
"9  c #2A2A2C",
"0  c #2B2B2D",
"q  c #2C2C2E",
"w  c #2D2D2F",
"e  c #2E2E30",
"r  c #2F2F31",
"t  c #303032",
"y  c #313133",
"u  c #323234",
"i  c #333335",
"p  c #343436",
"a  c #353537",
"s  c #363638",
"d  c #373739",
"f  c #38383A",
"g  c #39393B",
"h  c #3A3A3C",
"j  c #3B3B3D",
"k  c #3E3E40",
"l  c #3F3F41",
"z  c #404042",
"x  c #414143",
"c  c #434345",
"v  c #474749",
"b  c #49494B",
"n  c #4B4B4D",
"m  c #4C4C4E",
"M  c #4D4D4F",
"N  c #4E4E50",
"B  c #505052",
"V  c #515153",
"C  c #525254",
"Z  c #535355",
"A  c #545456",
"S  c #555557",
"D  c #565658",
"F  c #575759",
"G  c #58585A",
"H  c #59595B",
"J  c #5A5A5C",
"K  c #5B5B5D",
"L  c #5C5C5E",
"P  c #5D5D5F",
"I  c #5E5E60",
"U  c #5F5F61",
"Y  c #606062",
"T  c #616163",
"R  c #626264",
"E  c #636365",
"W  c #646466",
"Q  c #656567",
"!  c #666668",
"~  c #676769",
"^  c #68686A",
"/  c #69696B",
"(  c #6A6A6C",
")  c #6B6B6D",
"_  c #6C6C6E",
"`  c #6D6D6F",
"'  c #6E6E70",
"]  c #6F6F71",
"[  c #707072",
"{  c #717173",
"}  c #727274",
"|  c #737375",
" . c #747476",
".. c #757577",
"X. c #767678",
"o. c #777779",
"O. c #78787A",
"+. c #79797B",
"@. c #7A7A7C",
"#. c #7B7B7D",
"$. c #7C7C7E",
"%. c #7D7D7F",
"&. c #7E7E80",
"*. c #7F7F81",
"=. c #808082",
"-. c #818183",
";. c #828284",
":. c #838385",
">. c #848486",
",. c #858587",
"<. c #868688",
"1. c #878789",
"2. c #88888A",
"3. c #89898B",
"4. c #8A8A8C",
"5. c #8B8B8D",
"6. c #8C8C8E",
"7. c #8E8E90",
"8. c #8F8F91",
"9. c #909092",
"0. c #929294",
"q. c #939395",
"w. c #959597",
"e. c #969698",
"r. c #9E9EA0",
"t. c #A2A2A4",
/* pixels */
"6 6 6 6 6 6 6 6 6 6 6 6 6 6 6 6 2 4 2 r 3.9 2 6 6 6 6 6 6 6 6 6 6 6 6 6 6 6 6 6 2 2 2 4 * H :.2 7 7 9 7 7 7 7 6 6 4 6 4 6 4 6 4 ",
"2 2 2 2 2 2 2 2 4 4 4 4 4 4 4 4 2 2 < q 3.9 2 4 2 2 2 2 2 2 2 2 4 4 4 4 4 4 4 4 4 < 4 4 * H :.< 4 4 4 4 2 4 2 2 2 4 2 4 2 4 2 4 ",
"< < < < < < < < 2 2 2 2 2 2 2 2 < < 2 9 <.7 < 4 < < < < < < < < 2 2 2 2 2 2 2 2 2 2 2 2 * H :.2 2 2 < 2 < < < < 2 < 2 < < 2 2 < ",
"2 2 2 2 2 2 2 2 2 < 2 < < 2 < 2 2 < < q 3.7 < 4 2 2 2 2 2 2 2 2 < 2 < 2 2 < 2 < 4 < 2 4 * J -.< 4 2 4 2 2 2 2 2 < < < < < < < < ",
"2 2 2 2 2 2 2 2 < 2 < 2 2 < 2 < 2 2 < q 3.9 2 4 2 2 2 2 2 2 2 2 2 < 2 < < 2 < 2 2 < 2 2 % H :.< 4 4 4 4 4 2 2 4 < 2 < 2 2 < 2 < ",
"< 2 < 2 < 2 < 2 2 2 2 2 2 2 2 2 2 2 2 9 <.9 < 6 2 < 2 < 2 < 2 < 2 2 2 2 2 2 2 2 2 > 2 2 * F -.> 4 2 2 2 2 2 2 < 2 2 2 2 2 2 2 2 ",
"2 < 2 < 2 < 2 < 2 < 2 < < 2 2 < < < < q 3.7 < 2 < 2 < 2 < 2 < 2 < 2 < 2 2 < < 2 < < < 2 % H -.< 2 2 2 2 2 2 < 2 2 2 2 2 2 2 2 2 ",
"2 2 2 2 2 2 2 2 < < < < < < < < > < > 7 ,.7 > 2 2 2 2 2 2 2 2 2 < < < < < < < < 2 > 2 4 % F -.> 4 4 4 4 4 2 2 2 < 2 < 2 < 2 < 2 ",
"< 4 < 4 4 * 2 2 < 2 < ; ; > < < > 6 > 2 <.4 < 6 4 2 2 2 4 4 2 < * 2 < > 4 2 2 < > ; > 6 + B 3.< 4 4 4 2 2 < < > 2 < ; > > > 7 < ",
"2 2 * ; < > 2 < < 2 2 < < 2 2 2 > < * 9 6.4 > 4 < < < < < 2 > ; 4 4 2 ; > > ; > > 2 < > X B *.+ 2 2 < < < > > > > 2 4 6 < ; < < ",
"4 4 ; ; 4 4 > > < < > < < 2 < 2 2 * ; s 3.q < 6 4 2 2 2 4 2 < < < > < 2 < 2 ; < ; 4 2 < ; P :.< 4 4 4 4 2 2 2 2 2 4 < 4 < 2 < < ",
"% > > $ > ;   * * $ $ * * % % % > % % 9 ! 6 * > > * * ; ; ; ; % X $ $ > % 4 + ; O % ; * % m ( 4 > ; ; ; ; * * ; < + X % + 4 % ; ",
"H U E F P P Z @.E U P Y E U P U J Y Y U *.U P U P P J U U P P H Y o.P U P E J Y U F J U S / @.H J J P P P J J J P S ! | H W H U ",
"y y s 7 r y s $.z s y s f p u s y s f r p y u u u y r y u y r r Z ,.h u y u u s s q y p 9 q u 9 y y r r r r y r 9 q W ..q p q s ",
"< * < + < ; 4 *.r 2 * > < ; * < < ; < > % > > > > > ; > > > ; * c w.6 * 2 * 2 < < % < < > < > > ; ; ; ; ; ; ; > ; $ E +.+ < ; < ",
"2 % 2 < q 2 < :.s 7 < 2 4 > < 4 7 ; < 9 2 6 < 6 2 2 < 2 4 2 2 < p t.2 ; q < 6 > 2 > 2 ; 2 7 < < 2 2 2 2 2 4 2 4 q O J +.+ 7 6 2 ",
"2 2 < 2 2 2 2 *.f < < 2 2 6 < 2 2 2 2 2 2 2 2 2 < 4 2 < < 4 2 ; k 8.9 < 6 < 2 4 4 2 2 2 2 2 < 2 2 < 2 < 2 < 2 < 2 % J ..* 4 2 2 ",
"< 2 > 2 2 2 < *.s > < 2 < 6 < 2 2 2 2 2 2 2 2 2 2 2 2 < 2 4 2 > k 9.9 < 6 < 2 2 2 4 2 2 2 < 2 < < 2 < 2 < 2 < 2 2 * J ..* 6 < 2 ",
"2 < < 2 2 2 < *.f < 2 2 2 6 > 2 2 2 2 2 2 2 2 2 < 2 2 < < 2 2 ; k 8.9 2 6 < 2 4 2 2 2 2 2 < < 2 < 2 2 < 2 < < 2 2 * J ..* 4 2 2 ",
"< 2 > < 2 2 < *.f < < 2 < 6 < < 2 < 2 < < 2 < 2 < 2 < > < 4 < ; k 8.9 < 6 < 2 2 2 2 2 2 < 2 < < < < < < < < < < < * J ..* 6 < 2 ",
"< < > 2 < 2 < $.h < < 2 2 4 > 2 < 2 < 2 2 < 2 < < < 2 > < 2 < ; k 8.9 2 6 < 2 4 2 2 2 < 2 < < < < < < < < < < < 2 * J ..* 4 2 2 ",
"< < > < 2 < < *.h > 2 2 < 6 > < < < < < < < < < < < < > < 2 < ; k 8.9 < 6 < 2 2 2 < < 2 < < < < > < > < > < > < < * J ..* 6 < 2 ",
"< < ; < 2 < > $.h 2 2 2 < 4 > < < < < < < < < < > 2 < > > 2 < * k 8.9 2 6 < 2 4 < 2 2 < < < > < < > < > < > < > 2 % J ..* 4 2 2 ",
"< < > < < < > *.h < 2 2 < 4 > < < < < < < < < < < < < > < 2 < ; k 8.9 < 6 < 2 2 2 < < < < > < > > < > < > < > < 2 * J ..* 6 < 2 ",
"; 4 O $ 6 O > { 9 4 * * * ; ; * % > ; X O X ; * % $ % % % % % $ r ..7 * < > 6 + > > % ; > + O ; ; % % * % * % ; O > m E > ; 2 % ",
"E ] ! W ] U J :._ ! Y U E W E Y Y U E W :.! ! ( / / ! / ! / / / / e.Y W / W ( ! W ( W E / @.*.W ! / ! W ! W / ! ! E { :.P ! / U ",
"6 u y r s u 9 7 r q 7 9 q r r q y 4 9 h *.h y p y y u y y y y y 6 s 4 u p q q p q p y 7 r E ..r y r r r y r y r s 9 6 r 2 y y 7 ",
"* ; > * > 6 6 % > ; ; < < 2 > ; 4 * > q 3.9 > > ; > ; > ; > ; > > + * 6 2 < * 2 > < < * * Y *.> < > > > ; > > > ; < ; > ; ; ; < ",
"q < 2 2 > < 6 > 2 2 2 4 4 2 2 < 4 4 2 7 6.9 4 > 2 < 2 < 2 < 2 < 7 * 9 4 > 4 < > 2 < < 4 * J 5.> 4 6 4 4 4 4 4 6 ; 6 6 4 7 < ; 2 ",
"6 > 4 7 < > 2 2 2 2 2 2 2 2 < < < 7 < 7 <.7 7 2 2 2 2 2 2 2 2 2 6 < q ; < 2 6 < 4 < > 7 * S <.> 4 4 4 2 4 2 4 4 4 2 < % 9 4 < > ",
"; < 2 4 2 < 2 4 2 2 2 < < < < < > 2 * u ,.6 7 2 < < < < < < < < 2 < 4 ; 7 ; 6 2 2 2 > 9 ; Z 3.; 2 2 < < < 2 2 2 7 > < % 6 < 4 > ",
"< q 7 ; < 2 < < < 2 2 2 2 < 4 4 4 2 + z <.4 6 > 2 2 2 2 2 2 2 2 < < > ; y $ 4 4 > 6 ; 6 ; S 5.* 6 4 2 4 2 4 4 4 2 * q < 6 * 9 2 ",
"> 6 < $ > 4 2 2 > 2 4 4 2 2 4 4 2 2 O p -.9 q > 2 2 2 4 4 2 < < 2 7 * < 4 ; 2 4 % q * < < Z :.; 4 2 2 2 2 < 2 < 2 < 7 9 < > 2 2 ",
"4 6 6 6 4 4 2 2 > < 2 2 < > < 2 4 4 % y ,.4 7 < < < < < < > < > > 6 4 < < < < * < q 2 7 2 Z ,.2 < 2 2 < < < > < 4 < * > < 6 4 < ",
"2 % * 2 * * > ; < 2 2 2 < < < 2 4 4 < y 6.2 2 6 2 2 2 2 2 < < < ; * 7 < * 6 4 * * ; % < + n $.; 2 4 2 2 2 2 2 < 2 2 * * 6 6 > > ",
"9 < 2 2 > 4 7 4 ; > > ; ; > > < ; > > 7 5.< ; < > > < > < > > ; 2 $ 2 ; $ < > < 2 < 2 4 * P 3.< < < < < < > < < % 4 2 > < * $ > ",
"< < < * ; 2 2 + 2 < > < < 4 4 4 2 2 4 q <.r 2 4 4 4 4 4 4 2 2 2 q > 6 7 4 < > 4 ; > < * % P *.> 6 4 6 4 4 4 4 2 2 7 4 4 4 2 2 4 ",
"* 6 4 < 6 2 % ; > ; ; * ; > > < < * > 6 ! 9 2 ; ; > ; > > ; ; * + > X > 7 % * ; < 4 4 > ; Z ( > ; > ; > ; ; ; ; < + + % + > 4 * ",
"U ( W E _ P P 3.| { _ _ _ { ] ] ] _ ] { 8.{ { _ _ ( _ _ ( _ ( / W 9.W ! o.W { / ! W ! ! E ..,.E ( / ( / / / / / / Y o.-.! / ..W ",
"6 y < < y * 7 *.p y q 9 q 9 9 7 9 7 7 6 9 < 6 6 6 6 6 6 6 6 4 4 b :.f < y ; y < q 6 7 r 6 > 6 6 6 4 4 4 4 2 2 2 < 7 U / u 4 u 4 ",
"< 2 < 4 2 2 2 -.f < 2 2 2 4 < < 2 < 2 < 2 < 2 < < < < > < 4 2 ; z 9.9 < 6 < 2 < 2 2 2 < 2 < < < 2 < 2 < 2 < 2 < < * J ..* 4 2 2 ",
"< 2 2 2 4 2 2 :.f < < 2 < 6 > 2 < 2 < 2 < 2 < 2 > 2 < < < 2 < > c 8.9 < 6 < < < 2 2 < 2 < 2 < < < 2 < 2 < 2 < 2 2 * H ..* 6 < 2 ",
"< 2 2 4 2 2 2 -.f < 2 2 2 4 < < 2 < 2 < 2 < 2 < < < < > < 2 2 ; z 9.9 < 6 2 2 2 2 2 2 < 2 < < < 2 < 2 < 2 < 2 < < * J ..* 4 2 2 ",
"< 2 < 2 2 2 2 -.f < < 2 < 6 > 2 < 2 < 2 < 2 < 2 > 2 < < < 4 < > z 8.9 > 6 < 2 < 2 2 < 2 < 2 < < < < < < < < < < 2 % J o.* 6 < 2 ",
"> 2 < 2 2 2 < -.f < 2 2 2 4 < < 2 < 2 < 2 < 2 < < < < > < 2 2 ; k 9.9 < 6 2 4 2 2 2 2 < 2 < < < < < < < < < < < 2 * J ..* 4 2 2 ",
"< < < 2 2 < 2 -.f < < 2 < 6 > 2 < 2 < 2 < 2 < 2 > 2 < < < 4 < > k 8.7 > 6 2 2 2 2 2 < 2 < 2 < < < > > < > < < > < * J ..* 6 < 2 ",
"> < < < 2 < < *.f < 2 2 2 4 < < 2 < 2 < 2 < 2 < < < < > < 4 2 ; k 6.9 < 7 2 4 4 2 2 2 < 2 < < < < > < > < > < > 2 % J ..* 4 2 2 ",
"> < > 2 < < < -.f < < 2 < 6 > 2 < 2 < 2 < 2 < 2 > 2 < < < 2 < > k 8.7 < 7 2 4 2 2 2 < 2 < 2 < < > < > < > < > < 2 * J ..* 6 < 2 ",
"; * < 4 < > $ $.s 7 > < 4 > > 2 7 $ 4 2 4 > > ; > < > < < > < > p e.< * q < 7 2 < < 4 < > < * > > ; > ; > ; > ; q X F o.+ q 7 > ",
"2 > ; ; ; 4 < *.u 6 > 2 4 > > 4 < ; ; > % < ; ; > ; > ; ; > ; > j 8.2 * < * < ; > * > < ; > > < > > > > > > > > $ X F ..+ 2 * > ",
"7 7 6 > 4 q 7 ] p 9 6 9 q 6 4 9 < 9 2 7 4 q 4 6 4 4 4 4 4 4 4 4 b @.u q q q 9 r 9 4 7 7 > 7 r < 6 6 6 6 6 6 6 6 4 2 H _ 6 r 6 y ",
"S H P Z J P B ..U H F J P H H J F J H Y @.E J P J J J H J J J J J | H P J Y S J J J P H Z ..:.S H H H H H H H H P Z U _ B U Z F ",
"* < 4 ; 6 > + 2 < > ; > < > > < 4 * 4 q ..9 2 2 2 < 2 < 2 < 2 < % ; * 2 ; 4 * < * < < * > J o.2 < > < > < > < > 9 ; $ * % 6 * > ",
"2 2 6 * 6 < < 2 > > < < < < > < 6 % < r 9.7 2 2 < 2 < 2 < 2 < 2 7 4 4 2 > 6 2 6 < 6 4 ; * E <.* < 2 < 2 < 2 < 2 6 6 4 6 4 6 4 6 ",
"6 4 4 ; 9 < 7 4 2 2 2 < < 2 4 2 4 2 < q w.7 2 4 4 2 4 2 4 2 4 2 4 2 < * * > ; < 9 9 6 6 % P 3.% 4 4 4 4 4 4 4 4 ; < 2 6 > ; < < ",
"2 ; < > q % 6 ; 2 2 2 > ; > 2 2 > q % 7 ,.q > 6 2 2 2 2 2 2 2 2 * 4 2 < 6 4 4 2 2 > < 7 % S <.2 2 2 2 2 2 2 2 2 4 2 < 2 2 < 7 ; ",
"2 4 2 2 2 2 2 < 2 2 2 2 2 2 2 2 < < 2 q 3.9 < 4 4 2 2 2 2 2 < 2 2 2 < 2 < 2 < 2 2 2 2 < % U ,.; 2 4 2 2 2 2 < 2 < 2 < 2 < 2 < 2 ",
"2 2 2 2 < 2 < 2 2 < 2 < < 2 2 < < 2 < 9 3.9 < 2 2 4 2 2 2 < 2 < 2 < 2 < 2 < 2 < 2 < < < * J :.> 4 2 2 2 2 2 2 < 2 2 2 2 2 2 2 2 ",
"2 < < 2 < < < < < < < < < < < < 2 < < q <.9 < 4 2 2 2 2 2 < < 2 < 2 < 2 2 < < 2 < < < < % J ,.> 2 4 2 2 2 2 < 2 < 2 < 2 2 < < 2 ",
"< 2 < < < < > < > < > < < > < > < < < 9 <.7 < 4 2 2 2 2 < 2 < < < < < < < < < < > > > < % J :.> 4 2 2 2 2 2 2 < < < < < < < < < ",
"2 < < < < > < > > < > < > < > < < < < 7 ,.6 > 4 2 2 2 < 2 < < < < < < < < < < < > ; < 2 $ F -.> 2 4 2 2 2 2 < 2 > > > > > > > > ",
"< 2 < 2 < < < < < > < > < > < > 2 < > 6 ,.6 < 4 2 < < 2 < < < < < > < > > < < > < ; > 2 $ Z $.< 4 2 2 2 2 2 2 < > > > > > > > > ",
"2 2 2 2 < 2 < 2 < < < < < < < < < < > 6 :.6 < 4 < 2 2 < < < > < > < > < > < > < 2 ; < 2 $ B @.> 2 4 2 2 2 2 < 2 > < > < > < > < ",
"4 2 4 2 2 2 2 < < < < < < < < < 2 < ; 6 :.6 > 4 2 < < < < > < > < > < > < > < > < > > 2 $ N +.; 4 2 2 2 2 2 2 < 2 < 2 < 2 < 2 < "
};
