/* XPM */
static char *zoz1694914108[] = {
/* columns rows colors chars-per-pixel */
"64 64 220 2 ",
"   c gray5",
".  c gray6",
"X  c #11100E",
"o  c #101010",
"O  c #111111",
"+  c gray7",
"@  c #131313",
"#  c #141311",
"$  c gray8",
"%  c #151515",
"&  c #161616",
"*  c gray9",
"=  c #181715",
"-  c #1A1917",
";  c #191718",
":  c #181818",
">  c #191919",
",  c #1A1819",
"<  c #1B1A18",
"1  c #1B191A",
"2  c gray10",
"3  c #1B1B1B",
"4  c #1C1B19",
"5  c #1C1A1B",
"6  c #1D1C1A",
"7  c #1E1D1B",
"8  c #1D1B1C",
"9  c gray11",
"0  c #1D1D1D",
"q  c #1E1C1D",
"w  c #1F1E1C",
"e  c #1F1D1E",
"r  c #1E1E1E",
"t  c gray12",
"y  c #201F1D",
"u  c #201E1F",
"i  c #21201E",
"p  c #22211F",
"a  c #211F20",
"s  c #202020",
"d  c gray13",
"f  c #222021",
"g  c #232220",
"h  c #232122",
"j  c #222222",
"k  c #232323",
"l  c #242321",
"z  c #242223",
"x  c #252422",
"c  c #262523",
"v  c #252324",
"b  c gray14",
"n  c #252525",
"m  c #262425",
"M  c #272624",
"N  c #272526",
"B  c gray15",
"V  c #272727",
"C  c #282725",
"Z  c #282627",
"A  c #292826",
"S  c #2A2927",
"D  c #292728",
"F  c #282828",
"G  c gray16",
"H  c #2A2829",
"J  c #2B2A28",
"K  c #2B292A",
"L  c #2A2A2A",
"P  c gray17",
"I  c #2C2B29",
"U  c #2C2A2B",
"Y  c #2D2C2A",
"T  c #2E2D2B",
"R  c #2D2B2C",
"E  c #2C2C2C",
"W  c #2D2D2D",
"Q  c #2F2E2C",
"!  c gray18",
"~  c #2F2F2F",
"^  c #302F2D",
"/  c #31302E",
"(  c #32312F",
")  c gray19",
"_  c #313131",
"`  c #323031",
"'  c #333230",
"]  c #333132",
"[  c #323232",
"{  c gray20",
"}  c #343331",
"|  c #343233",
" . c #353432",
".. c #363533",
"X. c #353334",
"o. c #343434",
"O. c #353535",
"+. c #363435",
"@. c #373634",
"#. c gray21",
"$. c #373737",
"%. c #383735",
"&. c #393836",
"*. c #3A3937",
"=. c #393738",
"-. c gray22",
";. c #393939",
":. c #3A3839",
">. c #3B3A38",
",. c #3A3A3A",
"<. c gray23",
"1. c #3C3B39",
"2. c #3C3A3B",
"3. c #3D3C3A",
"4. c #3E3D3B",
"5. c #3D3B3C",
"6. c #3C3C3C",
"7. c gray24",
"8. c #3F3E3C",
"9. c #3F3D3E",
"0. c #3E3E3E",
"q. c #3F3F3F",
"w. c #403F3D",
"e. c #403E3F",
"r. c #41403E",
"t. c #42413F",
"y. c #413F40",
"u. c gray25",
"i. c #424041",
"p. c #434240",
"a. c #434142",
"s. c gray26",
"d. c #434343",
"f. c #444341",
"g. c #454442",
"h. c #464543",
"j. c #454344",
"k. c #444444",
"l. c gray27",
"z. c #464445",
"x. c #474644",
"c. c #474546",
"v. c #464646",
"b. c gray28",
"n. c #484745",
"m. c #484647",
"M. c #494846",
"N. c #4A4947",
"B. c #494748",
"V. c #484848",
"C. c #494949",
"Z. c #4A4849",
"A. c #4B4A48",
"S. c #4B494A",
"D. c gray29",
"F. c #4B4B4B",
"G. c #4C4B49",
"H. c #4C4A4B",
"J. c #4D4C4A",
"K. c #4E4D4B",
"L. c #4D4B4C",
"P. c #4C4C4C",
"I. c gray30",
"U. c #4E4C4D",
"Y. c #4F4E4C",
"T. c #4F4D4E",
"R. c #4E4E4E",
"E. c gray31",
"W. c #504F4D",
"Q. c #504E4F",
"!. c #51504E",
"~. c #52514F",
"^. c #514F50",
"/. c #505050",
"(. c #515151",
"). c #525051",
"_. c #535152",
"`. c gray32",
"'. c #535353",
"]. c #545351",
"[. c #545253",
"{. c #555452",
"}. c #565553",
"|. c #555354",
" X c gray33",
".X c #555555",
"XX c #565455",
"oX c #575654",
"OX c #575556",
"+X c #565656",
"@X c gray34",
"#X c #595758",
"$X c gray35",
"%X c #5B5A58",
"&X c #5B595A",
"*X c #5A5A5A",
"=X c #5B5B5B",
"-X c #5C5B59",
";X c #5D5C5A",
":X c #5E5D5B",
">X c gray36",
",X c #5E5C5D",
"<X c gray37",
"1X c #5F5F5F",
"2X c #62615F",
"3X c #606060",
"4X c #626262",
"5X c gray40",
"6X c #6A6967",
"7X c #686868",
"8X c DimGray",
"9X c gray42",
"0X c #6D6C6A",
"qX c #6E6D6B",
"wX c #6D6D6D",
"eX c gray43",
"rX c #717171",
"tX c #727071",
"yX c #767676",
"uX c gray50",
/* pixels */
"0 0 s s s s b b b ~ ~ F b 0 [ E.k s t t s s t 9 t t t t t t t t s s s s s k s b b 0 k b [ <.7.@XuX6.F F V b 0 t s b k k b b b b ",
"3 3 3 0 3 3 0 0 0 s 0 0 0 3 b s.s s 0 t t s 0 9 0 0 0 0 0 0 0 0 t 0 t t s s s s b 0 s 0 k b k 7.=Xs 3 b s b k V s s s s t 0 0 0 ",
"3 3 3 3 3 * 3 3 0 0 0 3 3 * s 7.s s t 0 t s 0 0 9 9 9 9 9 9 9 9 9 0 0 0 0 t t 0 s 0 s 9 0 s s <.`.0 3 b k k s F b s s 0 3 3 3 3 ",
"3 0 3 3 3 3 3 0 0 0 3 3 0 0 b 7.s 0 0 0 t t t 0 9 9 9 9 9 9 9 9 0 0 0 0 0 0 0 0 t 0 b s b b b v.=Xb s P F b s k b k k s 0 9 3 3 ",
"3 3 3 3 0 0 0 s 3 3 * 3 0 3 b 7.s 0 9 0 t t 0 0 0 t 0 t 0 t 0 t t t t t 0 0 t 0 s s b s s t 0 <.4Xb 0 F F F k b k s s s s s s s ",
"3 * * 3 0 0 0 0 3 0 3 3 0 3 F v.0 9 9 9 0 t t 0 t t t t t t t t s s s s s s t s s 0 k 0 t t 0 #.8XP 0 b F P s k t s s t s s s s ",
"* 3 3 3 3 0 3 3 3 0 0 0 0 0 [ E.0 9 3 9 t t t 0 s s s s s s s s s s s s t s t t 0 3 t 9 k b s <.8X~ s ~ F F t s 0 s s s s s k s ",
"0 0 3 3 0 3 0 3 3 s 0 0 0 3 [ `.0 3 3 0 0 t 0 0 t t t t t t t t k s s t t 0 t 0 s 3 t 9 b b 0 o.@Xs t F b b s F s s s k s s k s ",
"0 0 0 0 0 0 0 s 3 3 0 0 * 0 #.E.s 3 3 t s s s k s s s s s s s s s s s s s s 0 0 k b t 0 b k b [ d.V 0 b b b b s k s s s s k s t ",
"0 0 0 0 0 0 0 0 * 3 0 0 * 3 [ s.s 3 3 9 s t 0 s t t s 0 t t t t 0 0 t t s s b b s s 9 9 s s k ) q.t * 3 s s b k s s 0 t s s s 0 ",
"s s 0 0 0 s 0 s 3 0 s s 3 0 ~ s.s 0 3 t s t 0 s t 0 0 t 0 t 0 t F b b k s b b b b V s s b s k ) F.b * 3 0 s s t k k s s k b k s ",
"0 0 3 3 3 0 3 0 3 3 0 0 * 3 ~ 7.t 3 : 3 0 9 9 0 s s s s s s t t s s 0 9 9 0 0 t k b 0 9 s 9 3 V v.s @ : 9 0 0 3 0 0 0 0 0 t t 0 ",
"0 0 0 0 0 0 s 0 s 0 0 3 3 0 [ s.k t 9 0 s t s k 0 3 3 0 0 s t s t t 0 t s s b V k b t t b k k ~ q.s * s b F F b s s s s b b b s ",
"3 3 3 3 * 3 3 3 3 3 3 * @ 3 F <.0 3 * : 3 3 0 0 3 : 3 3 3 0 t t s s s t t t 0 9 3 t 3 3 s 0 0 F 7.s : t t 3 0 0 t 0 0 0 t s s s ",
"0 3 3 3 3 3 3 0 3 3 0 3 3 3 b #.P b k V F ~ E [ <.<.-.#.o.o.[ ) F F P P F b b s s b 0 3 t 3 * s q.b 3 9 : @ * : s s t s k b b b ",
"F.v.F.v.v.F.v.F.s.s.v.v.v.v.F.+XwX7X5X8XwXwXrXyXwX9X5X3X$X`.E.F.P.E. X$X<X3X3X3X@X@X/.V.v.6.#.7.>Xk.<.q.7.7.v.P.E.E.F.E./.`.`./.",
"^ [ #.:.y.y.y.a.5.5.5.5.5.5.5.5.=.#.o.o.[ ) ) ) V k F k b V s <.$XV.k.V.s.7.s.7.-.-.-.#.-.-.-.-.-.-.<.7.7.7.<.<.<.7.7.<.<.6.<.<.",
"5 5 5 5 a u a 5 5 5 5 5 5 5 5 5 3 3 3 3 3 : 3 : 0 3 s 3 0 0 * ~ [ 0 : 3 : $ : @ * @ * * * @ * @ $ * * 3 3 : : * * 3 : * * * : $ ",
"z z a a a a 5 5 5 5 5 5 5 5 5 5 5 0 0 a s s 0 s 0 3 0 : 3 3 * ~ [ 3 @ : : : : @ : : 3 : : : : 3 : : 3 3 3 3 3 3 * 3 3 : : 3 3 : ",
"h a a a a a a u u a a a a a a a t t s s s s s s s 0 s 3 0 0 : ) -.t * 3 3 9 0 3 9 3 9 9 9 3 3 3 3 3 9 0 t 0 9 9 : 9 0 3 9 s t 0 ",
"a a u a a a a a u 5 u u 5 u 5 u 0 0 0 0 0 0 3 3 s 0 s 3 3 3 * ~ [ : . $ * * : @ * * $ * $ * * * * * * * * * : : @ 3 : : : 3 3 3 ",
"N z z N D D z a z a a a a z a a k k s s s s s s s 0 k 9 9 3 * ) [ 3 @ 3 : 3 3 : 3 3 : 3 3 3 : 3 : 3 3 3 3 3 3 0 3 t t 0 0 t t 9 ",
"a a a a z a a a u 5 5 u u 5 u 5 0 0 0 t t t 0 t b s b 0 t 0 * ) F $ @ * @ * * * * * * * * * * * : 3 : : : 3 3 3 3 0 0 3 3 0 0 3 ",
"a a a z N N N z a z z a z z z z t t s s k b b b s 0 k 9 0 9 * ~ V * @ 3 * * : : : : : : : : * * 3 3 3 3 3 3 3 0 9 s 0 3 3 9 3 3 ",
"a a a z N z z a 5 a a z z z z a s s k k k k b b s b s t s t s ) E : o : 3 : 3 3 3 3 * : * : 3 3 3 3 3 3 3 3 3 3 t 0 3 3 3 3 0 t ",
"z z z z z z a a a a z z z z a a 0 0 0 0 t s t t 9 s 0 9 s 0 0 F F * . * @ * : $ @ @ @ @ @ * * * @ * * : 3 3 3 0 0 0 3 3 3 3 3 0 ",
"D N D N D D z a N z N z z z z a k k b k b b b b s b s k b k s ) ) 3 @ 3 : 3 3 : : 3 : 3 3 3 3 3 0 0 0 0 0 0 0 0 9 0 9 9 9 9 9 9 ",
"z z a a a a a u a a 5 u 5 a a a s s s s s s k s 0 s 0 0 s 0 t ~ P : @ * $ $ : @ : : * * * * * $ 3 3 : 3 3 3 3 3 0 0 0 s t t 0 0 ",
"D N z z D N N z a a a z z z D D s s s s s s s s s b 0 3 t 0 s [ [ 3 * 3 3 : 3 : 3 3 : * * 3 3 0 : 3 3 3 0 t s s : : : 3 3 3 : : ",
"z a u a a a z a a a a a z z z z s s t t s s t 0 s b 3 3 9 3 0 ) ~ : @ 3 : : 3 : * $ @ @ $ : 3 0 3 3 3 3 3 3 3 3 s s s t s s s s ",
"u 5 5 1 a a a a z z z z z z a a V b V b b k k k s s s 0 s 3 9 F b @ . @ @ @ @ @ @ @ $ * * * $ $ : : * * $ @ @ @ @ @ . . . . @ @ ",
"y.y.y.y.y.a.B.a.^.^.^.^.^.S.B.a.`././././.E.E.P.s.v.d.d.v.7.<.v.q.P b ~ P P ) E #.-.<.<.-.[ ~ F b V F E [ #.<.<.E.P.F.F.V.F.F.E.",
"oX{.{.~.!.K.G.G...t.x.g.g.n.t.r.F.F.V.d.q.<.<.<.-.-.<.<.q.s.v.V.`.P.v.d.s.s.F.F.v.E.v.7.k.d.<.-.-.o.-.<.6.V.`.F.E.E.E./.`.`.`. X",
"C c c p p p i p = y i 6 6 i c c 0 t 0 0 3 3 3 3 : : : * : : : 3 : * @ @ o @ @ @ @ 3 @ o * 3 $ @ F t 9 3 * 3 0 : . . o @ @ @ @ @ ",
"i i i i i i i i i p p y 6 p T ( 3 3 0 0 t t t t 3 3 3 : : : : : 9 3 0 0 0 3 3 : * 0 3 : s k s s #.b s s 3 3 t : t 0 s 0 s s t s ",
"p i c p c c c M M A M i i C ( 1.k k k s k s k s t t t t 0 0 t t : 3 3 3 3 : * @ @ 3 * * 3 3 : 9 #.V k b s k b t 3 3 3 3 3 : : : ",
"i i i i i i i i i i i y 6 i T @.0 t t 3 3 3 3 3 3 3 3 : 3 3 0 t 0 0 0 0 0 9 0 0 t b s 0 k s t b #.k 0 t 3 : 3 * s s s s 0 0 t 0 ",
"A M M c c c p p p c C M c c ^ 1.k s k k k k k k t t t 0 t t t t : * * $ @ * * : 3 9 : : 0 : 3 b 7.b s s t 0 s 0 s 0 0 9 9 3 3 9 ",
"c p p p i i i i i i c M p i S 1.t t t s k k k k t t t 3 0 0 0 t s s s t s s 0 s s k s 0 k 0 9 F -.s 3 t 0 0 s s 0 9 0 9 3 9 3 3 ",
"p c p c c c c c M c M C p i T 1.s k k k s k k k s k s t s k k k 9 9 t 0 t 0 0 0 s k 0 0 t : 3 b 7.b 3 s t 3 0 3 t 0 0 t 0 0 t 0 ",
"M M c c c p p c i I p M p i ( ..s k k k k k b V s k b V b k s t 0 t t s s s k k 0 s 9 9 s 0 9 F u.F t s t s s 9 t t s t t t t t ",
"p i p p i i i i 6 M i p i 6 T ( s k k k b V V V s k k k k t t t 0 9 9 9 0 0 0 0 0 s 9 3 t 3 : s v.P s s 0 s s s 0 0 0 0 0 0 9 9 ",
"C M M M c M c p p I p c p p ..%.k k k k k V k b V V V V V V k b b b k k k s k s b F k k b s 0 b v.P 0 0 3 3 s 0 s s s s t t t t ",
"p c p p p p p p i M 4 i i i ..&.b b b V V V V V V V b s s t t s s s k s s s s s 0 s t t k 9 3 k v.P 0 0 3 9 t 0 0 9 0 3 3 3 : : ",
"A A C C A M M M M A y i p Z w.g.V F F F V F P F P V V V V b b z b V V b b k s k s b s k V s t F d.P s k s s s 0 s t t 0 0 0 0 0 ",
"M M M M c c c c M A 6 i c Z 3.t.k k k k k k k k b k b V k b k k s s s s s s s s s b t 0 b s t P q.V 0 s t t s 3 t t t 0 t s s s ",
"i i i i i i i 6 i p - i p p [ ' b b k k k k k b 3 t t k s s t t t 0 t 0 0 t t t s s 9 3 0 3 3 b u.b 9 0 0 0 s 0 : 3 3 3 3 3 0 9 ",
"1.1.1.&.&.&.&.&.%.r.%.w.t.3.n.s.) [ ) ) [ ) ) ) #.-.<.<.7.7.5.:.7.6.7.7.q.7.q.q.7.q.#.o.<.[ [ q.V.) s b k b E F ~ ) ) [ [ o.#.#.",
"{.!.K.x.g.g.N.N.N.N.g.t.t.t.t.g.B.B.B.B.B.B.S.B.^.|.,X|.&X#X^.tX2Xx.~.%X:X0XqX0X;X;X%X%X%X%X-X;X`.|.|.+X|.|.^.Q.^.^.U.U.U.^.|.#X",
"S A A C C A A I C M M p p c p c z a z z z z z a ; a z 5 a a 5 y.( X - 4 X 4 = X 4 4 4 4 6 y i p z z Z z z z a 5 5 5 1 5 5 5 a a ",
"c c A S S I A M C A A A A C A M D N N N z z z z z D D a N N z U.x.p M M p A c i 6 y 6 y i i i p 5 5 5 a 5 5 ; ; ; ; ; ; ; 1 5 5 ",
"M A S T I A C c A S T T ^ T T S K R K K D D D N a z z 5 z a a S.t.4 4 y 4 p p i y 6 4 4 4 4 4 4 a 0 a a a a 5 5 a a a a z z a a ",
"c c c M M c c c M C S I I S A C N N z z z a a a D K R N R D N ^.K.i i p 6 p p p c p p p i i i i 5 5 5 5 5 5 1 1 ; 1 5 5 5 5 5 1 ",
"M c M C A S T T S I T ^ ^ T T A K K R D D D D D z a z a z a 5 m.G.y y p y p p p 4 - 4 4 4 4 4 6 a a a a a z a a a a a a z a a a ",
"p p c c C M C C A C C A C C c p D N N N D N z N R K R D R z a U.N.4 4 p i C c M c p p p p p p c a a u 5 a u u a a u a a a a a u ",
"S T T T T S A M T T T T S A A C z N N N N N D N D z z a z 5 5 B.W.y 6 p y i y i c p i i y 6 y y a a a u a a a a a a a u u u u u ",
"T T ^ ^ T S S S T T T S A A M c D K D D D D D D z z z a N z a m.N.4 p i c y c p p p c p p c p p z z z z z a a z 5 a u u 5 a a u ",
"M A A A A C A C T I I I A A C M N N N N z N N z D N D a D z a B.K.y M i M y c c p p p p i i y y u u a a a a a a a a a a a a a a ",
"I I T T T T T T A S S A A A A C N N N z N z z z z N N a N a a B.K.6 c y p y p p M M M M c c c c z z z z z z z z a u u u u u a a ",
"M c M A S S A A C C A C C C C C D D D D D N D N N N D a D z a n.K.6 c y M y c c y y y y i i i i z a a a a a 5 u a a u u u u u u ",
"S A S T T ^ T S c M M M M C C C D D D N D D N N K K K z D D z U.W.y M c S c S S M c c c M h c h z a z z z z z z a a a a a a a a ",
"S A M A S T A M C C C C A A A A N D D N N N z N z z z a D z a B.K.6 M p M p C M S S A M M c p p a a a a z z z N a a a a a u a a ",
"c i i i c c p 6 I I I I S A S I D D D D N D N N z z z a z a y n.W.y C p M i M p i i i i i y y y u u a u a 5 u 5 a a a a a a a a ",
"r.1.&.1.3.w.1...^ ^ T ^ ^ T T T K R K K K K D K R K R z R D z W.;XS ( S T M S A ( ( ( @.&.1.5.w.y.y.5.5.=.| | | R R K R R R R R "
};
