/* XPM */
static char *zz1694913268[] = {
/* columns rows colors chars-per-pixel */
"64 64 70 1 ",
"  c #070705",
". c #0B0606",
"X c #090807",
"o c #0A0708",
"O c #0D0C0B",
"+ c #120D0D",
"@ c #11100E",
"# c #0E0D12",
"$ c #120F10",
"% c #141212",
"& c #191414",
"* c #191816",
"= c #161619",
"- c #1A1718",
"; c #1C1B1B",
": c #221D1D",
"> c #21211F",
", c #221F21",
"< c #252323",
"1 c #2A2525",
"2 c #292927",
"3 c #26252A",
"4 c #2A2728",
"5 c #2C2A2B",
"6 c #312C2D",
"7 c #31312F",
"8 c #2E2D32",
"9 c #342F30",
"0 c #343333",
"q c #383536",
"w c #383836",
"e c #36353A",
"r c #3B3738",
"t c #3C3B3B",
"y c #403C3D",
"u c #41413F",
"i c #3F3E43",
"p c #433F40",
"a c #434343",
"s c #484445",
"d c #454549",
"f c #48474C",
"g c #4C4B4C",
"h c #4D4C51",
"j c #504F55",
"k c #535354",
"l c #555459",
"z c #58575C",
"x c #5B5A5B",
"c c #5F5E63",
"v c #605F65",
"b c #636365",
"n c #656469",
"m c #6B6A6E",
"M c #6D6C72",
"N c #706F75",
"B c #737375",
"V c #757479",
"C c #78777D",
"Z c #7B7B7C",
"A c #7D7C82",
"S c #838384",
"D c #838288",
"F c #8B8B8C",
"G c #8E8D93",
"H c #939393",
"J c #9A9A9A",
"K c #A3A3A3",
"L c #AEAEAE",
"P c gray69",
/* pixels */
"t5=@%=%@;@&%$:+$++&+++:y+++++++++&.$$+$o$%%=%%%#a;@%O2kxBxSSZKHF",
"t5=%%=%%%@&++-+++&&++&::++++&+&+.+.+$.$oO+#%%+#ow-=>=wxxBBFSFHSF",
"hu78787785t516,661161166:1:1116111:y0<44<<333<<<8=;<;2twwxxnZbbZ",
"2>%%==@@%*5@$++$++++++++..+++++++..1<oO%oooOOOoo;%%;@*==2xxSJZHJ",
"<>;>>>=;&-q$&+$&+&+++&++&+&&&+++&$O58O#%%%%%%&%%@X@==*==*ugHHmKH",
">;;>>=%=$&qo$o+++++++&++++++++++%$O31oOO%OO#O+###@*=;>;<2uuJHBLH",
"82><===*--yo&+-$+&+&&+&&++++++++%%%34$$$%#O$#O%$@=@=;@=;wguSJBKH",
"08<==O#=&&yo&+&++++++++&++++++++oOo,,O$#+#O#OOOOO=@===@;bBkSLSJJ",
"tt00844866996146611111:11:1111114<155333><<<<33<22=727w7gSBmSbHZ",
"23<>,,,,:,,,,,:-::&:&&16&&&:&:&:-=-;;-&=*-&-;;--u0=>=>7ukgZHJHFF",
"==%%%%&$$$&&&&$$&+++++16++++&+++%O#$$OO%%$%$%%$$aw@*=*>2w@gJKKHH",
"**=%#@$$$$+$&&&+++&&++:1+&&+&&++%$O$%#O%%%O%%%#Oww=*=>>@>22FJHJH",
";;====-=&$$$$&&$++&&+&:6+&&++&+&%$+%#O@%%#@@%@OO7w==*w7@2BxFKJJH",
"=%@=$%&=&$$$$$$$&&+++&:6+++&&+&+$##%%$#%%%%&%%%#wu=@*ua7gFHFKPFK",
"3<<>,--::::--&:::&&&&:16&&&::::::-;:;-=-;---,;;-tt;>*wuukBSBFFZH",
"dut0843,66661116111111111:1116164<489532<333355380>w>>>2kxkxmgBm",
"20g@@=@@&-p+&#&+&$++++++++++++++%OO35O$##$$OO#OO@=@@@@@=wnifilDG",
"waz<==@=-,p&-+:&&&&&&&&+&&&&&&&&-%O55%==%%%%%%%%=======>wZMe3iGA",
"=;2O##@>&,p$$+-$++++&++++&+&++++%$#45%%%%#$$$#+O@==@====3ZDg=iGA",
"w2;#>>@=-6p&&&:$+&&+++&++&&&+&&&&=%55--%%==%%%%=@@*==;=>8MmB#hAH",
"w7O@;;%#$,y&+&&$++&++++&&+++++++$%$<3%%%%$%#+@OO@@@@====hvlA3jMF",
"ud37277w69p416166y66611y11166166453rt5555452355307222200idznlvAn",
"ak2<#@=@&#&$+$+$+&&++&&:+&&+++++$%o--O%#$$O$##O#2<=@@@===3hvCCAc",
"ug=;@>=#&+$&&&+:++&&+&:1+&++&++&%=O-;%-%=%%%%%%%uw>====;338cADND",
"bc> =*==%@;%+$+&&&&&+&:1+&+&&+++%%=;-=%%%=%=%%@@a0;@==;=j83hAAAA",
"hb0@*=@@*@*%+:$&++&++&:1++&+&++&%$%%=%$%%%%%%##@u<=@=%=3nhdjnAMn",
"2g0=@==#&+=O+:++++++++::&++&+&++%$#$%OO%#@%#%@@#w=O==@;7zhdjMAAA",
"0gt22<721<0>11,,::::::16::1:1:1:1;,13,,,,,>,,,,,u728220dhdijvvnn",
"xx022;<;<4p,,:,,:::&:&:::&:::::&;&;54;-;;;;;;;;;@=@@#==;i33jvjvM",
"ku;==@#@%-r+$.++++++++++++++++++oX+;;$ooXXX##OXX@==@#=;####jvhMC",
"w7=*==>@%-y$:o-$&&&&&&+++&&&&&++&$=3<=#=%%======X@@@#=##=,=jcdvM",
"@;=@O@;X$&qo-+:+++++++++++++++++%o$,;$O%OO@@@@@@=#@==#==#,=fzhMA",
">>>@&@@@&:1&+++++&&&&+++++++++++%o@*>@O@XX@@X@@O@@%%@===;<=wnxbZ",
"uuw722>>:161::1:+&&++&&+&::::::::-*22**>>>>>>>>>>>>><3227hugbxxx",
"uw722>>>&11:::::1611666y:&:::::&;-->>****>*>>>**w5>*;><<@w820222",
"**@@@**&+&&+&&&+++++++&:++++++++@OO@@OO@@@@@@XXOw2*@=@@@X=#;<=<0",
">*@@+++@+++++&++&+&++&&1+++++++++OO@OOO@X@OO@@@@0>@@===%=;%<8>8t",
">>**@&&@&&&++&&+++++++&1++++&+++@@@%@@@@OO@@@@+@8;=@=@=%@=@%@=;@",
"**@@&&&&&&&+++++&++&++&1+++++++++@@@@@@O@O@@@@@@8;@%@OO%>=@;==>;",
">***+&+&&+&&++&&+++&++&1+++++++&++@@@@@O*@*@&@@@5;=%=@>3w;#ww<ux",
"7777727761y:61116:1::111::::1:::>>>w7>>>>>2>>2>241,,1,69w090wpyq",
"********&&1+&++++&++++&++++++&++X+X**X@XOO@@X@%@oo+oooo+##OO%;&+",
"@@@@@@X@&+:+&+++++++++++++++++++@%@>>@*@XXO+@@@@-&&$&$$&@%%%-,;&",
"@@@@@@@@&&1+&++&&&+&++++++++++++XXX:>O@O@@@@X@X@++o++$++@OO@&-%+",
"O@@@@@X@++:+++++++++++++++++.++.+@@>>@*@%%%%%@@@$$++$&$$$&&&-:-$",
"@@@**@*@&+1+&&++++++++++++++++++XOX*:X@@XXXOO@O@$$o+$$$++$$&&-&+",
">>>>>>*>:&6&::&:::&:::::::&::&:&>>:22*>>>>22277766,1111,,144666,",
">>2>2>>*&&6&:::&:::&::11&&&&&&&&&@O*:X%%@@%%*@&*,,&$$&$+&---:,:&",
"@@@@@@@@OOOOO@OX..+++.+:.+.+.+.+OO@OOO@OOOOOOOOO,$oo#OXX@@=@=##@",
"@@@@@OOO@@@@@@@@+.++++&:.++.+.+.OOOOOOOXOOOXOOOX,&####@=##@@@%@*",
"**@**@@@OOOOOOOO&+++++&:++++++++@O@@@@@@O@@@@O@@,%ooXOX#@@##@===",
"OOO@XOOOO@@@@O@@+.....+:+......+XXXXOX  OOXOOOXO<;$$@O##O@@@@@@X",
"@@@@****OO@OOOO@:&&&***2&&:&&&&&*@*;**@*********5<>;;;;><<<<<2<;",
"*>>*>>>>>>22>>>>>>::*>>>::::::::>>>22>>>***>*>*>;==;;=;>323<322;",
"OOO@@@@@O@@@XXOOXXX+XXXO+...+..+OXX@@O O  O     oXX@@OO#X@XXO=#X",
"@@@OOOOO@@**@OO@@++@@@@@++++++++@XO**OO@@@@@@@@@@##=%#OO@@@@@;;#",
"@@X@OOOOO@*@@XOOX@@@@@@XXOOXOXOO@XO**XX@OO@O@@@@@#%@@#@#O#@X#==O",
"@@@@@@O@O@*@@OOOXXXXXXXXOOOOO@O@@XX**XX@OOOOOOO@X@##@@XO#@@X@;=@",
"X@X@XOXOO@@@OXOOXXOXXXOXO@O@@@@@@O@**@X@@@O@O@OO@##OOO#@@=@#@==@",
"**>;***>>>>2>>>>>>>>>><2>>2><<>222222>>>><><>>>>2<>>>><<<<>><22>",
"***@*@*@XX@OOXXOXXXXXXX*OXXXXXXX@@X@@XXXOOOXXXXX=@XXXXOOXXXXOOOX",
"XXXXXX  @@@@@@@@@@@@@O*>@O@@@@@@@@@@@@O@@@@@@@@@;=@##%%%#@##@@##",
"@@@@@@@@XXX XXXXXXXXXX@>XXXXXXXXXXXXXXXXXXXXXOOX=@XXOOOXOOOOOXX@",
"@OOOXXXX@@OX@@@@@XX@@X@>O@X@@@@@X@@OO@@@O@O@O@O@=#O@@#OX#OOO#OX@"
};
